<?xml version="1.0" standalone="no"?><!DOCTYPE svg PUBLIC "-//W3C//DTD SVG 1.1//EN" "http://www.w3.org/Graphics/SVG/1.1/DTD/svg11.dtd" ><svg xmlns="http://www.w3.org/2000/svg"><metadata></metadata><defs><font id="Founder:FZQingKeBenYueSongJF" horiz-adv-x="1000"><font-face font-family="FZQingKeBenYueSongJF" font-weight="400" font-stretch="normal" units-per-em="1000" panose-1="2 0 5 0 0 0 0 0 0 0" ascent="861" descent="-236" x-height="0" bbox="3 -193 997 847" underline-thickness="50" underline-position="-100" unicode-range="U+0030-9a30" /><missing-glyph horiz-adv-x="1000"  /><glyph glyph-name="" unicode="0" d="M223 705 q82 0 126 -87 q47 -92 47 -272 q0 -352 -173 -352 q-88 0 -131 84 q-44 86 -44 268 q0 359 175 359 ZM223 673 q-43 0 -63 -76 q-21 -78 -21 -249 q0 -182 22 -257 q19 -66 62 -66 q40 0 59 68 q21 76 21 253 q0 179 -20 255 q-19 72 -60 72 Z" /><glyph glyph-name="" unicode="1" d="M299 12 l-257 0 l0 23 q46 0 65 23 q20 24 20 83 l0 396 q0 54 -17 74 q-15 18 -58 20 l0 26 l165 46 l0 -560 q0 -62 18 -85 q18 -23 64 -23 l0 -23 Z" /><glyph glyph-name="" unicode="2" d="M375 234 l27 -7 l-14 -215 l-338 0 q0 88 42 180 q44 95 114 150 q96 83 96 188 q0 72 -23 110 q-21 35 -59 35 q-27 0 -47 -22 q-20 -23 -24 -56 q29 -35 18 -72 q-12 -37 -54 -40 q-27 0 -41 18 q-14 18 -14 51 q0 65 43 107 q46 45 121 45 q79 0 126 -48 q46 -47 46 -128 q0 -77 -35 -133 q-36 -55 -114 -99 q-112 -62 -141 -180 l200 0 q28 0 41 20 q15 23 30 96 Z" /><glyph glyph-name="" unicode="3" d="M150 348 l0 36 q69 9 102 45 q35 39 35 115 q-1 66 -23 101 q-20 32 -54 32 q-56 -1 -67 -68 q24 -35 10 -70 q-14 -34 -50 -34 q-52 0 -54 64 q0 57 43 96 q47 42 124 42 q72 0 117 -46 q45 -46 45 -120 q-1 -125 -152 -174 q164 -41 162 -189 q0 -85 -46 -134 q-47 -50 -131 -50 q-81 1 -128 37 q-46 35 -45 92 q2 32 17 51 q15 20 42 20 q39 0 54 -36 q15 -36 -12 -71 q9 -32 29 -48 q18 -14 43 -14 q36 0 59 35 q27 41 27 118 q2 164 -147 170 Z" /><glyph glyph-name="" unicode="4" d="M382 12 l-204 0 l0 26 q32 0 44 16 q13 17 13 62 l0 75 l-198 0 l0 44 l220 455 l68 0 l0 -457 l64 0 l0 -42 l-64 0 l0 -70 q0 -48 13 -66 q12 -17 44 -17 l0 -26 ZM235 233 l0 327 l-159 -327 l159 0 Z" /><glyph glyph-name="" unicode="5" d="M87 690 l273 0 l0 -106 l-247 0 l-14 -222 q50 65 118 65 q72 0 121 -58 q50 -59 50 -151 q-1 -105 -50 -163 q-49 -58 -136 -58 q-75 0 -118 35 q-41 34 -41 87 q0 29 14 48 q15 20 40 20 q39 0 53 -35 q14 -35 -12 -71 q13 -52 64 -54 q39 -2 65 45 q29 52 29 142 q0 171 -104 171 q-61 0 -103 -97 l-27 8 l25 394 Z" /><glyph glyph-name="" unicode="6" d="M235 673 q-40 -3 -64 -67 q-29 -76 -29 -223 q37 58 96 58 q62 -2 106 -62 q44 -61 46 -158 q0 -104 -45 -165 q-45 -62 -125 -62 q-168 0 -168 331 q0 180 55 283 q52 98 135 98 q59 0 97 -33 q37 -32 37 -80 q-2 -62 -56 -63 q-33 0 -45 31 q-12 32 8 68 q-4 22 -18 34 q-13 11 -30 10 ZM221 401 q-35 0 -57 -47 q-22 -46 -22 -116 q0 -101 23 -159 q21 -54 55 -54 q35 0 56 45 q23 50 23 150 q1 83 -21 132 q-21 48 -57 49 Z" /><glyph glyph-name="" unicode="7" d="M75 468 l-24 6 l18 216 l317 0 l0 -66 q-144 -283 -142 -565 q0 -33 -16 -50 q-15 -16 -41 -16 q-50 0 -50 54 q0 162 194 537 l-183 0 q-27 0 -42 -22 q-17 -26 -31 -94 Z" /><glyph glyph-name="" unicode="8" d="M370 545 q-1 -104 -99 -156 q121 -85 116 -203 q0 -91 -50 -142 q-49 -50 -131 -50 q-77 0 -120 45 q-42 44 -42 117 q0 121 105 183 q-97 78 -97 182 q0 81 44 133 q45 53 120 53 q69 0 111 -43 q43 -44 43 -119 ZM135 569 q-4 -91 106 -165 q60 61 60 150 q0 60 -25 92 q-23 29 -60 28 q-37 -1 -59 -29 q-22 -28 -22 -76 ZM305 147 q0 51 -27 90 q-30 44 -100 85 q-67 -61 -67 -155 q0 -66 28 -104 q26 -35 67 -35 q40 0 69 33 q30 34 30 86 Z" /><glyph glyph-name="" unicode="9" d="M203 28 q39 0 60 58 q26 70 32 230 q-41 -62 -102 -62 q-69 0 -108 57 q-39 57 -39 157 q0 109 45 173 q45 64 122 64 q77 0 126 -95 q47 -92 47 -238 q0 -378 -185 -378 q-67 0 -106 33 q-36 30 -36 75 q0 29 14 48 q15 21 41 20 q41 0 55 -36 q13 -34 -10 -68 q12 -38 44 -38 ZM213 671 q-34 0 -55 -49 q-22 -53 -22 -151 q0 -83 24 -129 q21 -40 53 -40 q82 0 82 178 q0 98 -24 147 q-22 44 -58 44 Z" /><glyph glyph-name="" unicode="A" d="M355 12 l0 26 q44 2 60 16 q15 13 8 38 l-40 142 l-196 0 l-41 -140 q-9 -26 5 -38 q16 -14 68 -18 l0 -26 l-189 0 l0 26 q58 -2 79 61 l189 591 l51 7 l169 -567 q15 -50 36 -70 q18 -18 54 -22 l0 -26 l-253 0 ZM199 274 l171 0 l-80 288 l-91 -288 Z" /><glyph glyph-name="" unicode="B" d="M98 121 l0 448 q0 55 -14 74 q-14 19 -53 19 l0 28 l251 0 q105 0 153 -43 q43 -39 43 -116 q0 -66 -35 -106 q-34 -39 -110 -60 q163 -30 161 -171 q0 -92 -52 -136 q-54 -46 -169 -46 l-242 0 l0 22 q36 0 51 17 q16 19 16 70 ZM190 380 l74 0 q59 0 90 36 q32 38 32 114 q0 63 -32 96 q-33 34 -93 34 l-71 0 l0 -280 ZM190 43 l67 0 q136 0 139 148 q0 158 -133 158 l-73 0 l0 -306 Z" /><glyph glyph-name="" unicode="C" d="M500 682 l7 -207 l-28 -9 q-29 112 -71 160 q-39 44 -97 43 q-74 -1 -118 -87 q-45 -87 -45 -235 q0 -141 48 -223 q47 -80 123 -79 q53 1 96 36 q48 39 78 118 l34 -21 q-37 -97 -91 -140 q-51 -41 -125 -41 q-121 0 -193 95 q-71 94 -71 251 q0 161 70 260 q72 102 194 102 q72 0 136 -39 l53 16 Z" /><glyph glyph-name="" unicode="D" d="M37 690 l221 0 q303 0 302 -335 q0 -174 -74 -259 q-73 -84 -225 -84 l-227 0 l0 31 q38 0 53 18 q15 18 15 66 l0 439 q0 54 -14 74 q-14 20 -51 20 l0 30 ZM193 43 l68 0 q97 0 149 73 q56 78 56 236 q0 155 -55 233 q-53 75 -155 75 l-63 0 l0 -617 Z" /><glyph glyph-name="" unicode="E" d="M98 130 l0 436 q0 52 -16 73 q-15 20 -53 21 l0 30 l409 0 l13 -164 l-27 -8 q-19 89 -51 119 q-25 23 -79 23 l-106 0 l0 -283 l74 0 q45 0 65 21 q21 22 24 78 l26 0 l0 -233 l-26 0 q-4 59 -25 82 q-19 21 -64 21 l-74 0 l0 -303 l120 0 q46 0 70 28 q28 33 58 134 l23 -6 l-13 -187 l-417 0 l0 31 q38 0 53 18 q16 19 16 69 Z" /><glyph glyph-name="" unicode="F" d="M102 141 l0 422 q0 59 -14 78 q-14 19 -53 19 l0 30 l403 0 l14 -170 l-29 -8 q-19 93 -47 123 q-23 25 -74 25 l-109 0 l0 -282 l84 0 q40 0 56 19 q16 19 24 74 l27 0 l0 -224 l-27 0 q-8 59 -27 81 q-17 20 -54 20 l-83 0 l0 -202 q0 -60 15 -82 q14 -21 56 -21 l0 -31 l-231 0 l0 31 q36 0 52 20 q17 22 17 78 Z" /><glyph glyph-name="" unicode="G" d="M355 326 l208 0 l0 -30 q-33 0 -45 -18 q-12 -18 -12 -69 l0 -83 q0 -61 1 -80 q-43 -3 -85 -21 q-72 -28 -121 -28 q-122 0 -190 91 q-68 91 -68 252 q0 165 72 262 q73 98 196 98 q78 0 135 -31 l54 17 l8 -185 l-26 -10 q-28 95 -71 136 q-39 38 -100 38 q-74 0 -122 -84 q-50 -87 -52 -235 q-3 -146 47 -231 q46 -78 119 -78 q54 0 112 29 l0 143 q0 49 -14 68 q-13 18 -46 19 l0 30 Z" /><glyph glyph-name="" unicode="H" d="M366 12 l0 31 q39 0 51 19 q13 20 13 82 l0 211 l-238 0 l0 -214 q0 -57 13 -77 q14 -21 52 -21 l0 -31 l-220 0 l0 31 q38 0 52 19 q16 21 16 79 l0 413 q0 63 -13 84 q-14 22 -53 22 l0 30 l215 0 l0 -30 q-38 0 -50 -21 q-12 -20 -12 -85 l0 -168 l238 0 l0 168 q0 60 -14 83 q-14 24 -47 23 l0 30 l213 0 l0 -30 q-39 0 -52 -22 q-12 -21 -12 -84 l0 -410 q0 -61 13 -81 q13 -20 55 -20 l0 -31 l-220 0 Z" /><glyph glyph-name="" unicode="I" d="M36 690 l232 0 l0 -30 q-40 0 -55 -22 q-16 -23 -16 -84 l0 -413 q0 -59 16 -79 q15 -19 57 -19 l0 -31 l-240 0 l0 31 q41 0 58 19 q19 22 19 79 l0 413 q0 61 -17 84 q-16 22 -54 22 l0 30 Z" /><glyph glyph-name="" unicode="J" d="M139 690 l235 0 l0 -30 q-39 0 -54 -21 q-15 -21 -15 -77 l0 -402 q-2 -165 -150 -166 q-66 0 -99 26 q-30 23 -30 64 q0 27 16 45 q16 18 41 18 q38 0 53 -30 q15 -30 -4 -67 q9 -26 35 -26 q47 0 47 109 l0 428 q0 56 -17 78 q-16 21 -58 21 l0 30 Z" /><glyph glyph-name="" unicode="K" d="M545 690 l0 -30 q-41 -4 -67 -21 q-28 -18 -67 -68 l-99 -132 l165 -318 q34 -74 91 -80 l0 -29 l-152 0 l-164 348 l-66 -88 l0 -134 q0 -53 16 -75 q15 -21 56 -23 l0 -28 l-231 0 l0 27 q38 0 53 19 q16 21 16 73 l0 436 q0 55 -14 74 q-14 19 -52 19 l0 30 l224 0 l0 -30 q-38 0 -53 -20 q-15 -20 -15 -73 l0 -249 l209 296 q8 24 -3 34 q-13 12 -51 12 l0 30 l204 0 Z" /><glyph glyph-name="" unicode="L" d="M450 228 l-16 -216 l-406 0 l0 31 q42 0 56 18 q16 20 16 80 l0 423 q0 57 -15 77 q-14 19 -54 19 l0 30 l228 0 l0 -30 q-39 0 -53 -20 q-14 -20 -14 -74 l0 -523 l101 0 q49 0 74 33 q30 39 56 159 l27 -7 Z" /><glyph glyph-name="" unicode="M" d="M720 12 l-234 0 l0 31 q42 -3 57 16 q15 19 15 80 l0 507 l-194 -611 l-37 0 l-188 600 l0 -486 q0 -61 18 -84 q17 -22 62 -22 l0 -31 l-189 0 l0 31 q45 0 62 21 q18 22 18 83 l0 407 q0 63 -12 83 q-13 21 -55 23 l0 30 l177 0 l160 -509 l160 509 l178 0 l0 -30 q-43 0 -56 -19 q-12 -17 -12 -71 l0 -429 q0 -62 12 -79 q12 -17 58 -19 l0 -31 Z" /><glyph glyph-name="" unicode="N" d="M395 690 l172 0 l0 -30 q-41 0 -56 -20 q-15 -19 -15 -73 l0 -555 l-53 0 l-309 567 l0 -437 q0 -58 15 -78 q16 -21 60 -21 l0 -31 l-179 0 l0 31 q40 -2 56 17 q17 21 17 79 l0 415 q0 65 -15 86 q-14 20 -55 20 l0 30 l147 0 l286 -523 l0 400 q0 54 -16 74 q-15 19 -55 19 l0 30 Z" /><glyph glyph-name="" unicode="O" d="M297 705 q117 0 187 -91 q74 -96 74 -267 q0 -168 -72 -262 q-70 -91 -189 -91 q-120 0 -188 88 q-70 91 -70 257 q0 165 68 264 q70 102 190 102 ZM297 673 q-77 -1 -119 -81 q-44 -83 -44 -245 q0 -168 47 -249 q42 -72 117 -73 q71 -1 115 73 q49 83 49 244 q0 171 -45 254 q-42 78 -120 77 Z" /><glyph glyph-name="" unicode="P" d="M98 141 l0 422 q0 56 -15 77 q-14 20 -50 20 l0 30 l228 0 q111 0 164 -49 q50 -46 50 -139 q0 -105 -52 -156 q-51 -50 -158 -50 l-76 0 l0 -152 q0 -61 15 -81 q15 -20 57 -20 l0 -31 l-231 0 l0 31 q39 0 53 19 q15 20 15 79 ZM189 326 l50 0 q68 0 105 41 q40 44 40 132 q0 161 -146 161 l-49 0 l0 -334 Z" /><glyph glyph-name="" unicode="Q" d="M574 9 l9 -28 q-65 -47 -116 -47 q-64 0 -106 71 q-25 -8 -62 -8 q-119 0 -187 87 q-71 91 -71 258 q0 164 70 264 q70 100 186 100 q121 0 191 -94 q70 -94 70 -263 q0 -107 -31 -183 q-26 -64 -82 -120 q33 -56 82 -56 q16 0 47 19 ZM172 144 q30 103 101 99 q43 0 73 -33 q28 -31 71 -122 q47 98 47 254 q0 334 -167 334 q-75 0 -117 -80 q-45 -85 -45 -243 q0 -114 37 -209 ZM300 28 q30 0 45 5 q-39 91 -62 121 q-18 24 -41 24 q-34 0 -55 -80 q18 -34 49 -53 q30 -18 64 -17 Z" /><glyph glyph-name="" unicode="R" d="M97 134 l0 429 q0 57 -14 77 q-14 20 -53 20 l0 30 l228 0 q113 0 166 -47 q48 -42 48 -125 q0 -62 -25 -103 q-24 -39 -74 -64 l90 -236 q24 -65 77 -72 l0 -31 l-144 0 l-110 315 l-96 0 l0 -190 q0 -55 14 -74 q14 -20 55 -20 l0 -31 l-229 0 l0 31 q39 0 52 17 q15 19 15 74 ZM190 358 l65 0 q59 0 91 38 q34 40 34 119 q0 76 -33 111 q-32 34 -102 34 l-55 0 l0 -302 Z" /><glyph glyph-name="" unicode="S" d="M389 693 l6 -185 l-25 -8 q-28 99 -62 138 q-30 35 -77 35 q-45 0 -70 -33 q-24 -32 -24 -84 q0 -81 132 -146 q83 -41 119 -91 q34 -47 34 -113 q-1 -99 -50 -152 q-50 -54 -144 -54 q-44 0 -116 24 l-48 -11 l-4 194 l26 3 q20 -104 55 -144 q30 -34 87 -34 q49 0 78 30 q29 30 29 84 q0 98 -155 173 q-125 60 -125 186 q0 91 44 144 q46 56 132 56 q54 0 115 -29 l43 17 Z" /><glyph glyph-name="" unicode="T" d="M157 12 l0 31 q45 -2 62 16 q18 19 18 72 l0 529 q-71 0 -112 -49 q-43 -52 -61 -163 l-27 8 l16 234 l465 0 l13 -232 l-25 -9 q-21 111 -70 164 q-43 47 -108 47 l0 -524 q0 -55 17 -74 q17 -19 64 -19 l0 -31 l-252 0 Z" /><glyph glyph-name="" unicode="U" d="M395 690 l177 0 l0 -30 q-44 0 -60 -24 q-16 -24 -16 -89 l0 -290 q0 -136 -50 -199 q-48 -61 -146 -61 q-104 -2 -154 62 q-50 64 -50 194 l0 313 q0 56 -14 75 q-14 18 -53 19 l0 30 l228 0 l0 -30 q-37 0 -52 -20 q-16 -21 -16 -74 l0 -309 q0 -114 36 -168 q34 -51 102 -51 q142 0 142 219 l0 290 q0 69 -16 92 q-15 21 -58 21 l0 30 Z" /><glyph glyph-name="" unicode="V" d="M319 12 l-46 0 l-155 547 q-15 50 -38 74 q-20 21 -51 27 l0 30 l238 0 l0 -30 q-47 0 -58 -22 q-10 -21 5 -82 l113 -412 l118 414 q16 58 4 81 q-11 21 -53 21 l0 30 l177 0 l0 -30 q-70 -1 -98 -104 l-156 -544 Z" /><glyph glyph-name="" unicode="W" d="M198 567 l83 -410 l129 520 l64 0 l114 -516 l86 395 q13 56 -2 80 q-15 24 -62 26 l0 28 l177 0 l0 -28 q-32 -2 -50 -29 q-20 -29 -37 -103 l-116 -518 l-52 0 l-124 533 l-133 -533 l-54 0 l-115 543 q-12 56 -32 81 q-18 24 -46 26 l0 28 l231 0 l0 -28 q-47 -2 -60 -23 q-13 -20 -1 -72 Z" /><glyph glyph-name="" unicode="X" d="M558 690 l0 -30 q-40 -4 -67 -24 q-30 -23 -58 -74 l-102 -177 l127 -255 q19 -48 47 -69 q20 -15 58 -22 l0 -27 l-240 0 l0 27 q36 1 48 15 q11 13 1 36 l-100 207 l-109 -193 q-16 -29 -5 -43 q12 -16 60 -22 l0 -27 l-192 0 l0 27 q66 3 114 87 l113 205 l-123 245 q-20 41 -45 61 q-22 18 -51 23 l0 30 l244 0 l0 -30 q-43 -4 -53 -24 q-10 -20 11 -61 l78 -158 l106 189 q7 26 -6 39 q-13 13 -48 15 l0 30 l192 0 Z" /><glyph glyph-name="" unicode="Y" d="M163 12 l0 31 q43 0 59 19 q16 19 16 75 l0 153 l-131 293 q-17 38 -38 56 q-17 15 -43 21 l0 30 l238 0 l0 -30 q-45 0 -56 -21 q-12 -20 6 -56 l100 -232 l109 226 q20 46 9 64 q-12 19 -62 19 l0 30 l189 0 l0 -30 q-32 -1 -56 -21 q-26 -22 -49 -73 l-122 -250 l0 -177 q0 -58 15 -77 q15 -19 63 -19 l0 -31 l-247 0 Z" /><glyph glyph-name="" unicode="Z" d="M84 479 l-24 7 l8 204 l401 0 l0 -30 l-323 -617 l148 0 q33 0 53 6 q23 7 40 25 q34 36 64 152 l26 -8 l-10 -206 l-435 0 l0 29 l324 619 l-123 0 q-57 0 -87 -35 q-31 -37 -62 -146 Z" /><glyph glyph-name="" unicode="a" d="M341 352 l0 -255 q0 -28 9 -39 q9 -12 32 -12 l3 -30 l-90 -10 q-22 -3 -30 10 q-9 15 -9 59 q-43 -76 -118 -74 q-48 1 -76 35 q-28 35 -28 93 q0 71 46 110 q54 45 175 51 l0 67 q0 49 -16 76 q-14 24 -40 24 q-35 0 -54 -34 q22 -39 9 -67 q-13 -28 -48 -28 q-21 0 -35 16 q-13 15 -13 40 q0 40 35 69 q40 34 107 34 q140 -4 141 -135 ZM255 182 l0 78 q-67 -3 -101 -38 q-30 -31 -29 -85 q0 -90 53 -90 q33 0 54 33 q23 36 23 102 Z" /><glyph glyph-name="" unicode="b" d="M23 619 l0 31 l143 43 q-3 -46 -3 -196 l0 -87 q33 74 94 74 q61 0 101 -63 q43 -67 43 -178 q0 -118 -46 -184 q-43 -61 -113 -61 q-30 0 -53 14 q-25 15 -48 50 l-47 -59 l-25 10 l10 120 l0 398 q0 52 -13 71 q-12 17 -43 17 ZM238 446 q-33 0 -55 -55 q-24 -60 -24 -163 q0 -96 24 -149 q21 -47 54 -47 q34 0 54 44 q24 52 24 163 q0 104 -24 159 q-21 48 -53 48 Z" /><glyph glyph-name="" unicode="c" d="M314 126 l22 -15 q-25 -63 -57 -91 q-29 -25 -71 -25 q-80 0 -122 64 q-41 62 -41 178 q0 117 45 185 q45 68 118 67 q52 -1 86 -31 q35 -31 34 -76 q-1 -28 -14 -43 q-14 -16 -36 -16 q-29 0 -39 27 q-11 29 9 62 q-6 46 -44 47 q-31 -2 -49 -52 q-21 -58 -20 -166 q1 -104 25 -150 q24 -48 63 -47 q57 0 91 82 Z" /><glyph glyph-name="" unicode="d" d="M236 626 l0 26 l141 38 q-6 -98 -6 -174 l0 -400 q0 -44 10 -59 q9 -14 37 -14 l1 -29 l-96 -7 q-20 -2 -27 8 q-7 11 -7 43 q-36 -63 -100 -60 q-68 0 -106 64 q-38 64 -38 173 q0 112 42 180 q43 69 111 69 q51 0 90 -45 l0 97 q0 51 -11 69 q-10 17 -41 21 ZM210 446 q-35 0 -55 -51 q-21 -54 -21 -157 q0 -99 22 -149 q20 -45 54 -45 q81 0 81 203 q-1 101 -23 150 q-23 49 -58 49 Z" /><glyph glyph-name="" unicode="e" d="M310 131 l24 -20 q-49 -116 -130 -116 q-76 0 -119 62 q-43 63 -43 177 q0 123 42 191 q41 66 111 65 q130 -3 135 -238 l-196 0 q0 -110 23 -159 q21 -45 65 -45 q52 0 88 83 ZM134 283 l109 0 q0 91 -16 137 q-14 41 -38 40 q-23 -1 -38 -44 q-16 -48 -17 -133 Z" /><glyph glyph-name="" unicode="f" d="M264 474 l0 -31 l-91 0 l0 -314 q0 -52 12 -70 q11 -16 44 -16 l0 -31 l-196 0 l0 31 q30 0 41 16 q13 18 13 67 l0 317 l-55 0 l0 31 l55 0 l0 75 q0 65 30 102 q33 41 97 41 q48 -1 78 -27 q28 -25 28 -62 q0 -25 -13 -39 q-14 -15 -37 -15 q-31 0 -40 25 q-9 24 8 57 q-4 28 -31 28 q-34 0 -34 -84 l0 -101 l91 0 Z" /><glyph glyph-name="" unicode="g" d="M374 435 q0 -16 -8 -21 q-8 -5 -19 4 q-20 21 -43 21 q34 -60 34 -121 q0 -76 -39 -120 q-38 -42 -102 -42 q-33 0 -55 11 q-29 -19 -29 -50 q0 -39 66 -38 q40 2 67 2 q61 0 95 -32 q32 -30 32 -80 q0 -75 -46 -116 q-46 -41 -131 -41 q-73 0 -115 30 q-41 29 -41 76 q0 48 58 81 q-51 23 -51 84 q0 29 13 49 q15 24 54 49 q-61 42 -61 133 q0 80 36 127 q37 49 103 49 q42 0 70 -11 q38 5 82 5 q16 -1 23 -11 q7 -11 7 -38 ZM191 459 q-51 0 -51 -141 q0 -67 16 -102 q14 -30 37 -30 q24 0 39 30 q17 34 17 99 q0 72 -17 110 q-15 34 -41 34 ZM213 -4 l-88 0 q-18 -23 -18 -60 q0 -43 24 -68 q25 -26 71 -26 q98 3 100 85 q0 69 -89 69 Z" /><glyph glyph-name="" unicode="h" d="M431 12 l-177 0 l0 31 q26 0 35 17 q10 18 10 71 l0 181 q0 59 -15 90 q-13 28 -34 28 q-34 0 -59 -49 q-24 -48 -24 -114 l0 -134 q0 -53 11 -72 q11 -18 38 -18 l0 -31 l-180 0 l0 31 q27 0 36 17 q10 18 10 68 l0 405 q0 53 -10 70 q-9 16 -36 16 l0 31 l134 42 q-3 -168 -3 -172 l0 -118 q46 81 113 81 q103 0 105 -157 l0 -193 q0 -50 11 -71 q10 -19 35 -19 l0 -31 Z" /><glyph glyph-name="" unicode="i" d="M38 417 l0 30 l139 36 l0 -350 q0 -52 12 -71 q12 -19 45 -19 l0 -31 l-200 0 l0 31 q31 0 44 18 q14 19 14 72 l0 205 q0 45 -13 63 q-12 16 -41 16 ZM136 697 q46 -3 52 -65 q-5 -67 -52 -67 q-24 0 -39 18 q-15 18 -15 49 q0 28 16 47 q15 18 38 18 Z" /><glyph glyph-name="" unicode="j" d="M113 417 l0 30 l143 38 q-3 -61 -3 -159 l0 -344 q0 -85 -34 -127 q-32 -39 -97 -40 q-39 0 -63 23 q-23 22 -23 56 q0 24 13 42 q13 18 34 18 q33 -2 47 -28 q13 -27 -8 -61 q1 -6 7 -11 q5 -4 11 -4 q28 0 28 88 l0 397 q0 49 -12 66 q-11 16 -43 16 ZM212 698 q46 -3 52 -65 q-5 -67 -52 -67 q-24 0 -39 18 q-15 18 -15 49 q0 28 16 47 q15 18 38 18 Z" /><glyph glyph-name="" unicode="k" d="M217 12 l-189 0 l0 31 q29 0 40 15 q12 16 12 60 l0 420 q0 55 -10 73 q-10 17 -41 17 l0 22 l138 40 q-4 -71 -4 -171 l0 -287 l103 165 q10 23 -1 35 q-11 13 -38 11 l0 31 l172 0 l0 -31 q-66 0 -120 -81 l-23 -38 l91 -214 q27 -60 70 -67 l0 -31 l-122 0 l-90 223 l-42 -54 l0 -60 q0 -46 11 -62 q11 -16 43 -16 l0 -31 Z" /><glyph glyph-name="" unicode="l" d="M225 12 l-199 0 l0 31 q34 0 46 16 q12 16 12 67 l0 399 q0 52 -12 71 q-12 19 -42 19 l0 30 l137 45 l0 -560 q0 -53 13 -71 q12 -16 45 -16 l0 -31 Z" /><glyph glyph-name="" unicode="m" d="M614 12 l-171 0 l0 31 q22 0 31 15 q10 17 10 61 l0 205 q0 111 -49 111 q-27 0 -50 -43 q-24 -44 -24 -93 l0 -178 q0 -45 10 -62 q10 -16 33 -16 l0 -31 l-171 0 l0 31 q26 0 35 15 q10 16 10 62 l0 192 q0 62 -14 94 q-12 28 -32 28 q-27 0 -50 -49 q-23 -48 -23 -106 l0 -160 q0 -46 9 -61 q9 -15 34 -15 l0 -31 l-175 0 l0 31 q25 0 35 16 q10 17 10 59 l0 221 q0 43 -10 60 q-9 16 -34 16 l0 30 l131 38 l0 -86 q20 46 47 66 q25 19 60 19 q66 0 89 -98 q45 98 109 98 q50 0 77 -36 q28 -38 28 -114 l0 -213 q0 -45 10 -61 q9 -15 35 -15 l0 -31 Z" /><glyph glyph-name="" unicode="n" d="M25 415 l0 30 l128 42 l0 -93 q45 87 107 88 q108 0 108 -150 l0 -220 q0 -39 10 -54 q10 -15 36 -15 l0 -31 l-176 0 l0 31 q26 0 35 13 q9 14 9 55 l0 196 q0 72 -12 99 q-11 25 -39 25 q-28 0 -52 -43 q-26 -47 -26 -113 l0 -164 q0 -41 7 -53 q8 -15 36 -15 l0 -31 l-171 0 l0 31 q28 0 36 14 q7 12 7 55 l0 225 q0 48 -9 64 q-8 14 -34 14 Z" /><glyph glyph-name="" unicode="o" d="M200 490 q72 0 114 -64 q44 -67 44 -188 q0 -120 -45 -184 q-42 -59 -114 -59 q-77 0 -117 58 q-42 61 -43 178 q0 123 42 191 q42 68 119 68 ZM199 460 q-33 0 -52 -52 q-21 -58 -21 -174 q0 -209 73 -209 q72 0 72 213 q0 112 -22 171 q-19 51 -50 51 Z" /><glyph glyph-name="" unicode="p" d="M167 484 l0 -61 q36 59 94 59 q57 -1 99 -64 q42 -63 44 -172 q0 -124 -43 -188 q-39 -58 -108 -58 q-51 0 -86 41 l0 -110 q0 -52 12 -71 q11 -18 41 -18 l0 -30 l-190 0 l0 30 q30 0 42 17 q13 19 13 68 l0 408 q0 44 -13 62 q-12 17 -41 18 l0 30 l136 39 ZM241 439 q-34 -1 -55 -52 q-23 -55 -23 -156 q0 -97 24 -147 q21 -43 54 -43 q33 3 52 44 q24 52 24 158 q-7 194 -76 196 Z" /><glyph glyph-name="" unicode="q" d="M402 -188 l-190 0 l0 30 q29 0 40 16 q12 17 12 59 l0 129 q-18 -27 -38 -37 q-17 -8 -47 -8 q-137 1 -142 237 q0 112 40 178 q41 68 116 68 q58 0 100 -61 l35 66 l24 -9 l-2 -107 l0 -452 q0 -45 11 -62 q11 -17 41 -17 l0 -30 ZM198 449 q-33 0 -52 -47 q-22 -54 -22 -161 q0 -98 22 -151 q19 -47 50 -47 q32 -1 55 47 q24 48 25 160 q0 99 -21 150 q-20 49 -57 49 Z" /><glyph glyph-name="" unicode="r" d="M29 452 l138 35 l0 -101 q48 101 106 101 q28 0 44 -19 q17 -20 17 -53 q-4 -65 -51 -65 q-24 0 -36 18 q-11 16 -10 46 q-27 -5 -48 -45 q-21 -40 -22 -94 l0 -147 q0 -48 11 -65 q11 -18 44 -20 l0 -31 l-194 0 l0 31 q29 0 41 15 q14 18 14 63 l0 216 q0 49 -13 68 q-12 17 -41 17 l0 30 Z" /><glyph glyph-name="" unicode="s" d="M271 483 l6 -133 l-22 -7 q-19 61 -41 89 q-20 25 -47 25 q-24 0 -38 -18 q-13 -17 -14 -46 q-2 -61 76 -102 q56 -30 80 -66 q22 -34 22 -84 q0 -67 -34 -105 q-34 -37 -92 -38 q-38 0 -82 21 l-37 -9 l-5 134 l23 7 q16 -72 39 -99 q21 -24 62 -24 q23 0 38 16 q15 16 15 40 q0 35 -19 61 q-21 28 -71 57 q-96 54 -91 141 q0 63 34 103 q35 41 94 41 q32 0 67 -18 l37 14 Z" /><glyph glyph-name="" unicode="t" d="M125 627 l28 0 l0 -153 l82 0 l0 -31 l-82 0 l0 -327 q0 -63 42 -64 q16 0 42 25 l14 -31 q-42 -48 -97 -48 q-48 0 -68 27 q-19 26 -19 84 l0 334 l-41 0 l0 31 l12 0 q34 0 52 27 q22 33 35 126 Z" /><glyph glyph-name="" unicode="u" d="M419 43 l3 -29 l-95 -6 q-19 -1 -26 7 q-7 8 -7 31 l0 42 q-40 -90 -116 -90 q-104 0 -104 144 l0 205 q0 44 -10 61 q-9 16 -36 19 l0 32 l134 25 q-3 -99 -3 -128 l0 -191 q0 -58 14 -82 q14 -23 45 -23 q31 0 52 39 q25 46 25 132 l0 109 q0 54 -11 70 q-10 14 -39 14 l0 30 l136 32 q-2 -80 -2 -138 l0 -255 q0 -29 9 -40 q8 -10 31 -10 Z" /><glyph glyph-name="" unicode="v" d="M255 474 l130 0 l0 -31 q-44 -5 -68 -96 l-93 -335 l-52 0 l-98 368 q-14 58 -49 63 l0 31 l179 0 l0 -31 q-29 0 -38 -19 q-10 -20 2 -57 l57 -234 l69 244 q8 36 -1 51 q-9 15 -38 15 l0 31 Z" /><glyph glyph-name="" unicode="w" d="M203 147 l72 313 l50 0 l73 -320 l47 225 q5 46 -3 62 q-8 17 -40 19 l0 28 l133 0 l0 -28 q-23 -2 -37 -22 q-15 -22 -27 -74 l-69 -338 l-54 0 l-76 305 l-67 -305 l-55 0 l-78 367 q-6 33 -16 48 q-10 15 -29 19 l0 28 l162 0 l0 -28 q-23 -2 -30 -20 q-7 -18 3 -60 l41 -219 Z" /><glyph glyph-name="" unicode="x" d="M382 12 l-194 0 l0 31 q25 0 33 11 q7 9 -1 29 l-40 93 l-49 -93 q-10 -20 -5 -29 q7 -11 36 -11 l0 -31 l-134 0 l0 31 q47 0 70 50 l68 121 l-76 167 q-13 30 -27 44 q-14 14 -34 18 l0 31 l174 0 l0 -31 q-24 1 -30 -8 q-5 -8 1 -29 l41 -97 l52 85 q13 28 7 39 q-5 10 -29 10 l0 31 l132 0 l0 -31 q-25 0 -41 -13 q-17 -13 -38 -50 l-66 -107 l75 -164 q26 -63 75 -66 l0 -31 Z" /><glyph glyph-name="" unicode="y" d="M256 474 l133 0 l0 -31 q-43 -2 -66 -81 l-128 -436 q-19 -65 -42 -94 q-20 -25 -45 -25 q-24 0 -40 17 q-17 18 -17 50 q0 24 15 42 q15 19 36 19 q39 -3 43 -41 q13 10 27 57 l16 59 l-110 370 q-15 56 -52 63 l0 31 l173 0 l0 -31 q-23 1 -30 -13 q-7 -14 2 -46 l59 -219 l63 207 q13 36 3 53 q-9 16 -40 18 l0 31 Z" /><glyph glyph-name="" unicode="z" d="M301 174 l22 -4 l-4 -158 l-292 0 l0 22 l188 409 l-61 0 q-38 0 -53 -20 q-17 -22 -41 -105 l-20 4 l5 152 l273 0 l0 -23 l-191 -408 l77 0 q38 0 56 22 q22 26 41 109 Z" /><glyph glyph-name="" unicode="&#x4e50;" d="M731 806 l75 -79 q4 -5 3 -9 q-1 -4 -8 -5 q-111 -18 -463 -40 l-7 -9 l-60 -288 l228 4 l2 121 l-6 109 q-1 7 1 10 q2 2 7 0 l102 -41 q9 -3 4 -11 l-11 -30 l-2 -156 l180 4 l62 64 l74 -69 q3 -4 1 -7 q-2 -4 -7 -4 l-310 -8 l-1 -164 l2 -160 q1 -53 -38 -95 q-31 -33 -95 -67 q-9 -4 -11 5 q0 63 -39 83 q-5 1 -4 6 q1 5 5 6 q67 -3 77 10 q4 5 4 20 l3 354 l-327 -8 q-7 2 -7 8 q0 7 6 8 q17 3 25 13 q8 10 12 35 l26 214 l7 117 q0 4 2 5 q2 1 7 -2 l98 -56 q291 62 383 112 ZM340 312 l88 -54 q8 -4 8 -9 q0 -4 -7 -10 q-137 -167 -360 -331 q-8 -4 -11 0 q-4 4 2 11 q172 145 280 393 ZM654 272 q208 -97 233 -138 q7 -12 -3 -42 q-11 -32 -32 -53 q-16 -17 -30 -13 q-15 5 -25 31 q-21 57 -68 120 q-44 59 -81 86 q-3 3 -1 6 q3 4 7 3 Z" /><glyph glyph-name="" unicode="&#x4e66;" d="M485 -11 q0 -26 -33 -71 q-32 -43 -49 -48 q-4 -1 -11 4 q-7 6 -8 13 l8 235 l-1 211 l-183 -3 q-69 -2 -119 -10 l-32 29 l334 5 l0 226 l-233 -6 q-8 0 -8 10 q0 9 8 10 l233 5 l0 71 l-5 174 l113 -35 q5 -1 5 -6 q0 -5 -4 -8 q-16 -10 -17 -39 l0 -154 l168 4 l40 48 l80 -52 q7 -7 0 -13 l-27 -35 l-15 -194 l56 1 l37 48 l82 -49 q6 -5 1 -12 l-24 -34 l-3 -111 l2 -83 q0 -47 -36 -89 q-30 -35 -78 -60 q-5 -1 -7 0 q-3 2 -2 7 q7 57 -42 79 q-5 2 -4 6 q1 4 7 3 q35 -1 49 7 q15 8 16 31 l4 237 l-304 -6 l1 -213 l1 -133 ZM652 587 l-169 -5 l0 -226 l154 2 l15 229 ZM667 791 q76 -15 135 -36 q69 -25 77 -47 q7 -22 -3 -50 q-9 -26 -27 -41 q-28 -19 -44 8 q-39 67 -73 102 q-29 31 -71 53 q-5 4 -3 8 q2 4 9 3 Z" /><glyph glyph-name="" unicode="&#x4e8e;" d="M252 705 q-68 -4 -106 -11 l-30 30 l621 11 l59 57 l69 -65 q3 -3 2 -6 q0 -3 -4 -4 l-372 -7 l67 -20 q7 -3 3 -12 l-14 -34 l0 -236 l252 7 l63 66 l84 -74 q3 -3 2 -6 q0 -3 -4 -4 l-397 -12 l0 -127 l5 -176 q2 -56 -37 -109 q-39 -54 -109 -88 q-6 -3 -10 0 q-3 3 -2 10 q0 46 -11 65 q-11 19 -42 31 q-5 3 -4 7 q2 5 9 5 q61 -3 85 5 q22 7 22 29 l-2 345 l-257 -7 q-60 -5 -105 -13 l-30 33 l392 10 l0 117 q0 128 -3 187 l-196 -4 Z" /><glyph glyph-name="" unicode="&#x4eab;" d="M673 648 l84 -49 q5 -3 0 -9 l-25 -34 l1 -95 l5 -12 q1 -2 0 -3 q-1 -2 -3 -2 q-90 2 -391 -3 q-5 -23 -52 -51 q-11 -6 -17 -5 q-7 2 -7 10 l3 96 l0 45 q1 20 -4 98 q0 4 2 4 q3 1 7 -1 l67 -31 l297 4 l33 38 ZM200 139 q-65 -4 -102 -13 l-35 34 l407 11 q-2 70 -4 104 q1 6 7 4 q22 -13 50 -20 l63 82 l-254 -6 q-37 -1 -68 -8 l-29 27 l361 9 l43 41 l74 -65 q8 -7 5 -15 q-3 -7 -16 -8 q-62 -5 -157 -62 q7 -1 13 -1 q8 0 6 -9 q3 -30 3 -71 l252 7 l57 62 l73 -68 q5 -10 -6 -13 l-376 -11 q0 -77 -5 -144 q-10 -89 -120 -136 q-6 -1 -8 1 q-3 3 -2 9 q-8 56 -41 68 q-5 2 -5 8 q0 6 5 6 q48 0 61 8 q13 8 16 37 q5 62 3 140 l-271 -8 ZM344 584 l0 -121 l297 4 l0 120 l-297 -3 ZM251 677 q-71 -3 -104 -12 l-35 31 l343 3 l-5 134 q0 5 1 6 q2 2 6 1 l105 -31 q9 -3 2 -14 q-13 -13 -13 -44 l1 -51 l210 2 l56 57 l67 -64 q4 -4 3 -7 q-2 -2 -7 -3 l-630 -8 Z" /><glyph glyph-name="" unicode="&#x5173;" d="M304 587 q-55 -1 -105 -10 l-34 28 l168 4 l-3 154 q-2 35 -4 46 q-1 4 1 6 q2 2 8 -1 l71 -30 q7 -4 7 -13 l-3 -160 l148 4 l75 221 l93 -49 q4 -2 4 -5 q0 -2 -4 -6 l-18 -18 l-78 -141 l72 2 l53 51 l66 -60 q4 -3 3 -7 q-1 -3 -6 -4 l-279 -7 q-3 -136 -14 -222 l287 4 l59 59 l71 -68 q4 -3 3 -6 q-1 -3 -4 -3 l-381 -7 q26 -129 113 -210 q86 -82 292 -176 q8 -4 6 -9 q-2 -5 -11 -6 q-71 -3 -126 -62 q-145 95 -204 186 q-59 90 -85 277 l-23 -1 q-25 -187 -136 -288 q-112 -102 -365 -182 q-6 -2 -9 4 q-2 5 3 11 q196 74 293 169 q98 97 123 285 l-230 -4 q-64 -1 -107 -10 l-28 31 l367 5 q11 87 11 221 l-140 -3 Z" /><glyph glyph-name="" unicode="&#x5206;" d="M202 413 l411 17 l46 54 l94 -62 q8 -6 0 -14 l-29 -38 q-5 -193 -14 -328 q-9 -42 -48 -83 q-40 -42 -98 -70 q-6 -3 -10 -1 q-4 2 -4 7 q4 62 -29 86 q-7 2 -6 9 q1 7 8 6 q48 2 63 10 q17 10 21 41 q7 31 10 175 q3 131 0 186 l-246 -9 l82 -32 q5 -2 5 -4 q1 -3 -3 -9 l-11 -27 q-11 -115 -56 -195 q-45 -79 -114 -134 q-108 -82 -240 -138 q-9 -4 -12 1 q-3 5 6 10 q167 89 241 185 q78 101 87 252 q2 37 0 90 l-42 -1 q-23 -1 -81 -10 l-31 26 ZM541 827 q75 -125 167 -205 q96 -84 270 -174 q4 -2 3 -7 q-1 -4 -5 -4 q-56 -2 -124 -67 q-125 103 -190 193 q-72 99 -131 259 l10 5 ZM68 328 q-11 -5 -14 -1 q-4 5 3 13 q206 190 315 478 l103 -46 q5 -6 -1 -12 l-24 -16 q-89 -137 -199 -250 q-62 -63 -183 -166 Z" /><glyph glyph-name="" unicode="&#x5bc6;" d="M645 688 l82 -53 q5 -5 -3 -11 l-26 -18 q-125 -154 -276 -246 q6 -2 9 -2 q88 -20 185 -4 q19 7 25 12 q11 9 11 25 l2 87 q-1 9 3 10 q4 1 8 -6 q25 -50 46 -73 q21 -22 52 -35 q29 -11 28 -33 q-1 -22 -33 -36 q-78 -33 -189 -36 q-103 -2 -173 22 q-27 10 -46 27 q-107 -57 -310 -142 q-8 -3 -11 3 q-2 5 6 9 q194 101 289 165 q-10 19 -12 44 q-4 74 4 187 q0 6 3 7 q3 1 8 -2 l76 -32 q6 -4 -1 -14 l-12 -14 q-14 -60 -9 -126 q0 -6 1 -9 q156 119 263 294 ZM723 227 l111 -46 q6 -2 7 -6 q1 -3 -4 -9 l-15 -27 l0 -99 q0 -77 -72 -135 q-19 -11 -24 6 q-16 66 -32 89 l-408 -10 l0 -10 q-10 -45 -52 -83 q-12 -10 -20 -9 q-6 1 -8 10 l2 213 l-6 96 q0 8 3 10 q3 2 12 -1 l78 -30 q9 -3 4 -11 l-9 -25 l-4 -142 l172 5 l0 131 l-4 122 l115 -34 q5 -1 5 -6 q0 -4 -4 -8 q-15 -15 -19 -39 l-3 -164 l175 4 l2 129 l-2 79 ZM801 722 l41 38 l97 -74 q7 -7 3 -15 q-3 -7 -14 -8 q-60 -1 -128 -46 q-6 -2 -9 0 q-2 2 -1 7 l15 80 l-588 -22 q-31 -107 -116 -155 q-17 -9 -21 4 q-12 45 1 65 q37 31 51 55 q17 28 24 76 q-2 8 3 10 q5 2 15 -3 q18 -10 40 -33 l235 8 l3 130 l113 -28 q8 -3 2 -13 l-11 -23 l-4 -62 l249 9 ZM242 547 q1 6 6 6 q5 1 6 -6 q27 -115 -10 -172 q-8 -16 -32 -24 q-22 -7 -42 -3 q-17 4 -19 20 q-3 17 13 33 q67 70 78 146 ZM849 464 q3 -17 -6 -37 q-9 -22 -24 -29 q-15 -10 -24 -7 q-8 3 -12 16 q-33 98 -87 139 q-4 3 -3 6 q1 4 5 2 q71 -17 103 -33 q45 -23 48 -57 ZM436 673 q75 -24 94 -65 q8 -17 -6 -40 q-11 -18 -26 -30 q-18 -12 -26 4 q-30 71 -42 125 q-1 3 1 5 q2 2 5 1 Z" /><glyph glyph-name="" unicode="&#x5e72;" d="M269 729 q-69 -6 -105 -12 l-36 34 l606 9 l62 67 l83 -74 q3 -3 3 -6 q-1 -5 -7 -6 l-386 -8 l62 -22 q5 -3 5 -12 l-5 -46 l-1 -232 l248 4 l68 66 l83 -77 q3 -3 3 -6 q-1 -5 -7 -6 l-395 -7 l-1 -236 l4 -165 q-3 -36 -36 -76 q-34 -41 -53 -44 q-7 0 -11 4 q-5 5 -6 17 l5 267 l2 231 l-264 -4 q-69 -6 -105 -12 l-36 37 l405 6 l2 181 q-4 93 -10 131 l-177 -3 Z" /><glyph glyph-name="" unicode="&#x5e79;" d="M721 470 l-1 -178 l92 3 l43 54 l73 -62 q5 -3 4 -7 q-1 -3 -6 -4 l-206 -4 l-1 -180 l3 -106 q-11 -68 -65 -108 q-12 -7 -19 -5 q-7 2 -7 12 l6 208 l1 177 l-7 0 q-96 -4 -130 -11 l-33 26 l171 5 l1 178 q-60 -3 -89 -10 l-32 27 l235 6 l38 51 l70 -57 q5 -3 4 -7 q-1 -3 -6 -4 l-139 -4 ZM716 744 q79 -106 271 -199 q7 -3 6 -8 q-1 -5 -7 -6 q-49 3 -104 -50 q-107 91 -176 247 q-92 -129 -262 -289 l-3 -2 l-2 -99 l9 -20 q2 -6 0 -9 q-3 -4 -10 -3 q-46 3 -124 3 l-2 -113 l92 2 l43 45 l57 -56 q3 -3 2 -6 q-1 -2 -4 -3 l-190 -5 l-1 -62 l1 -113 q1 -26 -15 -54 q-11 -20 -41 -57 q-16 -16 -26 -15 q-9 2 -9 17 l9 282 l-73 -2 q-53 -1 -103 -9 l-27 28 l203 5 l4 116 q-33 -1 -66 -2 q-7 -21 -31 -43 q-22 -20 -30 -6 l5 128 l2 116 l0 77 q0 7 2 9 q2 2 5 -1 l56 -36 l57 2 l1 108 l-48 -1 q-50 -1 -100 -9 l-27 26 l176 3 l0 22 l-4 122 l98 -34 q5 -2 1 -10 l-11 -16 l-3 -82 l82 1 l44 40 l51 -51 q3 -3 2 -5 q-1 -2 -4 -3 l-176 -2 l-4 -107 l45 2 l29 40 l75 -40 q8 -4 2 -12 l-20 -28 l-1 -63 q138 153 202 370 l81 -49 q8 -7 -1 -20 q-4 -6 -8 -11 ZM172 450 l157 6 q9 0 9 -10 q0 -9 -9 -10 l-157 -6 l-2 -103 l184 5 l4 205 l-184 -7 l-2 -80 Z" /><glyph glyph-name="" unicode="&#x5f52;" d="M496 394 q-11 -1 -11 10 q0 11 10 12 l262 4 l3 271 l-282 -6 q-12 2 -13 13 q0 10 10 10 l286 7 l42 59 l86 -50 q7 -4 1 -11 l-28 -43 l-5 -443 l5 -160 q-10 -63 -69 -122 q-13 -10 -21 1 q-17 55 -39 83 l-307 -5 q-5 0 -9 4 q-3 3 -3 8 q0 12 11 12 l328 3 l4 347 l-261 -4 ZM422 786 l-5 -32 l0 -323 q-5 -197 -94 -319 q-90 -124 -302 -251 q-8 -2 -10 3 q-2 5 4 10 q169 121 235 233 q74 125 78 327 l-1 287 l-3 109 q0 4 2 6 q1 1 4 0 l92 -50 ZM172 698 l60 -30 q11 -5 8 -23 l-4 -347 q-8 -56 -52 -103 q-8 -9 -17 -5 q-8 4 -10 14 l5 486 q-1 7 1 8 q3 2 9 0 Z" /><glyph glyph-name="" unicode="&#x5f71;" d="M409 544 q5 -2 6 -5 q1 -4 -3 -9 q-13 -10 -13 -43 l0 -13 l126 2 l51 56 l69 -60 q4 -4 3 -8 q-2 -3 -8 -4 l-422 -8 q-81 -3 -119 -11 l-34 28 l249 4 l-3 89 l-81 -1 q-11 -26 -40 -46 q-8 -6 -15 -5 q-7 1 -8 9 l1 203 q0 12 -4 76 q-1 4 1 5 q1 1 7 -1 l54 -32 l229 5 l32 46 l86 -43 q7 -3 2 -10 l-21 -28 l0 -150 l8 -15 q3 -4 2 -7 q-2 -4 -8 -3 q-69 0 -138 0 l-85 -2 l76 -19 ZM403 22 q1 -82 -103 -136 q-10 -3 -12 5 q-2 29 -10 42 q-7 12 -24 20 q-7 3 -7 8 q0 4 7 5 q39 -3 52 2 q12 5 12 22 l-1 229 q-40 -1 -81 -1 q-14 -26 -45 -47 q-8 -4 -12 -5 q-9 -3 -10 9 l4 89 l0 40 q-2 49 -4 99 q0 3 3 4 q3 1 7 -1 l67 -30 l214 4 l38 42 l76 -48 q5 -3 0 -9 l-24 -27 l1 -103 l6 -11 q1 -2 0 -3 q-1 -2 -3 -2 q-69 2 -152 1 l-1 -92 l2 -106 ZM404 -139 q-7 -4 -10 3 q-3 7 4 13 q146 81 278 213 q116 116 196 246 l79 -84 q7 -8 -3 -15 l-17 -13 q-107 -107 -250 -202 q-103 -68 -277 -161 ZM458 758 l-228 -5 l0 -75 l197 7 q9 -1 9 -7 q0 -7 -10 -9 l-196 -7 l1 -85 l228 8 l-1 173 ZM241 359 l0 -122 l221 3 l0 123 l-221 -4 ZM870 582 l63 -72 q4 -6 -1 -13 q-156 -135 -326 -233 q-6 -3 -9 3 q-3 5 1 9 q90 73 166 164 q64 76 96 136 q4 10 10 6 ZM835 808 l72 -63 q4 -5 -1 -11 q-99 -98 -278 -219 q-5 -4 -9 0 q-4 4 -1 8 q145 155 208 280 q3 5 5 6 q1 1 4 -1 ZM295 143 q5 -4 0 -10 q-89 -121 -259 -241 q-5 -2 -7 0 q-2 2 2 6 q79 69 130 158 q29 51 55 125 l79 -38 ZM438 176 q59 -17 102 -44 q45 -29 46 -53 q1 -16 -12 -34 q-10 -13 -23 -21 q-25 -16 -34 9 q-27 90 -82 138 q-2 2 -1 4 q1 2 4 1 Z" /><glyph glyph-name="" unicode="&#x6298;" d="M511 762 l90 -53 q152 77 199 119 q6 6 11 1 l68 -85 q3 -5 1 -9 q-2 -4 -8 -5 q-78 -5 -290 -45 l0 -178 l237 4 l55 57 l67 -61 q4 -3 3 -8 q-1 -4 -6 -5 l-188 -5 l64 -42 q13 -7 1 -21 l-21 -29 l4 -393 q-5 -69 -58 -101 q-12 -8 -20 -7 q-9 1 -9 10 l-4 582 l-125 -3 q0 -132 -9 -224 q-11 -101 -48 -170 q-62 -119 -277 -225 q-6 -1 -8 4 q-2 5 3 9 q111 65 166 132 q56 66 75 168 q22 121 21 345 l0 117 q0 70 -3 115 q0 6 2 7 q2 1 7 -1 ZM254 823 l87 -31 q5 -2 5 -4 q0 -3 -4 -9 l-14 -30 l-2 -133 l35 1 l45 47 l61 -53 q4 -4 2 -8 q-2 -4 -7 -5 l-136 -6 l-2 -175 q58 23 124 50 q4 2 6 -3 q2 -4 -4 -8 q-77 -51 -127 -85 l-1 -100 l0 -187 q0 -58 -24 -100 q-26 -45 -84 -79 q-8 -5 -12 -1 q-4 4 -3 12 q5 46 -31 73 q-5 4 -3 9 q2 5 8 4 q45 -4 59 5 q14 8 14 38 l1 273 q-82 -59 -113 -87 q-6 -5 -9 -5 q-3 0 -6 6 l-32 100 q-2 7 5 8 q54 14 155 49 l1 200 l-50 -2 q-46 -2 -89 -11 l-30 31 l169 6 l0 11 q0 74 -3 191 q-1 6 1 8 q2 2 8 0 Z" /><glyph glyph-name="" unicode="&#x63a5;" d="M219 824 l89 -32 q5 -2 5 -4 q0 -3 -4 -9 l-14 -30 l-2 -148 l27 2 l43 46 l56 -50 q4 -4 2 -8 q-2 -4 -7 -5 l-121 -8 l-2 -155 q90 35 115 45 q4 2 6 -2 q2 -4 -2 -8 l-21 -15 l125 3 q0 146 -6 186 q-1 5 1 7 q2 2 8 0 l65 -29 q6 -5 6 -13 l-3 -149 l111 3 l6 79 q6 85 6 125 q1 3 2 4 q2 2 6 -1 l86 -37 q4 -2 4 -4 q0 -3 -3 -5 l-15 -26 l-26 -133 l77 2 l51 55 l67 -64 q2 -2 2 -4 q-1 -3 -4 -4 l-353 -10 l72 -36 q5 -2 5 -5 q0 -3 -4 -7 l-22 -19 l-55 -76 l256 8 l52 54 l65 -61 q3 -3 2 -6 q0 -3 -4 -4 l-196 -6 l49 -27 q5 -4 1 -9 l-13 -12 q-67 -89 -119 -137 q165 -40 194 -69 q10 -10 14 -43 q4 -32 -1 -54 q-5 -20 -22 -24 q-17 -4 -27 12 q-71 78 -201 141 q-126 -103 -396 -187 q-13 -3 -14 3 q-1 7 10 13 q218 83 340 197 q-72 28 -140 42 q36 69 69 146 l-23 -1 q-55 -2 -101 -11 l-29 28 l162 5 q32 79 55 144 l-82 -2 q-61 -3 -110 -13 l-18 19 q-36 -25 -80 -56 l-1 -124 l3 -188 q2 -111 -111 -179 q-8 -5 -12 -1 q-4 4 -3 12 q3 49 -31 73 q-5 4 -3 9 q2 5 8 4 q44 3 57 11 q13 8 13 31 l1 294 q-65 -48 -103 -83 q-6 -5 -9 -5 q-3 0 -6 6 l-34 102 q-2 7 5 8 q48 12 147 48 l1 180 l-21 -1 q-65 -4 -102 -13 l-30 29 l153 9 l0 28 q0 74 -3 191 q-1 6 1 8 q2 2 8 0 ZM486 127 q68 -12 130 -26 q67 72 115 167 l-148 -4 l-97 -137 ZM543 667 q-66 -3 -100 -11 l-36 28 l196 3 l4 138 l99 -24 q12 -5 2 -18 l-11 -31 l-5 -64 l95 2 l46 47 l59 -53 q3 -4 2 -6 q-1 -2 -8 -3 l-343 -8 Z" /><glyph glyph-name="" unicode="&#x6444;" d="M461 453 q-62 -3 -106 -12 l-32 30 l146 3 l-2 173 l-3 101 q-49 -1 -89 -9 l-32 30 l477 7 l42 46 l61 -51 q4 -4 2 -7 q-1 -3 -7 -4 l-183 -5 l49 -15 q8 -3 2 -17 l-5 -16 l-2 -139 l1 -88 l82 2 l50 54 l66 -59 q4 -4 2 -7 q-1 -3 -7 -4 l-192 -5 l0 -12 q-11 -44 -55 -90 q-11 -10 -19 -8 q-7 2 -7 14 l2 94 l-241 -6 ZM197 824 l85 -31 q5 -2 5 -4 q0 -3 -4 -9 l-13 -30 l-2 -147 l30 1 l42 44 l54 -49 q6 -10 -3 -13 l-123 -5 l-1 -165 q33 15 66 31 q4 1 6 -2 q1 -4 -4 -8 q-34 -28 -69 -55 l-1 -139 l4 -146 q3 -109 -112 -178 q-8 -5 -12 -1 q-4 4 -3 12 q10 48 -29 73 q-6 4 -4 9 q2 5 8 4 q45 -2 59 6 q13 8 13 35 l1 262 q-70 -58 -98 -89 q-5 -5 -8 -5 q-3 0 -6 6 l-29 94 q-1 6 4 7 q43 12 137 51 l1 194 l-31 -1 q-54 -1 -89 -10 l-28 29 l148 5 l0 25 q0 74 -3 191 q-1 6 1 8 q2 2 8 0 ZM630 311 q-7 1 -8 10 q-1 10 7 11 l159 8 l34 44 l71 -45 q5 -8 -2 -14 l-19 -24 q-52 -109 -123 -194 q76 -64 240 -132 q5 -2 4 -7 q-1 -4 -5 -6 q-50 -3 -115 -74 q-115 85 -168 170 q-81 -84 -224 -185 q-6 -3 -7 1 q-2 5 1 8 q125 111 202 228 q-30 66 -47 171 l9 2 q16 -72 65 -131 q41 70 83 168 l-157 -9 ZM586 62 q-10 -41 -36 -60 q-10 -10 -24 8 q-33 60 -63 101 q-79 -96 -242 -227 q-6 -4 -8 1 q-2 5 2 9 q132 128 211 266 q-24 28 -68 68 q-4 4 -1 7 q2 3 8 2 q39 -23 78 -46 q25 45 58 120 l-143 -9 q-8 1 -9 10 q-1 10 8 12 l148 7 l35 42 l68 -43 q5 -8 -2 -14 l-22 -26 q-45 -80 -86 -135 q38 -25 80 -58 q15 -18 8 -35 ZM670 581 q12 -1 12 -10 q0 -9 -11 -10 l-135 -4 l-2 -82 l168 4 l2 61 l1 119 l-3 95 l-215 -5 l55 -18 q10 -3 4 -17 l-6 -16 l-1 -35 l129 5 q12 -1 12 -10 q0 -9 -11 -10 l-131 -5 l-1 -66 l133 4 Z" /><glyph glyph-name="" unicode="&#x651d;" d="M879 29 l1 -65 q-10 -50 -47 -87 q-6 -6 -12 -4 q-5 2 -6 8 l1 146 l-112 -4 q-44 -1 -77 -10 l-28 26 l69 3 l-5 320 q-12 -2 -19 -4 l-20 26 l231 9 l34 49 l51 -58 q5 -3 -1 -9 l-96 -3 l44 -20 q3 -2 0 -9 l-6 -18 l-3 -246 l0 -29 l16 1 l24 43 l47 -53 q4 -4 -2 -9 l-84 -3 ZM820 371 l-99 -3 l-1 0 l-2 -91 l77 3 q7 0 7 -9 q0 -10 -7 -12 l-78 -3 l-2 -80 l79 5 q6 -1 6 -10 q0 -9 -6 -10 l-79 -5 l-3 -112 l105 4 l3 323 ZM781 493 l68 2 l41 56 l57 -62 q3 -4 2 -7 q-1 -3 -6 -4 l-166 -6 q-7 -17 -22 -31 q-15 -14 -32 -29 q-10 -9 -14 -7 q-4 2 -4 15 l1 49 l-316 -12 q-47 -3 -80 -12 l-35 30 l180 6 l-1 172 l-3 100 l-2 0 q-49 -1 -80 -10 l-31 30 l459 12 l33 49 l55 -55 q3 -4 2 -7 q-1 -3 -6 -4 l-157 -5 l58 -20 q8 -3 3 -17 l-5 -16 l-1 -139 l2 -78 ZM707 490 l1 41 l-1 130 l-2 101 l-227 -8 l42 -16 q8 -3 3 -17 l-5 -16 l-1 -31 l161 4 q10 -1 10 -10 q0 -9 -9 -10 l-162 -4 l-1 -65 l162 4 q10 -1 10 -10 q0 -9 -9 -10 l-163 -4 l-2 -86 l193 7 ZM572 72 l2 -96 q-10 -53 -44 -87 q-7 -6 -11 -4 q-5 1 -6 8 l1 149 l-103 -55 q-36 -14 -75 -58 q-3 -3 -6 -2 q-2 1 -2 5 l-34 67 l70 24 l-5 327 q-20 -2 -40 -8 l-31 27 l263 10 l24 42 l48 -52 q5 -3 -1 -9 l-73 -2 l31 -16 q4 -1 1 -8 l-6 -18 l-3 -222 l56 19 q3 2 5 -2 q2 -4 -1 -7 l-60 -32 ZM517 357 l-99 -3 l-2 -92 l76 4 q7 0 7 -9 q0 -10 -7 -12 l-77 -3 l-2 -81 l79 5 q6 -1 6 -9 q0 -8 -6 -10 l-79 -5 l-2 -103 l104 35 l2 283 ZM249 603 l14 1 l36 43 l49 -48 q6 -10 -3 -13 l-96 -5 l-2 -177 q28 13 56 26 q4 1 6 -2 q1 -4 -4 -8 q-57 -46 -58 -47 l-2 -175 l4 -138 q3 -104 -104 -170 q-8 -5 -12 -1 q-4 4 -3 12 q-1 46 -31 64 q-5 4 -4 8 q1 5 7 4 q46 -2 59 6 q13 8 13 37 l1 293 q-53 -48 -85 -83 q-5 -5 -8 -5 q-3 0 -6 6 l-29 91 q-1 6 4 7 q54 15 124 44 l1 205 l-15 -1 q-54 -1 -89 -10 l-23 29 l127 5 l0 26 q0 74 -3 191 q-1 6 1 8 q2 2 8 0 l81 -35 q5 -2 5 -4 q0 -3 -4 -9 l-13 -30 l-2 -145 Z" /><glyph glyph-name="" unicode="&#x65bc;" d="M240 613 q-77 -4 -107 -11 l-28 30 l197 5 l8 174 l99 -25 q12 -6 2 -19 l-9 -30 l-10 -98 l102 3 l50 48 l49 -55 q3 -3 4 -6 q0 -5 -6 -6 l-264 -8 l62 -25 q5 -2 6 -6 q1 -4 -4 -10 l-8 -23 l-12 -90 l65 -1 l36 40 l67 -47 q5 -4 0 -9 l-22 -25 l-2 -25 q62 93 91 183 q27 84 51 254 l80 -21 q4 -1 4 -4 q0 -2 -3 -6 l-16 -15 q19 -135 81 -233 q61 -98 191 -200 q4 -4 3 -9 q-1 -6 -8 -5 q-48 4 -107 -45 q-90 87 -130 216 q-29 94 -38 243 q-28 -116 -76 -207 q-46 -87 -126 -181 l-14 -182 q-7 -93 -37 -149 q-33 -61 -102 -96 q-5 -1 -7 1 q-2 3 -1 9 q-1 55 -24 72 q-5 2 -4 7 q1 5 6 5 q48 1 64 21 q16 19 24 87 l21 299 l-70 1 l-2 -16 q-24 -150 -100 -277 q-87 -145 -255 -279 q-5 -1 -7 4 q-2 5 3 8 q129 130 198 266 q65 127 88 281 l10 91 q2 68 -2 97 l-61 -1 ZM596 120 q77 -21 133 -51 q63 -33 69 -62 q5 -23 -10 -52 q-14 -28 -34 -38 q-30 -12 -44 20 q-62 116 -122 174 q-4 4 -2 7 q3 4 10 2 ZM631 327 q127 -37 137 -74 q4 -18 -7 -40 q-11 -21 -26 -28 q-22 -9 -33 14 q-28 73 -77 119 q-3 3 -1 7 q2 4 7 2 Z" /><glyph glyph-name="" unicode="&#x66f8;" d="M777 623 l41 1 l59 64 l72 -71 q4 -9 -8 -13 l-165 -4 l-2 -77 l15 -22 q4 -5 3 -9 q-2 -4 -7 -5 q-89 4 -236 0 l-11 0 l0 -90 l206 3 l49 64 l75 -73 q3 -3 2 -7 q-1 -3 -4 -4 l-328 -5 l0 -94 l267 3 l60 64 l75 -73 q3 -3 2 -7 q-1 -3 -4 -4 l-710 -9 q-85 -6 -112 -11 l-31 32 l370 4 l0 93 l-155 -2 q-85 -6 -112 -11 l-31 32 l298 4 l1 88 l-122 -3 q-70 -5 -104 -14 l-32 33 l258 5 l0 88 l-231 -5 q-71 -4 -107 -14 l-29 33 l367 9 l0 43 l-1 40 l-108 -2 q-73 -4 -105 -13 l-31 32 l244 4 l-3 108 l104 -41 q6 -1 6 -5 q0 -4 -5 -8 q-16 -16 -19 -38 l0 -14 l142 2 l0 2 l42 46 l81 -54 q8 -5 0 -15 l-25 -28 l-1 -52 ZM680 702 l-142 -2 l0 -83 l141 4 l1 81 ZM679 598 l-141 -3 l0 -88 l140 3 l1 88 ZM675 -16 l0 190 l-350 -4 l0 -79 l310 4 q10 -1 10 -10 q0 -8 -8 -10 l-312 -4 l0 -91 l350 4 ZM658 -36 l-340 -4 q-15 -28 -46 -53 q-14 -9 -20 -6 q-5 2 -7 15 l1 233 l-2 82 q0 4 1 5 q2 1 6 0 l81 -46 l339 4 l39 45 l94 -54 q6 -4 0 -11 l-24 -33 l1 -142 q-7 -48 -50 -90 q-16 -15 -25 -15 q-9 1 -16 16 q-16 36 -32 54 Z" /><glyph glyph-name="" unicode="&#x6709;" d="M229 630 q-65 -4 -106 -12 l-29 33 l347 3 q39 92 66 188 l103 -66 q7 -4 7 -10 q0 -6 -8 -10 l-34 -19 q-14 -28 -42 -82 l305 3 l65 61 l72 -65 q5 -12 -5 -14 l-448 -6 q-45 -83 -96 -156 l291 8 l38 37 l79 -57 q6 -5 -1 -13 l-26 -28 l10 -364 q4 -66 -15 -105 q-22 -44 -84 -82 q-6 -3 -10 -1 q-4 2 -4 7 q-4 28 -12 42 q-7 11 -19 18 q-4 2 -5 5 q0 7 7 7 q30 -1 40 8 q10 9 8 35 l-8 469 l-306 -11 q-1 -2 -3 -4 l-1 -137 l260 9 q13 -4 13 -10 q1 -6 -10 -11 l-263 -9 l-1 -137 l269 10 q12 -4 13 -10 q2 -6 -10 -10 l-272 -10 l-1 -111 q0 -63 -47 -126 q-12 -17 -20 -16 q-8 1 -9 18 l11 463 q-136 -161 -317 -275 q-7 -5 -10 -1 q-4 5 4 12 q135 96 244 239 q101 132 172 295 l-202 -2 Z" /><glyph glyph-name="" unicode="&#x6742;" d="M383 838 l100 -39 q9 -6 2 -17 l-12 -28 l-3 -47 l144 5 l33 47 l93 -44 q7 -4 1 -12 l-24 -36 l-41 -138 q-7 -22 0 -32 q8 -12 39 -14 q55 -3 110 10 q30 7 42 25 q11 15 29 71 q2 7 9 5 q6 -2 5 -9 q-12 -72 17 -86 q33 -20 28 -46 q-5 -26 -42 -40 q-90 -35 -194 -13 q-53 11 -81 45 q-30 37 -29 97 l9 148 l-149 -5 l-2 -53 q-5 -99 -99 -166 q-96 -68 -334 -139 q-7 -1 -8 5 q-1 7 6 11 q198 67 279 142 q71 65 74 158 l1 39 l-87 -2 q-57 -1 -106 -11 l-33 29 l227 7 l-4 133 ZM254 286 q-78 -4 -121 -13 l-28 32 l354 2 l-2 125 q-1 7 0 9 q2 3 7 1 l86 -21 q16 -4 13 -20 l-2 -93 l222 2 l63 65 l78 -70 q3 -3 2 -7 q-1 -3 -5 -4 l-360 -5 l-5 -275 q-1 -37 -31 -76 q-32 -41 -83 -62 q-12 -3 -13 5 q1 54 -32 75 q-7 2 -7 7 q0 5 7 6 q38 -1 52 4 q15 6 15 21 l-4 204 q-98 -88 -219 -160 q-90 -53 -219 -111 q-7 -2 -10 3 q-3 5 1 11 q224 112 414 347 l-173 -2 ZM615 227 q161 -49 237 -105 q15 -19 9 -48 q-5 -27 -27 -54 q-10 -15 -21 -13 q-10 2 -18 15 q-73 118 -183 197 q-2 0 -1 4 q0 3 4 4 Z" /><glyph glyph-name="" unicode="&#x6797;" d="M652 840 l96 -43 q6 -5 1 -9 l-20 -30 l-2 -148 l82 2 l53 49 l59 -56 q4 -3 2 -7 q-2 -3 -7 -4 l-162 -3 q15 -157 73 -267 q52 -99 160 -197 q6 -3 5 -8 q-1 -4 -7 -5 q-61 0 -121 -44 q-67 101 -94 229 q-20 95 -31 291 l-12 0 l-5 -423 l3 -179 q-6 -52 -61 -107 q-11 -8 -18 -7 q-8 1 -7 12 l7 288 l0 185 q-85 -156 -244 -324 q-7 -7 -13 -3 q-5 3 1 12 q88 113 150 247 q56 122 107 298 l-15 0 q-59 -1 -110 -10 l-27 27 l152 3 l1 93 q0 78 -2 134 q0 4 1 5 q2 1 5 -1 ZM272 836 l96 -43 q6 -5 1 -9 l-22 -30 l-2 -163 l39 1 l49 47 l55 -54 q4 -3 2 -7 q-2 -3 -7 -4 l-138 -4 l-5 -408 l2 -179 q-6 -50 -58 -102 q-12 -10 -19 -10 q-6 1 -6 10 l7 288 l0 179 q-89 -141 -243 -314 q-5 -6 -9 -2 q-4 5 -2 11 q151 211 255 519 l0 6 l-21 0 q-62 0 -110 -10 l-28 29 l159 3 l1 108 q0 78 -2 134 q0 4 1 5 q2 1 5 -1 ZM366 451 q50 -15 87 -36 q41 -24 44 -43 q4 -14 -11 -36 q-13 -20 -30 -29 q-25 -13 -33 13 q-21 88 -61 122 l4 9 Z" /><glyph glyph-name="" unicode="&#x6807;" d="M245 836 l79 -43 q6 -5 1 -9 l-13 -30 l-2 -167 l52 1 l46 46 l53 -53 q4 -3 2 -7 q-2 -3 -7 -4 l-146 -4 l-1 -97 q103 -35 118 -71 q4 -14 -7 -33 q-10 -17 -25 -25 q-14 -7 -21 -5 q-7 2 -10 15 q-28 78 -55 104 l-2 -297 l4 -130 q63 68 111 162 q39 76 59 148 q3 11 11 7 l69 -49 q5 -6 1 -12 q-86 -133 -251 -274 l1 -25 q-3 -66 -50 -111 q-9 -8 -18 -5 q-10 4 -9 14 l5 282 l0 191 q-77 -123 -214 -272 q-5 -6 -9 -2 q-4 5 -2 11 q73 106 127 221 q47 102 97 251 l-24 0 q-58 0 -110 -9 l-28 29 l164 2 l0 112 q0 78 -2 134 q0 4 1 5 q2 1 5 -1 ZM544 450 q-69 -4 -107 -11 l-28 29 l421 6 l58 54 l62 -64 q3 -3 2 -6 q-1 -3 -4 -4 l-317 -4 l76 -22 q8 -3 4 -9 l-14 -31 l-8 -353 q-2 -97 -111 -150 q-6 -2 -9 1 q-2 2 -1 9 q-4 53 -35 67 q-6 3 -5 7 q1 5 6 6 q44 1 57 10 q11 7 14 32 l5 433 l-66 0 ZM749 282 q131 -44 195 -104 q20 -36 -16 -89 q-34 -29 -55 13 q-52 110 -128 172 q-3 1 -1 5 q1 4 5 3 ZM595 725 q-67 -1 -108 -9 l-28 26 l300 5 l46 46 l59 -52 q3 -3 2 -6 q-1 -3 -4 -4 l-267 -6 Z" /><glyph glyph-name="" unicode="&#x6863;" d="M839 742 l76 -62 q7 -7 -7 -16 l-203 -190 l89 2 l42 54 l82 -51 q7 -4 1 -11 l-26 -34 l-6 -440 l12 -20 q3 -9 -6 -11 q-49 3 -169 3 l-303 -4 q-12 0 -12 11 q0 11 11 12 l370 3 l2 245 l-330 -5 q-12 0 -13 9 q0 10 9 13 l334 6 l2 197 l-333 -4 q-11 -1 -12 10 q-1 11 9 11 l157 3 l1 209 l-4 148 l95 -33 q8 -3 2 -14 l-11 -29 l-10 -278 q109 159 151 266 ZM246 828 l93 -43 q6 -5 1 -9 l-16 -30 l-1 -151 l31 1 l46 46 l53 -54 q5 -7 -3 -10 l-127 -3 l-1 -116 q98 -30 107 -60 q4 -14 -8 -33 q-10 -17 -24 -25 q-22 -12 -28 9 q-20 61 -47 91 l-2 -275 l5 -169 q-1 -28 -20 -61 q-17 -30 -43 -54 q-11 -8 -19 -5 q-8 3 -7 14 l6 282 l0 186 q-87 -130 -223 -268 q-5 -6 -9 -2 q-4 5 -2 11 q74 103 129 215 q49 99 105 254 l0 4 l-28 0 q-58 0 -110 -9 l-28 29 l166 2 l0 95 q0 78 -2 134 q0 4 1 5 q2 1 5 -1 ZM446 700 q-2 3 0 6 q2 2 6 0 q100 -58 121 -104 q5 -13 -8 -34 q-14 -21 -35 -29 q-31 -10 -34 21 q-10 90 -50 140 Z" /><glyph glyph-name="" unicode="&#x6a02;" d="M854 394 q-49 -20 -91 -47 q-21 -14 -59 -43 q-5 -3 -18 -14 q-11 -8 -16 2 l-24 77 q30 3 52 30 q42 49 99 161 q-46 -17 -80 -37 q-33 -20 -53 -33 q-10 -6 -15 2 l-21 70 q22 2 29 5 q9 4 21 21 q65 108 104 244 l63 -58 q9 -8 -2 -21 q-51 -72 -149 -182 l116 15 q26 52 43 93 l59 -67 q5 -5 -3 -14 q-86 -115 -199 -220 l139 33 q-6 24 -17 50 q0 6 1 7 q2 1 10 0 q59 -41 81 -89 q3 -30 -24 -63 q-14 -13 -22 -9 q-10 4 -14 26 q-3 35 -10 61 ZM601 205 q42 -69 120 -99 q78 -30 233 -62 q6 0 7 -6 q0 -5 -6 -9 q-36 -6 -62 -23 q-31 -20 -60 -61 q-98 43 -161 116 q-49 57 -85 144 l-35 -1 l-1 -202 q0 -35 -26 -66 q-28 -34 -76 -51 q-10 -3 -11 5 q6 50 -29 67 q-5 2 -6 6 q0 5 6 6 q38 0 47 4 q8 4 9 18 l-1 142 q-111 -75 -246 -123 q-50 -18 -206 -61 q-6 -2 -8 2 q-1 4 3 10 q243 81 429 241 l-235 -3 q-78 -4 -121 -13 l-28 32 l411 4 l0 71 l102 -29 l-13 -20 l0 -21 l283 3 l58 53 l61 -58 q3 -3 2 -7 q-1 -3 -5 -4 l-350 -5 ZM553 375 l1 312 l-109 -4 l0 -135 l80 4 q11 1 11 -8 q0 -10 -10 -11 l-81 -4 l0 -159 l108 5 ZM539 354 l-94 -4 q-7 -25 -39 -59 q-8 -7 -13 -6 q-5 1 -7 9 q0 17 2 125 l0 214 q0 38 -2 86 q0 6 4 5 l49 -20 q24 70 35 135 q0 2 2 3 q1 0 2 -1 l72 -38 q4 -3 -3 -12 l-91 -91 l93 5 l25 37 l66 -36 q4 -2 4 -5 q0 -3 -4 -6 l-16 -27 l-3 -273 q0 -49 -42 -90 q-14 -10 -18 0 q-20 46 -22 49 ZM303 379 q-64 -28 -104 -57 q-39 -28 -63 -47 q-11 -9 -15 4 l-23 80 q31 1 54 27 q37 45 86 142 q-79 -26 -125 -56 q-9 -6 -13 5 l-21 61 q22 3 27 6 q9 4 21 20 q25 38 58 120 q29 72 47 134 l67 -60 q4 -3 3 -6 q-1 -2 -8 -11 q-43 -65 -147 -190 l106 7 q29 58 58 125 l54 -67 q5 -2 4 -6 q-1 -3 -6 -6 q-52 -76 -88 -119 q-50 -61 -113 -118 l136 31 q-5 21 -19 63 q-1 3 1 5 q2 2 8 0 q70 -48 79 -88 q3 -14 -6 -34 q-8 -17 -19 -28 q-12 -14 -20 -10 q-8 3 -10 23 q-3 26 -9 50 Z" /><glyph glyph-name="" unicode="&#x6a19;" d="M526 178 l53 -64 q6 -10 -5 -19 q-120 -98 -272 -181 q-7 -2 -9 3 q-2 6 4 8 q79 59 129 119 q37 44 90 132 q2 5 5 5 q2 0 5 -3 ZM738 165 q83 -23 145 -54 q78 -39 77 -69 q5 -45 -24 -74 q-8 -9 -21 -6 q-12 3 -16 13 q-66 132 -164 182 l3 8 ZM584 337 q-67 -2 -103 -12 l-27 28 l311 8 l40 44 l53 -49 q3 -3 4 -5 q0 -5 -6 -6 l-272 -8 ZM742 738 l-4 -96 l63 2 l37 42 l77 -51 q7 -6 0 -14 l-22 -26 l-2 -121 l15 -21 q2 -4 0 -8 q-2 -4 -6 -3 q-44 5 -106 5 l-305 -9 q-9 -23 -38 -48 q-11 -8 -18 -7 q-6 2 -6 11 l2 95 l0 89 q0 11 -4 83 q-1 4 1 4 q1 1 4 -1 l56 -28 l70 2 l0 98 l-55 -1 q-65 -4 -100 -12 l-32 29 l462 8 l51 48 l56 -57 q5 -7 -3 -10 l-193 -3 ZM737 621 l-6 -155 l66 2 l3 155 l-63 -2 ZM707 214 l-1 -199 q-1 -50 -33 -87 q-30 -34 -81 -51 q-6 -2 -9 1 q-3 3 -1 10 q5 49 -23 65 q-5 3 -4 6 q1 4 6 4 q33 -1 47 2 q12 3 14 13 l0 233 l-109 -3 q-68 -2 -104 -11 l-27 28 l470 15 l48 49 l62 -58 q4 -4 3 -7 q-2 -2 -7 -3 l-251 -7 ZM672 464 l-1 156 l-57 -2 l-5 -155 l63 1 ZM671 641 l-1 96 l-52 0 l-3 -98 l56 2 ZM557 461 l-1 156 l-66 -2 l-1 -156 l68 2 ZM304 601 l19 0 l44 41 l52 -49 q4 -3 2 -7 q-2 -3 -7 -4 l-110 -2 l-1 -86 q40 -15 70 -33 q32 -20 37 -35 q4 -13 -7 -30 q-10 -16 -23 -24 q-22 -12 -28 10 q-22 65 -49 95 l-2 -311 l5 -173 q-1 -26 -19 -59 q-17 -31 -39 -52 q-11 -8 -19 -5 q-7 4 -7 14 l6 282 l0 196 q-78 -120 -209 -270 q-3 -5 -7 -2 q-5 4 -2 11 q70 108 120 218 q42 94 96 252 l-13 0 q-58 0 -110 -9 l-28 28 l153 2 l0 99 q0 78 -2 134 q0 4 1 5 q2 1 5 -1 l87 -43 q6 -5 1 -9 l-15 -30 l-1 -153 Z" /><glyph glyph-name="" unicode="&#x6a94;" d="M788 278 l34 42 l78 -45 q6 -3 0 -11 l-21 -31 l-1 -109 l6 -98 q0 -71 -58 -126 q-10 -8 -17 -7 q-7 2 -9 13 q-10 47 -27 77 l-257 -4 l0 -12 q-4 -25 -22 -52 q-15 -23 -30 -34 q-9 -7 -15 -5 q-5 2 -6 10 l4 176 l0 141 l-3 94 q0 5 2 7 q1 1 5 0 l68 -32 l269 6 ZM565 493 l-3 -109 l173 3 l2 109 l-172 -3 ZM731 515 l30 43 l76 -40 q3 -2 3 -4 q0 -2 -2 -4 l-15 -25 l-3 -94 l7 -19 q2 -7 0 -9 q-1 -2 -8 -2 q-81 6 -258 3 q-7 -21 -44 -53 q-10 -8 -16 -7 q-6 1 -5 12 l4 137 l-1 94 l66 -37 l166 5 ZM478 769 q110 -57 104 -87 q-7 -35 -41 -48 q-31 -4 -33 20 q-1 71 -36 109 q-2 2 -1 5 q2 3 7 1 ZM700 610 l149 6 l42 39 l81 -72 q7 -7 4 -14 q-3 -7 -13 -7 q-51 0 -112 -34 q-5 -4 -8 -2 q-2 2 0 9 l12 63 l-382 -16 q-6 -95 -55 -139 q-7 -6 -23 10 q-15 15 -22 32 q-5 10 5 19 q60 49 83 134 q1 5 4 5 q4 1 8 -6 q2 -18 0 -35 l143 5 l2 105 l-1 121 l94 -31 q3 -1 4 -4 q1 -4 -2 -8 l-11 -27 l-8 -148 q84 96 137 183 l64 -53 q3 -3 -2 -10 q-60 -35 -193 -125 ZM689 256 l-2 -107 l82 1 q11 -2 10 -10 q-1 -8 -10 -10 l-82 -1 l-2 -127 l106 2 l1 254 l-103 -2 ZM610 1 l0 126 l-94 -2 l0 -126 l94 2 ZM610 147 l0 108 l-95 -2 l0 -108 l95 2 ZM305 587 l15 0 l46 44 l50 -52 q4 -3 2 -7 q-2 -3 -7 -4 l-106 -2 l-2 -116 q84 -31 105 -63 q10 -22 -23 -59 q-11 -11 -23 -10 q-12 1 -15 12 q-15 57 -44 100 l-3 -267 l3 -185 q-7 -52 -59 -101 q-9 -9 -17 -8 q-7 1 -8 10 l5 286 l1 168 q-72 -122 -196 -269 q-5 -7 -10 -2 q-5 5 -2 11 q72 118 119 228 q42 98 91 261 l0 3 l-18 0 q-58 0 -110 -9 l-28 29 l156 1 l1 112 q0 92 -3 134 q0 4 2 5 q2 1 5 -1 l89 -45 q6 -5 1 -9 l-15 -29 l-2 -166 Z" /><glyph glyph-name="" unicode="&#x6b78;" d="M777 748 l-143 -7 q-42 -3 -74 -11 l-34 29 l251 10 l29 41 l70 -42 q4 -3 0 -10 l-13 -35 l-3 -157 l3 -11 q2 -8 -3 -8 l-75 0 l-175 -7 q-40 -3 -57 -10 l-33 30 l256 9 l1 89 l-109 -4 q-41 -1 -91 -12 l-31 27 l231 8 l0 71 ZM729 311 l75 4 l28 42 l65 -48 q5 -5 1 -12 l-16 -30 l-2 -159 q-1 -50 -19 -80 q-17 -28 -57 -49 q-3 -1 -4 0 q-2 2 -2 6 q-1 48 -27 66 q-3 2 -3 5 q0 4 4 5 q25 1 31 4 q6 3 6 14 l-3 216 l-77 -4 l-1 -159 l1 -81 q3 -88 -48 -162 q-10 -15 -20 -13 q-10 2 -10 20 l2 197 l0 194 l-68 -3 l-2 -201 q0 -46 -43 -102 q-9 -12 -14 -9 q-5 3 -5 17 l4 244 l-2 95 q0 5 2 6 q1 1 4 -1 l55 -29 l69 3 q0 72 -5 129 l71 -30 q15 -5 11 -26 l-1 -59 l0 -10 ZM550 450 q1 -63 -37 -112 q-15 -17 -31 0 q-24 28 -18 52 q48 39 59 81 q3 9 5 28 q-3 5 3 8 q6 3 9 -6 q7 -15 8 -29 l296 10 l35 41 l76 -81 q6 -8 4 -14 q-2 -6 -10 -8 q-41 -7 -104 -42 q-6 -5 -9 -2 q-3 3 -1 11 l16 74 l-301 -11 ZM374 239 l92 7 q8 0 8 -9 q0 -9 -8 -9 l-93 -9 l-4 -128 l100 21 q6 2 9 -3 q2 -4 -2 -8 l-254 -102 q-65 -26 -112 -55 q-13 -6 -21 0 l-45 71 q-8 10 3 15 q54 7 109 18 l-2 113 q-1 97 -7 144 l92 -40 q8 -5 0 -14 l-19 -28 l-3 -163 l88 18 l0 165 q0 83 -7 144 l95 -40 q8 -5 0 -14 l-17 -29 l-2 -65 ZM221 699 l0 -3 l154 5 l29 37 l69 -41 q7 -3 2 -12 l-20 -20 l1 -61 l5 -13 q2 -4 0 -7 q-2 -3 -6 -1 q-74 5 -237 -2 l0 -73 l154 5 l30 36 l70 -37 q5 -3 5 -5 q0 -1 -3 -7 l-18 -26 l2 -65 l4 -12 q2 -4 -1 -6 q-3 -3 -7 -1 q-62 3 -241 -5 q-11 -29 -51 -65 q-13 -8 -17 2 l6 312 l-4 106 q-1 6 3 7 q3 1 8 -2 l58 -32 q58 58 96 112 l57 -55 q3 -5 -4 -9 l-25 -11 q-22 -10 -119 -51 ZM218 405 l163 5 l-1 83 l-162 -5 l0 -83 ZM218 601 l163 5 l0 77 l-163 -4 l0 -78 Z" /><glyph glyph-name="" unicode="&#x778e;" d="M189 722 q1 0 1 -1 l100 5 l30 38 l68 -42 q7 -5 1 -11 l-20 -30 l-6 -474 q5 -128 5 -136 q0 -25 -16 -65 q-17 -43 -41 -67 q-9 -9 -17 -7 q-7 1 -8 11 q-9 82 -26 112 l-94 -5 q-8 -55 -44 -107 q-9 -10 -16 -9 q-7 2 -7 12 l7 640 q0 144 -5 178 q-1 4 2 6 q3 2 7 -1 l79 -47 ZM803 246 l81 -49 q6 -4 0 -10 l-24 -31 l1 -147 l12 -14 q3 -5 2 -8 q-1 -3 -5 -3 q-138 2 -318 -3 l0 -4 q-7 -45 -59 -99 q-19 -10 -23 4 l3 131 l2 111 q1 35 -3 103 q0 5 3 6 q3 1 9 -2 l68 -39 l211 7 l40 47 ZM254 329 q8 0 8 -8 q0 -8 -9 -10 l-88 -7 l-3 -237 l99 6 q18 6 18 27 l6 609 l-97 -5 l-18 -24 l-2 -157 l84 5 q7 0 7 -9 q-1 -8 -9 -10 l-83 -5 l-2 -181 l89 6 ZM618 644 l97 -34 q5 -3 0 -8 l-13 -29 l0 -31 l85 3 l44 46 l59 -49 q4 -3 3 -7 q-1 -3 -5 -4 l-186 -8 l0 -79 l75 3 l40 42 l52 -47 q4 -3 3 -7 q-1 -3 -4 -4 l-166 -6 l0 -30 l2 -57 l155 5 l53 50 l64 -54 q4 -4 3 -7 q-1 -3 -6 -4 l-269 -9 l1 -19 q1 -20 -21 -50 q-20 -28 -41 -41 q-11 -8 -17 -6 q-6 2 -6 12 l0 101 l-216 -7 q-11 0 -14 8 q-3 11 9 12 l221 6 l0 87 l-128 -5 q-12 1 -14 7 q-3 11 13 14 l129 4 l1 77 l-159 -6 q-13 1 -14 8 q-2 9 11 12 l161 6 l-2 105 ZM836 704 l40 33 l86 -66 q9 -7 5 -15 q-4 -8 -16 -9 q-29 -2 -48 -8 q-25 -8 -64 -32 q-4 -2 -7 0 q-3 2 -2 6 l14 73 l-343 -18 q-17 -90 -84 -143 q-13 -7 -17 5 q-7 55 3 78 q28 28 38 48 q10 21 11 55 q0 6 3 8 q3 2 10 -1 q17 -9 37 -30 l118 5 l4 138 l96 -23 q10 -5 2 -18 l-7 -27 l-9 -66 l130 7 ZM770 181 l-219 -7 l1 -173 l217 6 l1 174 Z" /><glyph glyph-name="" unicode="&#x7b14;" d="M257 254 q-49 -6 -103 -18 l-35 32 l299 19 l1 13 l1 110 q-167 -18 -313 -31 q-10 -2 -10 4 q-1 7 7 8 q557 97 647 163 l82 -83 q3 -4 1 -6 q-2 -3 -9 -3 l-42 -3 q-101 -18 -309 -42 l54 -19 q4 -2 4 -5 q0 -3 -4 -7 l-14 -22 l-6 -71 l189 13 l54 61 l77 -62 q5 -3 4 -6 q-1 -3 -6 -5 l-320 -23 l-10 -121 l281 17 l54 59 l77 -62 q5 -3 4 -6 q-1 -3 -6 -5 l-412 -26 l-6 -77 q-3 -41 7 -55 q12 -17 52 -21 q138 -14 246 10 q49 9 80 98 q2 6 8 5 q5 0 6 -9 q-7 -69 16 -88 q27 -23 22 -47 q-5 -24 -39 -37 q-64 -22 -167 -28 q-96 -6 -175 5 q-68 9 -99 48 q-36 45 -33 139 l1 52 l-204 -13 q-49 -5 -103 -17 l-36 32 l344 21 l4 120 l-161 -11 ZM241 824 l102 -67 q2 -1 1 -4 q-1 -3 -6 -6 q-23 -10 -41 -35 q-21 -30 -26 -37 l128 7 l51 58 l72 -62 q3 -4 2 -7 q-1 -3 -5 -4 l-180 -10 q77 -52 81 -105 q-6 -43 -47 -60 q-17 -6 -27 0 q-10 6 -10 21 q-1 84 -29 142 l-52 -2 q-69 -93 -156 -188 q-5 -4 -9 -2 q-3 2 -1 7 q106 186 145 351 q1 4 2 4 q1 1 5 -1 ZM590 824 l97 -59 q5 -3 4 -7 q0 -3 -6 -6 q-21 -11 -38 -37 q-9 -14 -19 -27 l181 6 l53 58 l71 -61 q4 -5 3 -8 q-1 -3 -5 -3 l-226 -10 q68 -36 67 -69 q-8 -40 -44 -53 q-26 -9 -28 18 q-4 65 -26 103 l-60 -3 q-53 -75 -130 -167 q-6 -5 -9 -3 q-4 2 -2 9 q85 180 111 315 q0 4 2 5 q2 1 4 -1 Z" /><glyph glyph-name="" unicode="&#x7b46;" d="M777 431 l59 2 l59 64 l72 -71 q3 -3 2 -6 q-1 -3 -5 -4 l-188 -5 l-2 -86 l15 -22 q4 -5 3 -9 q-2 -4 -7 -5 q-89 4 -236 0 l-26 -1 l0 -105 l173 2 l57 58 l71 -65 q3 -3 2 -6 q-1 -4 -5 -5 l-298 -3 l2 -105 l268 4 l60 57 l69 -64 q4 -4 3 -7 q-1 -2 -6 -3 l-394 -7 l1 -54 q-2 -31 -32 -71 q-29 -39 -48 -47 q-14 -1 -20 17 l3 153 l-227 -4 q-67 -3 -110 -13 l-25 33 l362 5 l2 104 l-128 -1 q-67 -5 -106 -14 l-30 33 l264 2 l1 30 l0 74 l-126 -3 q-70 -5 -104 -14 l-32 33 l262 5 l1 94 l-250 -7 q-71 -4 -107 -14 l-29 33 l386 10 l0 29 l-2 53 l-133 -2 q-73 -4 -105 -13 l-31 32 l269 5 l-3 99 l70 -20 q48 75 75 138 q18 41 33 96 l96 -52 q5 -3 4 -7 q0 -3 -6 -6 q-23 -9 -38 -29 q-15 -17 -23 -24 l139 4 l51 54 l67 -58 q4 -5 3 -9 q-1 -4 -5 -4 l-212 -7 q69 -25 73 -53 q4 -19 -9 -38 q-11 -16 -27 -25 q-13 -6 -22 -1 q-9 5 -10 20 q-4 66 -32 96 l-37 -1 q-32 -32 -107 -98 l28 -8 q5 -1 5 -6 q0 -4 -4 -8 q-13 -13 -17 -39 l0 -12 l162 3 l37 40 l81 -54 q8 -5 0 -15 l-25 -28 l-1 -44 ZM680 509 l-157 -3 l0 -81 l156 4 l1 80 ZM679 408 l-156 -4 l0 -95 l155 3 l1 96 ZM338 687 q61 -42 58 -78 q-8 -32 -40 -47 q-14 -6 -22 -1 q-8 5 -7 17 q-3 74 -19 108 l-55 -2 q-73 -69 -189 -159 q-5 -3 -8 0 q-3 3 -1 8 q140 154 191 301 l95 -63 q3 -2 2 -6 q-1 -3 -6 -6 q-20 -9 -42 -34 q-9 -10 -19 -19 l150 5 l50 50 l62 -54 q3 -4 2 -7 q-1 -3 -5 -4 l-197 -9 Z" /><glyph glyph-name="" unicode="&#x7b7e;" d="M416 329 q-32 -1 -99 -11 l-25 22 q-106 -78 -273 -167 q-5 -2 -8 3 q-3 5 2 9 q143 85 243 186 q100 101 198 259 l52 -23 q66 128 90 229 l99 -57 q5 -3 4 -7 q0 -3 -6 -6 q-18 -9 -39 -30 q-18 -20 -27 -29 l156 7 l50 55 l70 -58 q4 -5 3 -8 q-1 -3 -5 -3 l-200 -10 q79 -45 78 -77 q-1 -19 -16 -35 q-13 -14 -31 -20 q-28 -9 -30 20 q-3 75 -28 111 l-68 -4 q-47 -47 -86 -84 l30 -12 q7 -3 7 -7 q0 -3 -7 -8 l-13 -12 q62 -71 167 -125 q98 -50 280 -110 q4 -1 4 -7 q0 -6 -6 -7 q-62 -5 -123 -77 q-138 86 -213 162 q-58 59 -117 157 l-6 -6 q-111 -121 -225 -205 l269 10 l44 44 l59 -52 q4 -3 3 -6 q-1 -2 -6 -3 l-251 -8 ZM659 292 l99 -57 q8 -6 0 -13 l-24 -28 q-81 -119 -192 -252 l233 5 l59 69 l84 -78 q4 -4 3 -7 q-1 -4 -5 -4 l-664 -18 q-58 -2 -112 -12 l-31 34 l413 10 q99 202 137 351 ZM243 827 l94 -66 q3 -2 2 -6 q-1 -3 -6 -6 q-21 -9 -39 -33 q-6 -7 -19 -20 l131 6 l48 54 l71 -58 q3 -4 2 -7 q-1 -3 -5 -4 l-203 -11 q79 -43 78 -79 q-1 -11 -14 -25 q-14 -14 -28 -17 q-33 -8 -33 14 q-4 78 -26 106 l-42 -2 q-55 -58 -153 -150 q-4 -4 -9 -2 q-4 2 -2 7 q111 169 153 299 ZM406 306 q55 -39 93 -80 q40 -44 46 -76 q3 -16 -16 -36 q-19 -19 -50 -31 q-11 -4 -17 1 q-6 5 -7 18 q-7 104 -55 199 q-1 8 6 5 ZM261 234 q53 -53 72 -77 q35 -44 48 -88 q4 -13 -14 -35 q-17 -21 -42 -34 q-16 -6 -22 -1 q-6 5 -5 21 q-4 117 -44 209 q-2 3 1 5 q3 2 6 0 Z" /><glyph glyph-name="" unicode="&#x7c3d;" d="M463 381 q-33 -2 -69 -10 l-26 26 l172 9 l45 44 l60 -51 q4 -5 2 -7 q-2 -2 -10 -3 l-174 -8 ZM697 689 q73 -35 80 -68 q3 -15 -15 -32 q-15 -15 -33 -19 q-27 -9 -29 18 q-3 67 -28 100 l-74 -3 q-26 -26 -84 -79 l43 -22 q7 -3 7 -7 q0 -4 -7 -9 l-8 -7 q66 -69 157 -114 q95 -47 285 -102 q3 -1 3 -8 q0 -7 -5 -7 q-17 -1 -30 -12 q-7 -6 -25 -31 q-24 -31 -31 -40 q-130 80 -207 142 q-102 82 -155 164 l-11 -11 q-139 -138 -312 -237 l41 -19 l96 5 l29 30 l73 -41 q4 -3 0 -8 l-19 -20 l-1 -87 l5 -9 q2 -2 -3 -3 q-36 1 -181 -5 q-6 -35 -50 -67 q-11 -5 -15 -4 q-4 1 -5 7 l4 85 l0 66 q0 22 -2 54 q-87 -47 -170 -87 q-6 -3 -9 3 q-3 7 3 10 q147 89 252 184 q111 100 201 231 l34 -17 q77 126 104 227 q0 3 2 4 q1 0 3 -1 l86 -57 q4 -3 4 -5 q-1 -3 -6 -6 q-19 -8 -38 -30 q-16 -18 -36 -39 l182 7 l54 59 l74 -62 q4 -5 3 -8 q-1 -3 -5 -3 l-231 -10 ZM674 33 q58 -12 105 -28 q55 -19 71 -35 q7 -9 2 -30 q-6 -24 -27 -35 q-17 -8 -25 -7 q-9 2 -18 17 q-39 68 -121 108 q-77 -63 -208 -144 q-5 -3 -8 0 q-3 3 0 6 q157 130 224 266 l70 -43 q5 -2 5 -6 q0 -3 -6 -9 q-33 -33 -64 -60 ZM603 179 l100 4 l-1 97 l-98 -4 l-1 -97 ZM602 160 q-7 -37 -50 -68 q-10 -4 -14 -4 q-4 1 -5 7 l4 86 l0 65 q0 35 -3 77 q0 2 2 3 q2 0 6 -1 l61 -27 l97 4 l28 30 l70 -38 q2 -2 2 -3 q0 -2 -2 -3 l-15 -19 l2 -92 l5 -10 q2 -2 -3 -3 q-34 1 -185 -4 ZM339 677 q74 -50 80 -79 q-11 -35 -50 -50 q-13 -6 -20 0 q-7 5 -8 18 q-4 66 -26 110 l-53 -3 q-74 -94 -180 -196 q-5 -4 -9 -2 q-3 2 -1 7 q129 188 171 358 q1 4 2 4 q1 1 5 -1 l100 -66 q4 -2 3 -5 q-1 -3 -6 -6 q-25 -12 -41 -35 q-13 -18 -27 -36 l125 6 l48 56 l71 -60 q3 -4 2 -7 q-1 -3 -5 -4 l-181 -9 ZM332 39 q102 -27 134 -54 q8 -7 0 -28 q-8 -22 -25 -32 q-16 -10 -24 -10 q-11 0 -17 15 q-22 58 -77 101 q-89 -78 -228 -161 q-7 -4 -10 -1 q-3 3 0 7 q163 124 231 268 l69 -40 q5 -3 5 -6 q0 -3 -6 -9 q-27 -29 -52 -50 ZM259 169 l103 5 l1 94 l-103 -4 l-1 -95 Z" /><glyph glyph-name="" unicode="&#x817e;" d="M796 784 l52 -48 q3 -2 2 -5 q-1 -3 -4 -4 l-19 -9 l-108 -87 l66 1 l37 41 l57 -50 q3 -2 2 -5 q-1 -3 -4 -3 l-201 -3 q-13 -55 -32 -94 l201 4 l45 47 l63 -55 q1 -2 2 -3 q0 -4 -5 -5 l-316 -8 q-31 -55 -88 -107 q-50 -46 -147 -114 l0 -111 q-1 -105 -22 -156 q-23 -56 -92 -98 q1 49 -21 70 q-3 2 -4 6 q0 5 5 5 q39 1 50 33 q11 32 9 134 l0 562 l-76 -5 l-10 -18 l-4 -154 l65 3 q9 0 9 -10 q0 -9 -9 -10 l-65 -3 l-3 -122 q-1 -20 -2 -40 l70 3 q9 0 8 -9 q-1 -9 -10 -10 l-69 -3 q-8 -171 -57 -269 q-49 -97 -154 -199 q-7 -2 -9 3 q-2 5 4 10 q88 97 122 210 q34 112 34 331 l1 178 q0 111 -5 165 q-1 5 0 7 q1 2 5 0 l75 -45 l73 5 l34 48 l71 -45 q5 -4 0 -9 l-23 -28 l0 -406 q128 99 171 197 q-78 -1 -126 -11 l-31 28 l165 3 q17 44 24 94 l-10 0 q-76 -1 -118 -11 l-30 26 l161 3 q5 42 7 104 q0 70 -1 84 q-1 4 1 6 q3 2 7 1 l90 -35 q5 -2 5 -6 q0 -3 -4 -7 l-15 -24 q-7 -83 -15 -122 l21 0 l95 154 ZM727 489 q35 -62 91 -101 q53 -36 172 -85 q4 -1 4 -6 q0 -4 -5 -5 q-56 0 -104 -62 q-63 55 -104 116 l-23 -28 l-20 -120 l31 1 l27 41 l77 -42 q6 -4 0 -11 l-19 -27 q-11 -119 -25 -164 q-21 -65 -128 -110 q-6 -2 -8 1 q-2 2 0 9 q3 46 -28 63 q-5 4 -4 8 q1 4 6 3 q43 -4 59 1 q12 4 18 17 q19 44 30 192 l-220 -9 q-26 -24 -56 -37 q-8 -2 -12 0 q-5 3 -3 10 l18 105 l8 60 l70 -36 q5 -3 1 -8 l-11 -15 l-11 -59 l110 4 l21 152 l-166 -4 q-7 0 -7 9 q0 9 7 10 l159 4 l28 34 l61 -36 q-31 52 -52 121 l8 4 ZM535 64 q-51 -1 -94 -9 l-29 25 l227 3 l39 43 l54 -47 q4 -4 3 -7 q-1 -3 -7 -4 l-193 -4 ZM475 761 q33 -8 63 -22 q33 -15 34 -26 q3 -13 -8 -29 q-10 -15 -22 -22 q-16 -6 -23 8 q-17 49 -48 84 q-2 2 -1 5 q1 3 5 2 Z" /><glyph glyph-name="" unicode="&#x897f;" d="M213 724 q-60 -1 -113 -10 l-23 33 l709 5 l66 67 l70 -76 q4 -4 3 -7 q-1 -4 -5 -4 l-361 -4 l74 -29 q4 -1 4 -4 q0 -2 -3 -6 l-13 -23 l-17 -115 l114 2 l47 49 l80 -63 q6 -5 2 -12 l-25 -32 l2 -285 l3 -166 q1 -35 -12 -74 q-16 -47 -45 -74 q-10 -8 -15 -8 q-6 0 -12 11 q-15 31 -36 101 l-440 -9 q-18 -54 -57 -93 q-10 -7 -15 -6 q-7 2 -7 13 l0 560 l-4 128 l85 -49 l125 2 q1 21 1 65 l-1 47 l-6 68 l-175 -2 ZM724 24 l0 204 q-38 -20 -122 -7 q-42 7 -65 46 q-21 36 -18 83 l10 177 l-65 -1 q-26 -202 -192 -394 l-2 -2 l-1 -115 l455 9 ZM574 332 q-4 -23 4 -33 q7 -9 28 -8 q39 3 74 12 q30 -24 44 -68 l0 297 l-123 -3 l-27 -197 ZM275 522 l-5 -373 q108 142 122 375 l-117 -2 ZM537 650 l-1 78 l-119 -2 l66 -19 q2 -1 3 -3 q1 -2 -2 -6 l-12 -20 l-1 -66 q-1 -22 -5 -64 l65 1 l6 101 Z" /><glyph glyph-name="" unicode="&#x8996;" d="M735 366 q4 7 8 28 l3 350 l-240 -8 l-1 -102 l202 8 q9 0 9 -10 q0 -10 -9 -11 l-202 -7 l0 -106 l208 8 q9 0 9 -10 q0 -10 -9 -11 l-208 -8 l-1 -127 l231 6 ZM721 346 l-44 -1 l60 -32 q5 -3 0 -10 l-12 -24 l-39 -192 q-9 -51 36 -55 q29 -3 73 1 q54 5 78 17 q31 16 47 107 q0 7 6 6 q6 -1 5 -10 q-5 -62 17 -78 q26 -27 19 -67 q-7 -40 -38 -54 q-85 -37 -198 -20 q-109 16 -98 190 l11 130 l6 91 l-119 -4 l63 -37 l-11 -24 q-35 -164 -109 -250 q-74 -86 -210 -161 q-8 -3 -9 1 q-1 4 6 10 q117 83 170 168 q56 91 79 293 l-9 0 q-11 -26 -41 -58 q-9 -10 -15 -10 q-4 0 -6 9 l2 505 q0 7 3 10 q3 3 9 -1 l50 -38 l240 8 l39 54 l71 -60 q5 -7 -2 -18 l-19 -28 l-2 -295 q0 -40 -13 -69 q-12 -27 -42 -59 q-7 -7 -12 -5 q-5 2 -7 11 q-5 22 -13 32 q-6 8 -22 17 ZM292 680 l17 1 l36 34 l68 -51 q4 -3 4 -7 q0 -3 -5 -6 l-27 -24 q-53 -85 -101 -145 l0 -21 q37 -14 67 -31 q38 -22 45 -38 q3 -8 -9 -27 q-13 -21 -31 -32 q-15 -7 -23 -5 q-8 2 -9 12 q-8 61 -41 105 l-6 -305 l3 -118 q-14 -73 -68 -128 q-10 -8 -16 -8 q-6 0 -7 11 l17 491 q-77 -82 -193 -176 q-5 -2 -7 3 q-2 5 2 9 q106 112 174 212 q62 91 125 223 l-120 -8 q-50 -3 -83 -10 l-32 28 l141 7 l5 148 l91 -26 q4 -1 5 -5 q0 -3 -3 -7 q-17 -23 -19 -106 Z" /><glyph glyph-name="" unicode="&#x89c6;" d="M100 676 l159 7 l5 148 l96 -21 q4 -1 5 -5 q0 -3 -3 -7 q-15 -19 -22 -111 l36 2 l36 44 l73 -61 q4 -3 4 -7 q0 -3 -5 -6 l-30 -27 q-56 -82 -120 -151 l0 -31 q37 -11 72 -30 q38 -21 47 -38 q5 -10 -7 -32 q-13 -25 -35 -38 q-13 -7 -22 -3 q-9 5 -10 17 q-10 54 -45 99 l-2 -253 l2 -162 q-7 -47 -62 -104 q-10 -7 -17 -4 q-8 3 -9 14 l8 238 l3 249 q-74 -69 -238 -196 q-5 -2 -7 3 q-2 5 2 9 q115 104 204 217 q78 100 152 229 l-151 -7 q-53 -4 -85 -10 l-34 28 ZM649 660 l85 -36 q8 -5 1 -16 l-14 -28 q-5 -128 -12 -188 l71 -44 q4 -4 1 -10 l-14 -26 l-37 -250 q-10 -51 32 -59 q33 -8 112 9 q18 5 29 20 q12 17 23 53 q3 9 10 7 q8 -2 6 -11 q-10 -48 15 -80 q22 -23 13 -54 q-9 -31 -43 -40 q-75 -20 -167 -1 q-45 9 -66 49 q-20 39 -15 101 l22 264 l1 21 q-22 -149 -110 -251 q-88 -102 -287 -227 q-6 -3 -9 3 q-3 6 3 11 q97 72 164 135 q67 63 108 142 q80 147 78 506 ZM901 703 l1 -355 q-11 -78 -66 -122 q-11 -8 -18 -7 q-8 1 -10 13 l4 472 q0 24 -8 32 q-9 9 -39 8 l-179 -10 l-4 -404 q-8 -76 -53 -115 q-9 -7 -15 -5 q-7 2 -8 13 l5 208 l1 273 l-3 94 l78 -43 l202 10 l38 47 l96 -62 q6 -5 2 -12 l-24 -35 Z" /><glyph glyph-name="" unicode="&#x8a18;" d="M115 360 q-9 0 -10 9 q-1 9 7 11 l208 8 l44 51 l57 -57 q4 -4 3 -7 q-1 -3 -6 -4 l-303 -11 ZM116 503 q-10 0 -10 10 q0 10 8 11 l214 6 l44 49 l55 -58 q4 -2 3 -5 q-1 -3 -6 -4 l-308 -9 ZM731 720 l-129 -3 q-51 -1 -104 -9 l-31 29 l259 5 l42 51 l87 -53 q8 -5 0 -15 l-27 -38 l-1 -249 l10 -17 q2 -4 1 -7 q-2 -3 -6 -3 q-79 8 -236 7 l-32 0 l-4 -12 l-20 -342 q-1 -31 8 -42 q9 -11 38 -13 q136 -13 229 17 q31 10 52 35 q21 25 36 71 q2 8 8 6 q7 -2 5 -8 q-9 -50 -5 -72 q4 -20 24 -33 q29 -21 22 -54 q-7 -32 -51 -45 q-79 -18 -139 -21 q-51 -3 -163 4 q-67 4 -103 47 q-35 43 -34 118 l6 275 l0 29 q0 71 -4 113 q-1 6 1 6 q1 0 6 -2 l86 -53 l168 2 l1 276 ZM296 666 l56 0 l52 61 l66 -65 q4 -4 4 -8 q0 -5 -6 -6 l-286 -3 q-75 -3 -110 -12 l-31 31 l169 1 l0 70 l-3 95 l99 -33 q8 -3 0 -15 l-7 -19 l-3 -97 ZM186 -30 l0 -2 q-9 -53 -58 -93 q-10 -6 -16 -4 q-5 2 -7 11 l4 137 l0 154 q-2 85 -4 97 q1 9 10 6 l72 -48 l137 10 l34 48 l61 -44 q6 -4 2 -11 l-16 -31 l-2 -205 l7 -11 q2 -8 -3 -11 q-43 2 -221 -3 ZM186 -7 l143 5 l2 216 l-146 -6 l1 -215 Z" /><glyph glyph-name="" unicode="&#x8ac7;" d="M121 364 q-8 0 -8 9 q-1 10 6 11 l186 8 l40 52 l50 -58 q4 -4 3 -7 q-1 -3 -4 -4 l-273 -11 ZM122 508 q-8 0 -8 10 q0 10 7 11 l191 6 l40 49 l49 -55 q4 -2 3 -6 q-1 -5 -6 -6 l-276 -9 ZM703 568 q67 -20 123 -48 q61 -31 61 -49 q6 -18 -4 -43 q-10 -25 -27 -34 q-26 -14 -38 15 q-39 93 -120 151 q-5 4 -3 7 q2 3 8 1 ZM487 323 q0 6 6 7 q6 1 7 -6 q36 -121 14 -168 q-7 -15 -32 -27 q-25 -11 -43 -9 q-17 2 -22 15 q-6 15 9 30 q31 32 44 65 q13 34 17 93 ZM504 732 q1 5 6 7 q6 1 8 -5 q37 -118 10 -163 q-23 -33 -76 -33 q-15 1 -19 13 q-5 14 10 29 q65 66 61 152 ZM837 768 l62 -64 q3 -3 2 -7 q-1 -4 -7 -5 l-26 -9 l-162 -68 q-5 -2 -7 0 q-2 2 1 6 q106 95 137 147 ZM605 833 l99 -32 q4 -1 5 -4 q0 -2 -3 -6 l-18 -23 q6 -176 -42 -254 q-51 -79 -224 -147 q-9 -4 -12 3 q-3 7 5 11 q126 61 165 127 q38 65 29 208 l-4 117 ZM720 201 q35 -72 94 -126 q65 -59 166 -103 q6 -1 5 -6 q-1 -6 -7 -8 q-29 -5 -54 -19 q-29 -17 -64 -54 q-99 82 -139 180 q-41 98 -55 285 l-2 -3 l-4 -90 q-6 -128 -78 -210 q-86 -98 -296 -175 q-8 -3 -11 4 q-3 8 7 12 q171 73 240 165 q61 81 65 210 l1 31 l-5 120 l97 -33 q4 -1 6 -3 q2 -3 -4 -9 l-8 -9 q13 -85 40 -146 q81 72 130 140 l65 -59 q4 -5 3 -9 q-1 -4 -7 -6 q-44 -21 -185 -79 ZM292 672 l44 0 l41 50 l62 -54 q4 -4 4 -8 q0 -5 -6 -6 l-252 -3 q-69 -3 -103 -12 l-29 31 l158 1 l0 70 l-3 96 l93 -33 q7 -3 0 -15 l-7 -19 l-2 -98 ZM186 2 l0 -32 q-9 -52 -53 -94 q-9 -6 -14 -4 q-4 2 -6 11 l4 138 l0 155 q-3 85 -4 98 q2 9 8 6 l66 -49 l122 10 l31 49 l58 -45 q5 -5 1 -11 l-14 -31 l-1 -176 l6 -11 q2 -8 -3 -11 q-40 2 -201 -3 ZM186 25 l127 5 l2 187 l-130 -6 l1 -186 Z" /><glyph glyph-name="" unicode="&#x8b80;" d="M113 516 q-8 0 -9 10 q-1 9 5 10 l172 6 l38 49 l47 -55 q3 -2 2 -6 q-1 -5 -6 -6 l-249 -8 ZM112 371 q-8 1 -9 8 q-2 9 4 12 l170 8 l38 52 l46 -58 q4 -4 3 -7 q-1 -3 -5 -4 l-247 -11 ZM681 45 q171 -24 225 -73 q7 -6 9 -37 q2 -32 -6 -52 q-7 -19 -17 -19 q-11 0 -27 18 q-79 97 -186 152 q-2 2 -2 7 q1 5 4 4 ZM568 67 l39 -63 q8 -16 -6 -20 q-189 -95 -336 -128 q-6 0 -6 4 q0 5 5 7 q88 33 164 83 q87 56 131 117 q3 4 5 4 q2 0 4 -4 ZM825 573 l31 44 l72 -49 q5 -7 0 -15 l-20 -29 l-1 -76 l13 -20 q2 -4 0 -8 q-2 -4 -7 -3 q-46 4 -139 2 l-325 -8 q-2 -12 -12 -26 q-5 -7 -23 -28 q-11 -11 -18 -9 q-7 2 -7 12 l2 81 l0 67 l-4 83 q-1 5 2 6 q2 1 4 -1 l57 -32 l375 9 ZM742 548 l-4 -108 l91 3 l3 107 l-90 -2 ZM677 439 l-1 107 l-82 -2 l-3 -108 l86 3 ZM672 729 l137 3 l45 58 l56 -66 q4 -7 -2 -10 l-237 -5 l-1 -72 l81 2 l41 54 l53 -59 q4 -4 4 -8 q0 -3 -4 -4 l-317 -9 q-42 -2 -77 -11 l-25 29 l168 4 l0 72 l-98 -2 q-53 -2 -91 -12 l-25 31 l213 4 l-5 112 l98 -30 q9 -5 1 -14 q-9 -11 -15 -41 l0 -26 ZM532 434 l-2 109 l-81 -2 l-1 -109 l84 2 ZM508 339 l-1 -64 l221 5 q8 0 9 -7 q2 -12 -10 -14 l-220 -7 l0 -62 l223 6 q11 -1 8 -13 q-1 -7 -10 -8 l-221 -8 l-1 -66 l256 9 l1 233 l-255 -4 ZM507 359 l249 7 l31 49 l72 -58 q6 -2 2 -9 l-19 -31 l2 -210 l5 -13 q3 -8 1 -13 q-2 -5 -7 -4 q-71 8 -337 1 q-12 -33 -46 -60 q-8 -4 -11 -2 q-3 2 -3 12 l1 273 q0 66 -1 85 q0 6 1 7 q1 2 6 0 l54 -34 ZM272 672 l47 0 l34 43 l50 -47 q4 -3 3 -8 q0 -5 -6 -6 l-210 -3 q-71 -3 -107 -12 l-30 31 l142 1 l0 62 l-2 97 l87 -33 q8 -3 0 -15 l-6 -20 l-2 -90 ZM179 6 l0 -31 q-8 -49 -57 -95 q-7 -6 -13 -4 q-5 2 -7 11 l4 139 l0 155 q-3 87 -4 99 q1 9 10 6 l73 -49 l93 7 l37 49 l58 -47 q5 -5 1 -11 l-17 -27 l-1 -176 l5 -11 q4 -8 -3 -11 q-37 2 -179 -4 ZM179 31 l102 5 l3 186 l-106 -6 l1 -185 Z" /><glyph glyph-name="" unicode="&#x8bb0;" d="M565 719 q-52 -1 -105 -9 l-31 29 l302 6 l38 54 l94 -55 q8 -5 0 -15 l-26 -39 l-7 -245 l10 -17 q2 -4 1 -7 q-2 -3 -6 -3 q-99 11 -239 8 l-36 -1 l-4 -12 l-18 -338 q-2 -30 8 -42 q10 -13 39 -14 q163 -7 246 25 q37 14 54 34 q15 17 35 67 q2 8 9 7 q6 -1 4 -10 q-11 -49 -6 -72 q4 -19 25 -35 q34 -27 26 -59 q-8 -32 -56 -44 q-75 -17 -150 -19 q-58 -2 -173 6 q-66 5 -102 47 q-37 44 -36 119 l5 275 q-3 103 -6 140 q-1 6 1 8 q2 2 7 0 l100 -58 l162 2 l6 269 l-1 1 l-170 -3 ZM433 213 q3 3 6 0 q3 -3 0 -7 l-159 -204 q-44 -51 -74 -94 q-4 -6 -6 -7 q-2 -1 -7 2 l-70 70 q-4 3 -5 6 q-1 4 3 7 q41 20 92 57 l-2 465 l-60 -2 q-64 -3 -84 -8 l-34 30 l176 4 l42 56 l83 -49 q6 -4 0 -10 l-23 -36 l-23 -392 l145 112 ZM163 829 q122 -44 132 -79 q5 -20 -11 -46 q-15 -24 -35 -36 q-25 -11 -32 9 q-8 55 -23 88 q-12 27 -36 53 q-5 4 -3 8 q2 5 8 3 Z" /><glyph glyph-name="" unicode="&#x8bfb;" d="M616 509 l107 -37 q10 -4 3 -17 l-20 -30 l-12 -130 q-3 -32 -9 -61 l160 6 l54 62 l77 -70 q4 -3 3 -6 q-1 -3 -5 -4 l-295 -10 q-29 -128 -147 -205 q-117 -77 -364 -139 q-10 -1 -11 5 q-1 6 7 10 q211 62 310 138 q95 73 123 188 l-118 -4 q-53 -2 -106 -14 l-27 31 l256 9 q6 36 8 60 l6 76 q4 79 0 142 ZM413 173 q3 2 6 0 q3 -3 0 -7 l-137 -141 q-56 -60 -76 -83 q-2 -5 -6 -5 q-3 0 -6 3 l-59 67 q-8 8 -1 13 q26 10 79 39 l-4 446 l-63 -4 q-61 -3 -81 -8 l-34 30 l170 6 l40 51 l80 -50 q6 -4 0 -10 l-22 -29 l-25 -397 l139 79 ZM533 664 q-59 -3 -103 -12 l-30 32 l190 5 l1 26 q-4 114 -5 119 l107 -25 q6 -1 7 -6 q0 -5 -6 -12 q-16 -22 -16 -60 l-1 -40 l100 3 l46 50 l64 -58 q4 -4 2 -8 q-1 -3 -7 -4 l-205 -6 l-2 -119 l156 6 l41 44 l94 -83 q7 -7 5 -12 q-2 -5 -11 -6 q-34 -2 -70 -19 q-25 -12 -78 -46 q-5 -3 -8 -1 q-3 2 0 9 l28 92 l-323 -11 q-68 -2 -118 -13 l-30 30 l227 7 l2 119 l-57 -1 ZM675 140 q172 -50 219 -108 q9 -11 2 -45 q-6 -33 -20 -54 q-14 -16 -23 -14 q-8 1 -20 20 q-61 124 -161 192 q-2 1 -1 5 q0 4 4 4 ZM148 812 q122 -44 132 -80 q6 -21 -9 -47 q-14 -24 -34 -37 q-29 -11 -38 11 q-11 60 -23 90 q-12 29 -36 55 q-1 4 1 7 q2 3 7 1 ZM395 389 q119 -29 128 -59 q6 -39 -23 -64 q-22 -20 -36 6 q-31 72 -72 107 q-4 2 -3 6 q1 5 6 4 ZM454 496 q104 -23 109 -47 q4 -33 -19 -57 q-25 -17 -34 8 q-13 38 -26 57 q-11 15 -32 30 q-3 2 -3 6 q0 4 5 3 Z" /><glyph glyph-name="" unicode="&#x8c08;" d="M828 348 l67 -58 q4 -5 3 -9 q-1 -4 -7 -6 q-82 -36 -182 -76 q76 -144 271 -227 q6 -1 5 -6 q-1 -6 -7 -8 q-31 -5 -56 -19 q-29 -17 -66 -54 q-100 81 -144 177 q-44 96 -60 276 l-7 -106 q-8 -121 -80 -195 q-86 -89 -305 -164 q-8 -3 -11 4 q-3 8 7 12 q178 74 246 156 q63 75 66 200 l1 50 l-5 119 l105 -33 q4 -1 6 -3 q2 -3 -4 -9 l-11 -13 q13 -80 41 -141 q77 67 127 133 ZM390 210 q5 4 8 1 q3 -3 -1 -7 l-122 -159 q-31 -38 -68 -87 q-3 -6 -5 -7 q-2 -1 -7 2 l-62 64 q-4 2 -5 5 q-1 3 3 7 q22 10 74 46 l-3 434 l-63 -2 q-59 -3 -78 -8 l-33 29 l166 3 l40 50 l77 -43 q3 -2 3 -5 q0 -2 -3 -4 l-21 -32 l-21 -375 l121 88 ZM585 832 l112 -32 q4 -1 5 -4 q0 -2 -3 -6 l-19 -23 l-9 -128 q-7 -100 -64 -161 q-78 -84 -285 -152 q-8 -3 -11 4 q-3 7 7 10 q161 71 215 137 q58 71 57 181 l0 57 l-5 117 ZM694 567 q62 -18 121 -48 q61 -31 61 -49 q6 -18 -4 -43 q-10 -25 -28 -34 q-26 -14 -37 15 q-21 51 -55 92 q-29 35 -62 58 q-4 3 -2 6 q2 4 6 3 ZM462 308 q0 6 6 7 q6 1 7 -5 q39 -125 15 -174 q-7 -15 -36 -28 q-28 -12 -46 -10 q-17 2 -21 16 q-4 16 11 31 q32 34 46 68 q14 35 18 95 ZM158 812 q122 -44 132 -80 q6 -21 -9 -47 q-14 -24 -34 -37 q-29 -11 -38 11 q-11 60 -23 90 q-12 29 -36 55 q-1 4 1 7 q2 3 7 1 ZM481 732 q1 5 6 7 q6 1 8 -5 q38 -118 11 -163 q-24 -33 -78 -33 q-16 1 -20 13 q-5 14 11 29 q33 33 48 68 q16 38 14 84 ZM825 766 l64 -64 q3 -3 2 -7 q-1 -4 -7 -5 l-27 -9 l-161 -65 q-4 -3 -6 0 q-2 2 0 6 q105 93 135 144 Z" /><glyph glyph-name="" unicode="&#x8ca8;" d="M394 55 l59 -55 q9 -12 -4 -18 q-152 -68 -385 -115 q-8 -2 -9 2 q-1 3 4 6 q207 73 322 180 q10 6 13 0 ZM732 468 l63 -39 q7 -7 -2 -18 l-24 -30 l1 -224 q1 -41 -17 -70 q-16 -26 -55 -55 q95 -25 144 -56 q16 -14 8 -42 q-8 -27 -31 -46 q-34 -28 -67 8 q-50 61 -95 97 q-38 31 -90 57 q-8 2 -6 7 q2 5 10 4 q87 -19 91 -20 q-13 42 -27 58 l-306 -7 q-10 -31 -47 -65 q-12 -11 -20 -10 q-6 1 -8 11 l4 428 l79 -30 l326 7 l35 36 q-19 1 -64 5 q-114 14 -116 125 l0 6 q-73 -18 -137 -30 q-6 -1 -6 3 q0 4 5 7 q79 22 138 46 l-1 194 q0 4 2 5 q2 1 6 -1 l84 -39 q7 -6 -1 -14 q-12 -13 -17 -45 l-3 -70 q126 60 212 132 l49 -55 q4 -7 -3 -10 l-18 -5 q-129 -62 -242 -98 l-2 -34 q-1 -23 5 -31 q7 -9 28 -11 q100 -8 204 15 q41 10 63 71 q3 5 8 4 q6 -1 5 -7 q-13 -59 21 -79 q27 -14 23 -36 q-4 -22 -39 -33 q-83 -17 -170 -16 ZM661 119 q2 4 4 13 l2 279 l-332 -5 l-1 -81 l278 8 q6 0 9 -3 q3 -3 3 -7 q-1 -10 -13 -11 l-277 -8 l0 -77 l286 9 q6 0 9 -3 q3 -3 3 -7 q-1 -10 -13 -11 l-285 -9 l-1 -94 l328 7 ZM338 707 l2 -165 q-6 -37 -50 -79 q-8 -8 -15 -6 q-6 2 -7 12 l5 126 l1 47 q-81 -75 -244 -185 q-6 -4 -9 -1 q-3 3 1 9 q189 138 308 371 l73 -43 q9 -6 2 -13 l-9 -7 q-30 -38 -58 -66 Z" /><glyph glyph-name="" unicode="&#x8d27;" d="M381 556 q-6 -1 -6 4 q0 4 5 7 q76 23 137 49 l-1 207 q0 5 2 6 q2 1 6 -1 l84 -42 q7 -5 -1 -15 q-12 -13 -17 -48 l-4 -75 q126 63 213 141 l49 -58 q4 -8 -3 -11 l-18 -6 q-128 -66 -243 -105 l-1 -36 q-1 -25 5 -33 q6 -9 28 -11 q100 -9 204 16 q41 10 63 75 q3 6 8 5 q6 -1 5 -8 q-13 -63 21 -84 q26 -15 23 -38 q-4 -24 -39 -36 q-83 -19 -173 -17 l65 -34 q6 -3 0 -11 l-21 -29 l0 -78 l4 -98 q-4 -58 -69 -115 q-11 -9 -20 -8 q-9 1 -11 13 l0 309 l-355 -9 l1 -251 q-11 -54 -61 -93 q-8 -6 -15 -3 q-6 3 -7 11 l4 140 l-1 155 l-3 90 q0 5 2 7 q2 1 6 0 l77 -36 l348 8 l32 33 q-33 1 -71 6 q-114 14 -116 133 l0 6 q-57 -16 -136 -32 ZM30 430 q-6 -4 -9 0 q-3 3 1 9 q192 155 315 408 l73 -46 q9 -6 2 -14 l-13 -14 q-19 -26 -61 -74 l2 -178 q-6 -40 -50 -84 q-9 -9 -15 -7 q-6 2 -7 13 l5 135 l0 52 q-90 -90 -243 -200 ZM561 302 q5 -3 2 -8 l-13 -20 q-8 -177 -109 -263 q-101 -85 -373 -146 q-6 -1 -7 5 q-1 6 4 8 q226 57 313 150 q88 93 90 269 l-2 50 l95 -45 ZM539 86 q267 -48 291 -89 q24 -41 -5 -96 q-23 -35 -58 4 q-97 111 -231 171 q-4 1 -3 6 q1 5 6 4 Z" /><glyph glyph-name="" unicode="&#x90ca;" d="M797 737 l44 46 l78 -57 q8 -3 7 -8 q-1 -5 -9 -10 l-29 -25 l-146 -211 q90 -78 128 -132 q48 -69 47 -138 q-1 -45 -40 -83 q-35 -34 -88 -51 q-4 -2 -8 1 q-4 3 -3 7 q5 33 -3 50 q-7 15 -28 23 q-2 1 -3 4 q0 5 6 6 q41 -3 55 2 q13 4 14 20 q14 149 -100 288 l78 246 l-129 -2 l-3 -501 l3 -181 q-3 -41 -22 -83 q-15 -34 -38 -61 q-12 -10 -21 -9 q-8 2 -8 11 l8 307 l6 406 l-4 210 l78 -48 q3 -3 2 -9 l0 -20 l128 2 ZM177 367 q72 -44 128 -84 q45 106 76 229 l82 -46 q11 -5 -2 -23 q-47 -115 -100 -202 q120 -95 134 -141 q-7 -58 -48 -88 q-18 -10 -27 -5 q-10 5 -18 31 q-26 65 -81 143 q-103 -147 -284 -282 q-5 -4 -9 0 q-5 4 0 8 q82 74 139 145 q66 82 114 181 q-28 36 -111 127 q-4 6 -2 8 q2 2 9 -1 ZM210 653 q-66 -3 -106 -12 l-30 30 l207 5 l-4 146 q0 5 1 6 q2 2 6 1 l98 -30 q9 -3 2 -14 q-11 -11 -11 -44 l-2 -63 l85 2 l49 55 l71 -61 q4 -3 3 -7 q-1 -3 -7 -4 l-362 -10 ZM213 637 l72 -50 q5 -8 -1 -14 q-115 -159 -232 -282 q-5 -4 -8 -2 q-4 2 -2 10 q57 74 97 160 q32 69 63 170 q0 6 3 8 q3 2 8 0 ZM371 610 q137 -44 184 -88 q11 -10 5 -37 q-6 -26 -23 -50 q-9 -13 -19 -12 q-10 1 -18 16 q-34 63 -64 100 q-29 36 -68 62 q-4 1 -2 6 q1 4 5 3 Z" /><glyph glyph-name="" unicode="&#x93c8;" d="M409 769 q87 -42 92 -95 q0 -51 -26 -68 q-10 -9 -19 -2 q-8 6 -8 17 q-4 52 -15 82 q-9 25 -31 55 q-2 5 1 9 q3 4 6 2 ZM974 12 q5 0 6 -5 q1 -5 -3 -9 q-31 -16 -46 -38 q-14 -21 -28 -71 q-149 -5 -261 14 q-101 22 -158 125 q-7 18 -18 18 q-12 0 -22 -17 q-47 -57 -71 -150 q-5 -11 -15 -4 l-43 76 q-2 3 -2 6 q0 4 5 5 l107 95 l8 387 l-80 -4 q-10 0 -12 9 q-1 11 11 14 l77 4 l30 42 l63 -39 q10 -7 -1 -18 l-24 -32 l-7 -330 q2 -35 27 -55 q27 -21 84 -31 q111 -19 373 8 ZM90 242 q-1 9 3 7 q77 -49 94 -110 q2 -13 -6 -33 q-10 -23 -25 -30 q-14 -6 -24 1 q-10 7 -10 23 q-1 58 -7 85 q-6 25 -25 57 ZM762 183 l1 -73 q0 -18 -24 -52 q-23 -32 -35 -36 q-4 -1 -8 3 q-4 4 -5 10 l4 147 l-54 -1 q-41 2 -98 -7 l-34 30 l186 2 l0 116 q-50 0 -75 -1 q-9 -14 -45 -42 q-6 -6 -10 -4 q-4 2 -5 9 l4 113 l-1 149 l-3 74 l61 -30 l74 2 l0 98 l-49 -1 q-63 -2 -89 -8 l-34 31 l171 3 l-2 100 l82 -30 q7 -4 1 -12 q-12 -9 -13 -28 l0 -29 l78 1 l39 56 l65 -64 q2 -5 1 -10 q-2 -6 -8 -6 l-175 -2 l0 -97 l62 2 l25 37 l64 -44 q3 -3 1 -9 l-16 -24 l0 -204 l9 -13 q3 -11 -5 -16 q-48 2 -140 0 l0 -116 l97 1 l44 59 l59 -64 q7 -13 -5 -17 l-195 -3 ZM762 347 l72 2 l0 200 q-1 12 -6 17 q-6 5 -19 6 l-47 -1 l0 -95 l44 1 q11 -1 10 -12 q-1 -12 -12 -12 l-42 -1 l0 -105 ZM695 346 l0 104 l-74 -3 l0 -103 l74 2 ZM695 474 l0 95 l-73 -2 l0 -96 l73 3 ZM278 708 q84 -32 111 -67 q9 -12 2 -35 q-7 -22 -21 -31 q-13 -8 -18 -3 q-3 3 -7 16 q-18 52 -75 104 q-51 -99 -104 -183 l137 5 l27 42 l51 -47 q4 -6 -1 -8 l-107 -6 l-2 -146 l45 3 l32 48 l52 -54 q4 -6 -1 -8 l-129 -9 l-3 -204 q29 70 67 180 l52 -42 q4 -6 -5 -15 l-114 -162 l-1 -17 l124 44 q6 2 7 -2 q1 -4 -3 -7 l-244 -157 q-19 -15 -36 -32 q-7 -8 -19 2 l-28 75 q-4 10 3 11 q36 9 73 22 l64 23 l1 277 l-26 -2 q-35 -3 -80 -13 l-23 26 l129 9 l0 147 l-54 -3 q-68 -102 -128 -173 q-3 -2 -6 2 q-3 5 0 8 q133 198 207 502 l84 -55 q4 -2 4 -5 q0 -3 -6 -7 l-11 -14 q-6 -13 -20 -39 Z" /><glyph glyph-name="" unicode="&#x94fe;" d="M965 28 q5 0 6 -5 q1 -5 -3 -9 q-35 -17 -51 -38 q-18 -22 -33 -73 q-142 -6 -231 13 q-45 8 -78 36 q-30 26 -60 77 q-8 18 -19 19 q-10 1 -21 -14 q-45 -54 -70 -147 q-5 -11 -15 -4 l-44 76 q-2 3 -2 6 q0 4 5 5 l103 95 l7 368 l-78 -4 q-12 0 -13 9 q-2 11 9 14 l81 4 l30 42 l72 -47 q10 -7 -1 -18 l-24 -32 l-6 -304 q-2 -59 73 -77 q86 -21 363 8 ZM573 624 q-7 0 -9 8 q-2 9 5 11 l98 2 q33 107 46 189 l90 -45 q7 -4 2 -16 l-17 -24 q-16 -38 -49 -103 l100 2 l41 43 l51 -45 q4 -3 3 -7 q-1 -4 -6 -5 l-198 -6 q-48 -92 -98 -182 l94 3 l0 12 l-3 113 l77 -29 q9 -3 3 -18 l-5 -16 l-1 -59 l54 2 l43 47 l55 -49 q4 -4 2 -8 q-2 -3 -8 -4 l-146 -5 l0 -125 l61 2 l42 44 l52 -49 q4 -3 2 -7 q-2 -3 -7 -4 l-150 -5 l0 -13 l2 -114 q0 -26 -13 -58 q-15 -36 -39 -61 q-11 -10 -18 -9 q-8 2 -9 13 l6 223 l0 17 l-147 -5 q-8 1 -9 9 q-2 8 5 11 l151 4 l0 124 l-142 -4 q-10 -1 -12 10 q-1 10 9 13 q8 2 18 14 q8 9 9 13 q27 63 54 148 l-89 -2 ZM119 457 q-11 1 -10 8 q0 8 8 10 l174 10 l37 40 l48 -44 q3 -4 2 -7 q-2 -2 -7 -3 l-103 -6 l-2 -161 l38 2 l44 44 l54 -50 q3 -4 2 -7 q-2 -2 -7 -3 l-131 -6 l-1 -223 l150 110 q6 5 9 1 q3 -4 -3 -12 l-229 -249 q-8 -8 -14 1 l-39 71 q-5 7 2 11 l54 36 l-2 251 l-17 -1 q-57 -3 -86 -9 l-25 25 l128 5 l-1 160 l-73 -4 ZM183 839 l90 -36 q5 -2 5 -5 q0 -4 -4 -8 l-12 -17 q-19 -44 -67 -128 l99 5 l41 46 l56 -53 q2 -2 2 -5 q0 -2 -4 -3 l-205 -8 q-75 -126 -156 -230 q-4 -4 -8 0 q-4 4 -2 8 q57 91 108 233 q42 118 57 201 ZM408 796 q57 -19 88 -36 q40 -23 44 -50 q3 -22 -10 -43 q-12 -20 -28 -25 q-17 -8 -29 -2 q-10 5 -11 15 q-5 52 -18 79 q-12 27 -42 53 q-4 5 -1 8 q2 3 7 1 Z" /><glyph glyph-name="" unicode="&#x95dc;" d="M780 549 l-160 -3 q-4 -4 -9 -8 l36 -26 q6 -5 -3 -14 q-37 -37 -98 -88 l84 7 q30 41 41 67 l45 -45 q5 -5 0 -9 q-34 -31 -73 -60 q-40 -29 -82 -62 l107 17 q-9 24 -14 35 q-2 3 0 5 q2 3 6 1 q21 -14 45 -35 q25 -22 24 -31 q-6 -33 -27 -44 q-13 -8 -18 7 q-3 21 -13 54 q-56 -20 -117 -51 q-10 -6 -18 -9 q-6 -2 -8 -2 l61 -18 q3 -2 0 -5 l-8 -14 l-1 -69 l80 4 l0 20 l-3 75 l64 -20 q3 -2 0 -5 l-8 -14 l-4 -70 q-6 -32 -32 -48 q-7 -4 -12 -1 q-5 3 -4 10 l-1 32 l-81 -2 l-2 -121 q0 -14 -14 -45 q-14 -32 -24 -37 q-7 -4 -12 -1 q-5 3 -4 10 l2 83 l0 163 l-3 75 l-1 2 l-17 48 q18 0 25 2 q6 2 12 8 q46 46 73 80 q-59 -22 -89 -37 q-10 -3 -13 2 l-18 43 q17 2 20 3 q5 2 13 11 q38 42 63 105 q-2 -2 -22 -15 q-5 -3 -14 3 q-9 6 -9 10 l0 94 l-1 73 q-1 41 -7 77 q0 4 1 5 q2 1 4 -1 l75 -18 l163 2 l0 4 l36 38 l79 -55 q3 -4 5 -6 q1 -2 -3 -7 l-36 -45 l5 -384 l9 -215 q1 -59 -34 -107 q-33 -45 -101 -86 q-7 -5 -11 -1 q-4 4 -3 12 q0 70 -48 87 q-5 4 -4 9 q1 5 7 4 q100 -4 100 45 l-1 502 ZM780 571 l0 164 l-164 -3 l-1 -42 l1 -33 l117 5 q10 0 10 -9 q1 -10 -10 -12 l-117 -4 l1 -70 l163 4 ZM438 312 q-41 -13 -142 -62 q-12 -5 -15 2 l-17 48 q32 0 45 13 q46 46 73 80 q-63 -24 -95 -39 q-10 -3 -13 2 l-18 43 q27 0 39 16 q39 43 63 106 q-9 9 -12 13 l-130 -2 l0 -506 q0 -32 -13 -64 q-15 -37 -47 -69 q-17 -6 -23 7 l6 293 l0 465 l-4 114 l81 -29 l0 -7 l142 5 l32 37 l67 -45 q6 -4 1 -11 l-23 -29 l0 -76 l2 -43 q0 -23 -37 -55 l15 -11 q6 -5 -3 -14 q-37 -37 -98 -88 l84 7 q30 41 41 67 l45 -45 q5 -5 0 -9 q-34 -31 -73 -60 q-40 -29 -82 -62 l106 17 q-10 30 -13 36 q-1 2 0 4 q2 2 5 1 q21 -15 39 -32 q22 -21 21 -29 q-5 -32 -23 -41 q-5 -4 -10 -2 q-5 2 -6 8 q-2 14 -10 46 ZM407 146 q1 6 1 19 l0 19 l-4 70 l72 -19 q2 -1 3 -3 q1 -3 -3 -7 l-10 -16 l-2 -54 q-3 -69 -45 -115 q-47 -52 -159 -97 q-4 -2 -5 2 q-2 6 4 10 q77 41 108 77 q31 36 38 92 l-72 -2 q-14 -18 -39 -39 q-13 -3 -15 10 l0 63 l-1 24 q-1 29 -6 50 q0 4 1 5 q1 1 3 -1 l58 -16 l-1 -40 l0 -33 l74 1 ZM366 558 l-1 164 l-149 -4 l0 -73 l110 5 q10 0 10 -9 q1 -10 -10 -12 l-110 -3 l0 -71 l150 3 Z" /><glyph glyph-name="" unicode="&#x96dc;" d="M730 778 q100 -39 99 -76 q-6 -32 -39 -46 q-28 -10 -31 16 q-7 61 -36 101 q-2 2 0 4 q2 3 7 1 ZM795 604 l-2 -154 l32 1 l43 44 l55 -52 q5 -4 4 -7 q-1 -3 -7 -4 l-128 -4 l-2 -153 l38 1 l43 44 l53 -51 q5 -4 4 -7 q-1 -3 -7 -4 l-131 -4 l-3 -189 l82 2 l49 49 l57 -57 q4 -4 3 -7 q-1 -3 -6 -4 l-356 -12 l-1 -49 q-5 -62 -46 -113 q-9 -9 -18 -8 q-8 1 -7 10 l17 687 q-37 -49 -82 -103 q14 -12 21 -23 q6 -5 -2 -29 q-8 -24 -20 -37 q-11 -10 -18 -7 q-9 3 -13 21 q-15 59 -61 114 q-44 -56 -109 -126 l71 -24 q7 -3 2 -11 l-9 -29 l0 -14 l80 3 l48 48 l59 -53 q4 -3 3 -7 q-1 -3 -7 -4 l-183 -8 l0 -68 q129 -42 149 -66 q7 -7 0 -35 q-8 -29 -23 -44 q-12 -11 -19 -9 q-9 2 -17 22 q-31 70 -90 116 l1 -168 q-1 -97 -95 -151 q-5 -2 -7 -1 q-3 2 -3 6 q0 35 -4 48 q-4 13 -17 24 q-4 1 -4 6 q0 5 4 5 q32 0 39 4 q6 3 7 19 l1 163 q-55 -61 -115 -112 q-21 -18 -124 -99 q-5 -1 -7 2 q-2 3 2 8 q134 129 243 326 l-83 -4 q-48 -5 -97 -9 l-27 26 l207 8 l-3 63 q-7 -8 -15 -15 q-7 -4 -8 -2 q-2 3 2 8 q14 20 20 29 l0 6 l4 -1 q86 128 131 283 l70 -41 q10 -4 -1 -19 q-37 -52 -69 -94 q49 -22 76 -40 q54 91 89 170 q39 89 71 202 l80 -39 q4 -2 4 -4 q0 -2 -4 -7 l-12 -15 q-43 -76 -73 -121 l0 -32 l224 5 l44 48 l61 -55 q3 -4 2 -7 q-1 -3 -5 -4 l-155 -5 ZM719 602 l-95 -3 l-3 -154 l98 3 l0 154 ZM719 426 l-98 -3 l-2 -152 l99 2 l1 153 ZM718 252 l-99 -3 l-3 -189 l102 3 l0 189 ZM344 704 l90 2 l53 54 l63 -62 q4 -4 3 -7 q-1 -3 -5 -4 l-350 -7 q-77 -3 -116 -10 l-30 26 l205 5 l-6 118 q0 7 7 6 l97 -29 q5 -2 5 -5 q0 -3 -4 -8 q-11 -9 -11 -41 l-1 -38 ZM188 506 q72 -31 89 -55 q7 -5 -3 -29 q-9 -23 -23 -35 q-11 -11 -20 -8 q-9 3 -13 21 q-18 60 -40 89 q-56 -88 -153 -204 q-7 -4 -8 -2 q-2 3 2 8 q109 165 154 370 l71 -41 q10 -5 -1 -19 q-26 -50 -55 -95 Z" /><glyph glyph-name="" unicode="&#x97f3;" d="M745 268 l4 -230 q0 -74 -76 -141 q-10 -9 -15 -8 q-5 1 -13 13 q-21 56 -41 85 l-254 -9 q-13 -45 -59 -85 q-9 -8 -16 -6 q-8 2 -9 13 l3 158 l4 209 l-4 98 l85 -47 l264 9 l52 55 l100 -61 q7 -4 2 -13 l-27 -40 ZM630 9 l5 253 q1 23 -7 32 q-8 9 -28 10 l-250 -7 l-2 -125 l251 9 q11 -1 11 -10 q0 -8 -13 -10 l-249 -8 l-2 -153 l284 9 ZM599 662 l97 -44 q4 -1 4 -4 q0 -3 -4 -5 l-14 -27 l-26 -117 l174 2 l61 63 l83 -73 q3 -3 2 -7 q-1 -3 -4 -4 l-801 -12 q-85 -6 -112 -11 l-30 35 l301 3 l0 11 q-7 101 -12 138 q-1 4 1 5 q2 1 6 0 l89 -33 q6 -4 1 -10 l-8 -30 l-10 -80 l180 2 l6 60 q8 122 8 134 q1 4 3 5 q2 1 5 -1 ZM296 677 q-61 -3 -112 -12 l-36 34 l294 3 l4 131 l126 -28 q11 -5 3 -17 q-22 -23 -27 -85 l195 3 l53 49 l67 -58 q4 -4 3 -8 q-1 -3 -6 -4 l-564 -8 Z" /><glyph glyph-name="" unicode="&#x983b;" d="M616 133 l39 -70 q6 -17 -3 -23 q-97 -90 -252 -152 q-4 -1 -4 1 q-2 5 2 9 q137 98 210 235 q2 5 5 4 q2 0 3 -4 ZM723 142 q136 -58 185 -126 q13 -17 4 -53 q-8 -32 -26 -50 q-13 -14 -24 -13 q-11 1 -22 26 q-33 81 -62 128 q-23 37 -58 74 q-5 1 -4 8 q1 7 7 6 ZM155 415 l82 -47 q6 -6 -2 -11 l-18 -21 q-68 -112 -171 -234 q-4 -4 -7 -1 q-4 3 -2 8 q90 172 118 306 ZM425 381 l86 -52 q5 -3 5 -6 q0 -3 -5 -6 l-19 -14 q-73 -178 -182 -270 q-111 -93 -282 -171 q-7 -4 -9 1 q-2 6 5 11 q82 48 135 86 q67 48 109 97 q99 113 157 324 ZM783 199 q1 2 2 5 l2 377 l-184 -8 l0 -99 l132 2 q6 0 9 -3 q3 -3 3 -7 q-1 -10 -13 -11 l-132 -1 l0 -113 l135 4 q11 -1 11 -9 q1 -10 -13 -12 l-133 -3 l-1 -124 l182 2 ZM754 178 l-153 -2 l0 -9 q0 -17 -16 -33 q-13 -13 -32 -22 q-12 -7 -19 -5 q-7 2 -7 14 l7 388 l-3 116 q0 5 3 7 q2 1 6 -1 l51 -23 q32 81 48 136 l-25 0 q-61 0 -114 -7 l-21 27 l372 2 l48 51 l62 -59 q3 -5 2 -9 q-2 -3 -7 -3 l-262 -2 l39 -15 q7 -7 0 -12 l-23 -22 q-57 -61 -97 -96 l173 7 l33 44 l77 -47 q4 -3 5 -6 q1 -3 -4 -7 l-19 -34 l1 -341 q0 -31 -19 -56 q-15 -19 -48 -41 q-13 -7 -20 -5 q-6 3 -5 14 q1 20 -8 33 q-7 9 -25 18 ZM350 654 l29 1 l44 46 l59 -54 q4 -3 3 -7 q-1 -3 -7 -4 l-128 -3 l-1 -147 l59 1 l48 51 l65 -59 q5 -3 4 -7 q-1 -3 -8 -4 l-177 -4 l0 -109 l2 -105 q-4 -60 -57 -108 q-8 -9 -15 -6 q-6 4 -6 13 l6 314 l-79 -2 q-85 -3 -118 -11 l-31 30 l95 2 l1 140 q0 67 -4 110 l83 -31 q8 -3 1 -13 l-11 -28 l-4 -177 l72 1 l-1 198 q0 90 -6 150 l95 -31 q10 -6 1 -15 q-13 -19 -13 -52 l-1 -80 Z" /><glyph glyph-name="" unicode="&#x9891;" d="M849 615 l76 -46 q8 -6 1 -13 l-21 -27 l2 -145 l4 -119 q-4 -78 -60 -135 q-13 -14 -21 -11 q-8 3 -8 21 l-5 416 l-211 -6 l3 -337 q2 -53 -47 -103 q-11 -9 -17 -7 q-6 2 -6 15 l-2 353 q-3 -3 -7 -3 l-190 -4 l0 -109 l2 -105 q-4 -60 -57 -108 q-8 -9 -15 -6 q-6 4 -6 13 l6 313 l-79 -1 q-85 -3 -118 -11 l-31 30 l95 2 l1 140 q0 67 -4 110 l83 -31 q8 -3 1 -13 l-11 -28 l-4 -177 l72 1 l-1 198 q0 90 -6 150 l95 -31 q10 -6 1 -15 q-13 -19 -13 -52 l-1 -80 l29 1 l44 46 l59 -54 q4 -3 3 -7 q-1 -3 -7 -4 l-128 -4 l-1 -146 l72 1 l48 51 l65 -59 l3 -3 l0 18 l-4 102 q0 6 2 7 q2 1 7 -1 l77 -31 l22 0 q32 97 43 156 l-55 -1 q-71 -1 -118 -9 l-21 27 l356 10 l48 52 l64 -58 q3 -5 2 -8 q-1 -3 -7 -4 l-241 -8 l62 -12 q7 -5 0 -11 l-21 -22 q-62 -78 -93 -111 l156 5 l33 38 ZM675 495 q-1 4 1 6 q3 2 6 1 l82 -26 q4 -1 5 -5 q1 -5 -4 -10 l-11 -22 l-4 -149 q-4 -128 -86 -228 q-92 -112 -291 -199 q-5 -3 -8 3 q-3 6 5 10 q160 85 231 182 q73 100 77 247 l2 76 q0 73 -5 114 ZM425 381 l86 -52 q5 -3 5 -6 q0 -3 -5 -6 l-19 -14 q-73 -178 -182 -270 q-111 -93 -282 -171 q-7 -4 -9 1 q-2 6 5 11 q82 48 135 86 q67 48 109 97 q99 113 157 324 ZM155 415 l82 -47 q6 -6 -2 -11 l-18 -21 q-68 -112 -171 -234 q-4 -4 -7 -1 q-4 3 -2 8 q90 172 118 306 ZM926 -10 q0 -14 -10 -35 q-11 -23 -26 -35 q-36 -25 -51 13 q-29 78 -52 113 q-20 31 -50 54 q-6 2 -4 9 q2 6 9 3 q77 -29 125 -58 q60 -36 59 -64 Z" /><glyph glyph-name="" unicode="&#x9a30;" d="M717 106 q-1 3 0 5 q2 2 5 -1 q49 -39 56 -66 q3 -11 -4 -22 q-5 -12 -20 -21 q-9 -8 -16 -3 q-7 4 -6 14 q-3 51 -15 94 ZM630 96 q-1 3 1 5 q2 1 5 -2 q46 -38 51 -68 q3 -12 -5 -21 q-7 -14 -22 -21 q-9 -7 -16 -2 q-7 5 -5 14 q2 50 -9 95 ZM554 90 q1 3 3 4 q3 1 6 -3 q13 -22 22 -42 q9 -20 7 -42 q-4 -15 -10 -21 q-9 -11 -29 -16 q-14 -2 -18 2 q-5 5 0 18 q14 45 19 100 ZM487 99 q15 -55 -11 -124 q-11 -23 -33 -36 q-22 -12 -33 -5 q-11 12 -5 38 q5 24 17 31 q48 23 58 94 q0 4 3 4 q2 1 4 -2 ZM475 776 q33 -8 63 -22 q33 -15 34 -26 q3 -13 -8 -29 q-10 -15 -22 -22 q-16 -6 -23 8 q-17 49 -48 84 q-2 2 -1 5 q1 3 5 2 ZM806 423 l-97 -2 l-1 -72 l73 2 l30 32 l44 -42 q5 -8 -2 -12 l-146 -3 l-1 -68 l75 2 l26 30 l47 -40 q5 -8 -2 -12 l-146 -3 l-2 -70 l124 2 l27 41 l77 -42 q6 -4 0 -11 l-19 -27 q-8 -87 -22 -132 q-21 -65 -128 -110 q-6 -2 -8 1 q-2 2 0 9 q3 46 -28 63 q-5 4 -4 8 q1 4 6 3 q43 -4 59 1 q12 4 18 17 q18 42 27 160 l-302 -5 q-14 -14 -33 -23 q-8 -6 -13 -2 q-5 3 -4 11 l6 81 l-2 187 l0 11 q-22 -15 -86 -53 l0 -189 q-1 -105 -22 -156 q-23 -56 -92 -98 q1 49 -21 70 q-3 2 -4 6 q0 5 5 5 q39 1 50 33 q11 32 9 134 l0 562 l-76 -5 l-10 -18 l-4 -154 l65 3 q9 0 9 -10 q0 -9 -9 -10 l-65 -3 l-3 -122 q0 -20 -1 -40 l69 3 q9 0 8 -9 q-1 -9 -10 -10 l-68 -3 q-10 -170 -58 -269 q-39 -81 -154 -199 q-7 -2 -9 3 q-2 5 4 10 q88 97 122 210 q34 112 34 331 l1 178 q0 111 -5 165 q-1 5 0 7 q1 2 5 0 l75 -45 l73 5 l34 48 l71 -45 q5 -4 0 -9 l-23 -28 l0 -331 q50 35 85 64 l0 1 l1 0 q55 47 81 97 q-76 -1 -122 -11 l-31 28 l163 3 q15 36 22 70 l-6 0 q-76 -1 -118 -11 l-30 26 l158 3 q8 42 12 94 q0 66 -1 79 q-2 4 1 6 q2 2 7 0 l89 -33 q5 -2 5 -5 q0 -3 -4 -7 l-15 -22 q-8 -67 -19 -111 l25 1 l94 152 l52 -48 q3 -2 2 -5 q-1 -3 -4 -4 l-19 -9 l-107 -86 l65 1 l37 41 l57 -50 q3 -2 2 -5 q-1 -3 -4 -3 l-206 -3 q-12 -38 -30 -70 l204 4 l45 47 l63 -55 q1 -2 2 -3 q0 -4 -5 -5 l-215 -5 q46 -43 106 -69 q49 -21 145 -44 q4 -1 4 -6 q0 -4 -5 -5 q-21 -3 -39 -21 q-11 -12 -37 -50 q-67 46 -103 77 ZM783 444 q-47 47 -68 96 l-86 -2 q-34 -51 -98 -98 l252 4 ZM651 419 l-100 -2 l-7 -31 l0 -40 l106 2 l1 71 ZM650 325 l-106 -2 l0 -68 l106 2 l0 68 ZM650 234 l-106 -2 l0 -69 l105 2 l1 69 Z" /></font>
</defs>
</svg>
