<?xml version="1.0" standalone="no"?><!DOCTYPE svg PUBLIC "-//W3C//DTD SVG 1.1//EN" "http://www.w3.org/Graphics/SVG/1.1/DTD/svg11.dtd" ><svg xmlns="http://www.w3.org/2000/svg"><metadata></metadata><defs><font id="Founder:FZQingKeBenYueSongS-R-GB" horiz-adv-x="1000"><font-face font-family="FZQingKeBenYueSongS-R-GB" font-weight="400" font-stretch="normal" units-per-em="1000" panose-1="2 0 0 0 0 0 0 0 0 0" ascent="863" descent="-236" x-height="0" bbox="6 -193 997 844" underline-thickness="50" underline-position="-100" unicode-range="U+0030-94fe" /><missing-glyph horiz-adv-x="1000"  /><glyph glyph-name="" unicode="0" d="M223 705 q82 0 126 -87 q47 -92 47 -272 q0 -352 -173 -352 q-88 0 -131 84 q-44 86 -44 268 q0 359 175 359 ZM223 673 q-43 0 -63 -76 q-21 -78 -21 -249 q0 -182 22 -257 q19 -66 62 -66 q40 0 59 68 q21 76 21 253 q0 179 -20 255 q-19 72 -60 72 Z" /><glyph glyph-name="" unicode="1" d="M299 12 l-257 0 l0 23 q46 0 65 23 q20 24 20 83 l0 396 q0 54 -17 74 q-15 18 -58 20 l0 26 l165 46 l0 -560 q0 -62 18 -85 q18 -23 64 -23 l0 -23 Z" /><glyph glyph-name="" unicode="2" d="M375 234 l27 -7 l-14 -215 l-338 0 q0 88 42 180 q44 95 114 150 q96 83 96 188 q0 72 -23 110 q-21 35 -59 35 q-27 0 -47 -22 q-20 -23 -24 -56 q29 -34 18 -71 q-11 -38 -54 -41 q-27 0 -41 18 q-14 18 -14 51 q0 65 43 107 q46 45 121 45 q79 0 126 -48 q46 -47 46 -128 q0 -102 -64 -168 q-33 -34 -85 -64 q-112 -62 -141 -180 l200 0 q28 0 41 20 q15 23 30 96 Z" /><glyph glyph-name="" unicode="3" d="M150 348 l0 36 q69 9 102 45 q35 39 35 115 q-1 66 -23 101 q-20 32 -54 32 q-56 -1 -67 -68 q24 -35 10 -70 q-14 -34 -50 -34 q-52 0 -54 64 q0 57 43 96 q47 42 124 42 q72 0 117 -46 q45 -46 45 -120 q-1 -125 -152 -174 q164 -41 162 -189 q0 -85 -46 -134 q-47 -50 -131 -50 q-81 1 -128 37 q-46 35 -45 92 q2 32 17 51 q15 20 42 20 q39 -2 54 -34 q15 -34 -12 -73 q9 -32 29 -48 q18 -14 43 -14 q36 0 59 35 q27 41 27 118 q0 83 -36 125 q-36 41 -111 45 Z" /><glyph glyph-name="" unicode="4" d="M382 12 l-204 0 l0 26 q32 0 44 16 q13 17 13 62 l0 75 l-198 0 l0 44 l220 455 l68 0 l0 -457 l64 0 l0 -42 l-64 0 l0 -70 q0 -48 13 -66 q12 -17 44 -17 l0 -26 ZM235 233 l0 327 l-159 -327 l159 0 Z" /><glyph glyph-name="" unicode="5" d="M87 690 l273 0 l0 -106 l-247 0 l-14 -222 q50 65 118 65 q72 0 121 -58 q50 -59 50 -151 q-1 -105 -50 -163 q-49 -58 -136 -58 q-75 0 -118 35 q-41 34 -41 87 q0 29 14 48 q15 20 40 20 q39 0 53 -35 q14 -35 -12 -71 q13 -52 64 -54 q39 -2 65 45 q29 52 29 142 q0 171 -104 171 q-61 0 -103 -97 l-27 8 l25 394 Z" /><glyph glyph-name="" unicode="6" d="M235 673 q-40 -3 -64 -67 q-29 -76 -29 -223 q37 58 96 58 q62 -2 106 -62 q44 -61 46 -158 q0 -104 -45 -165 q-45 -62 -125 -62 q-168 0 -168 331 q0 180 55 283 q52 98 135 98 q59 0 97 -33 q37 -32 37 -80 q0 -30 -15 -47 q-14 -16 -41 -16 q-34 1 -45 30 q-12 30 8 69 q-4 22 -18 34 q-13 11 -30 10 ZM221 401 q-35 0 -57 -47 q-22 -46 -22 -116 q0 -101 23 -159 q21 -54 55 -54 q35 0 56 45 q23 50 23 150 q1 83 -21 132 q-21 48 -57 49 Z" /><glyph glyph-name="" unicode="7" d="M75 468 l-24 6 l18 216 l317 0 l0 -66 q-144 -283 -142 -565 q0 -33 -16 -50 q-15 -16 -41 -16 q-50 0 -50 54 q0 162 194 537 l-183 0 q-27 0 -42 -22 q-17 -26 -31 -94 Z" /><glyph glyph-name="" unicode="8" d="M370 545 q-1 -104 -99 -156 q121 -85 116 -203 q0 -91 -50 -142 q-49 -50 -131 -50 q-77 0 -120 45 q-42 44 -42 117 q0 121 105 183 q-97 78 -97 182 q0 81 44 133 q45 53 120 53 q69 0 111 -43 q43 -44 43 -119 ZM135 569 q-4 -91 106 -165 q60 61 60 150 q0 60 -25 92 q-23 29 -60 28 q-37 -1 -59 -29 q-22 -28 -22 -76 ZM305 147 q0 51 -27 90 q-30 44 -100 85 q-67 -61 -67 -155 q0 -66 28 -104 q26 -35 67 -35 q40 0 69 33 q30 34 30 86 Z" /><glyph glyph-name="" unicode="9" d="M203 28 q39 0 60 58 q26 70 32 230 q-41 -62 -102 -62 q-69 0 -108 57 q-39 57 -39 157 q0 109 45 173 q45 64 122 64 q77 0 126 -95 q47 -92 47 -238 q0 -378 -185 -378 q-67 0 -106 33 q-36 30 -36 75 q0 29 14 48 q15 21 41 20 q41 0 55 -36 q13 -34 -10 -68 q12 -38 44 -38 ZM213 671 q-22 0 -39 -22 q-38 -49 -38 -178 q0 -112 39 -152 q16 -17 38 -17 q82 0 82 178 q0 98 -24 147 q-22 44 -58 44 Z" /><glyph glyph-name="" unicode="A" d="M355 12 l0 26 q44 2 60 16 q15 13 8 38 l-40 142 l-196 0 l-41 -140 q-9 -26 5 -38 q16 -14 68 -18 l0 -26 l-189 0 l0 26 q58 -2 79 61 l189 591 l51 7 l169 -567 q15 -50 36 -70 q18 -18 54 -22 l0 -26 l-253 0 ZM199 274 l171 0 l-80 288 l-91 -288 Z" /><glyph glyph-name="" unicode="B" d="M98 121 l0 448 q0 55 -14 74 q-14 19 -53 19 l0 28 l251 0 q105 0 153 -43 q43 -39 43 -116 q0 -66 -35 -106 q-34 -39 -110 -60 q163 -30 161 -171 q0 -92 -52 -136 q-54 -46 -169 -46 l-242 0 l0 22 q36 0 51 17 q16 19 16 70 ZM190 380 l74 0 q59 0 90 36 q32 38 32 114 q0 63 -32 96 q-33 34 -93 34 l-71 0 l0 -280 ZM190 43 l67 0 q136 0 139 148 q0 158 -133 158 l-73 0 l0 -306 Z" /><glyph glyph-name="" unicode="C" d="M500 682 l7 -207 l-28 -9 q-29 112 -71 160 q-39 44 -97 43 q-74 -1 -118 -87 q-45 -87 -45 -235 q0 -191 82 -267 q38 -36 89 -35 q53 1 96 36 q48 39 78 118 l34 -21 q-37 -97 -91 -140 q-51 -41 -125 -41 q-121 0 -193 95 q-71 94 -71 251 q0 161 70 260 q72 102 194 102 q72 0 136 -39 l53 16 Z" /><glyph glyph-name="" unicode="D" d="M37 690 l221 0 q303 0 302 -335 q0 -174 -74 -259 q-73 -84 -225 -84 l-227 0 l0 31 q38 0 53 18 q15 18 15 66 l0 439 q0 54 -14 74 q-14 20 -51 20 l0 30 ZM193 43 l68 0 q130 0 179 133 q26 71 26 176 q0 155 -55 233 q-53 75 -155 75 l-63 0 l0 -617 Z" /><glyph glyph-name="" unicode="E" d="M98 130 l0 436 q0 52 -16 73 q-15 20 -53 21 l0 30 l409 0 l13 -164 l-27 -8 q-19 89 -51 119 q-25 23 -79 23 l-106 0 l0 -283 l74 0 q45 0 65 21 q21 22 24 78 l26 0 l0 -233 l-26 0 q-4 59 -25 82 q-19 21 -64 21 l-74 0 l0 -303 l120 0 q46 0 70 28 q28 33 58 134 l23 -6 l-13 -187 l-417 0 l0 31 q38 0 53 18 q16 19 16 69 Z" /><glyph glyph-name="" unicode="F" d="M102 141 l0 422 q0 59 -14 78 q-14 19 -53 19 l0 30 l403 0 l14 -170 l-29 -8 q-19 93 -47 123 q-23 25 -74 25 l-109 0 l0 -282 l84 0 q40 0 56 19 q16 19 24 74 l27 0 l0 -224 l-27 0 q-8 59 -27 81 q-17 20 -54 20 l-83 0 l0 -202 q0 -60 15 -82 q14 -21 56 -21 l0 -31 l-231 0 l0 31 q36 0 52 20 q17 22 17 78 Z" /><glyph glyph-name="" unicode="G" d="M355 326 l208 0 l0 -30 q-33 0 -45 -18 q-12 -18 -12 -69 l0 -83 q0 -61 1 -80 q-43 -3 -85 -21 q-72 -28 -121 -28 q-122 0 -190 91 q-68 91 -68 252 q0 165 72 262 q73 98 196 98 q78 0 135 -31 l54 17 l8 -185 l-26 -10 q-28 95 -71 136 q-39 38 -100 38 q-74 0 -122 -84 q-50 -87 -52 -235 q-3 -146 47 -231 q46 -78 119 -78 q54 0 112 29 l0 143 q0 49 -14 68 q-13 18 -46 19 l0 30 Z" /><glyph glyph-name="" unicode="H" d="M366 12 l0 31 q39 0 51 19 q13 20 13 82 l0 211 l-238 0 l0 -214 q0 -57 13 -77 q14 -21 52 -21 l0 -31 l-220 0 l0 31 q38 0 52 19 q16 21 16 79 l0 413 q0 63 -13 84 q-14 22 -53 22 l0 30 l215 0 l0 -30 q-38 0 -50 -21 q-12 -20 -12 -85 l0 -168 l238 0 l0 168 q0 78 -25 97 q-12 9 -36 9 l0 30 l213 0 l0 -30 q-39 0 -52 -22 q-12 -21 -12 -84 l0 -410 q0 -61 13 -81 q13 -20 55 -20 l0 -31 l-220 0 Z" /><glyph glyph-name="" unicode="I" d="M36 690 l232 0 l0 -30 q-40 0 -55 -22 q-16 -23 -16 -84 l0 -413 q0 -59 16 -79 q15 -19 57 -19 l0 -31 l-240 0 l0 31 q41 0 58 19 q19 22 19 79 l0 413 q0 61 -17 84 q-16 22 -54 22 l0 30 Z" /><glyph glyph-name="" unicode="J" d="M139 690 l235 0 l0 -30 q-39 0 -54 -21 q-15 -21 -15 -77 l0 -402 q0 -81 -39 -124 q-38 -42 -111 -42 q-66 0 -99 26 q-30 23 -30 64 q0 27 16 45 q16 18 41 18 q38 0 53 -30 q15 -30 -4 -67 q9 -26 35 -26 q47 0 47 109 l0 428 q0 56 -17 78 q-16 21 -58 21 l0 30 Z" /><glyph glyph-name="" unicode="K" d="M545 690 l0 -30 q-41 -4 -67 -21 q-28 -18 -67 -68 l-99 -132 l165 -318 q34 -74 91 -80 l0 -29 l-152 0 l-164 348 l-66 -88 l0 -134 q0 -53 16 -75 q15 -21 56 -23 l0 -28 l-231 0 l0 27 q38 0 53 19 q16 21 16 73 l0 436 q0 55 -14 74 q-14 19 -52 19 l0 30 l224 0 l0 -30 q-38 0 -53 -20 q-15 -20 -15 -73 l0 -249 l209 296 q8 24 -3 34 q-13 12 -51 12 l0 30 l204 0 Z" /><glyph glyph-name="" unicode="L" d="M450 228 l-16 -216 l-406 0 l0 31 q42 0 56 18 q16 20 16 80 l0 423 q0 57 -15 77 q-14 19 -54 19 l0 30 l228 0 l0 -30 q-39 0 -53 -20 q-14 -20 -14 -74 l0 -523 l101 0 q49 0 74 33 q30 39 56 159 l27 -7 Z" /><glyph glyph-name="" unicode="M" d="M720 12 l-234 0 l0 31 q42 -3 57 16 q15 19 15 80 l0 507 l-194 -611 l-37 0 l-188 600 l0 -486 q0 -61 18 -84 q17 -22 62 -22 l0 -31 l-189 0 l0 31 q45 0 62 21 q18 22 18 83 l0 407 q0 47 -7 70 q-10 36 -60 36 l0 30 l177 0 l160 -509 l160 509 l178 0 l0 -30 q-43 0 -56 -19 q-12 -17 -12 -71 l0 -429 q0 -62 12 -79 q12 -17 58 -19 l0 -31 Z" /><glyph glyph-name="" unicode="N" d="M395 690 l172 0 l0 -30 q-41 0 -56 -20 q-15 -19 -15 -73 l0 -555 l-53 0 l-309 567 l0 -437 q0 -58 15 -78 q16 -21 60 -21 l0 -31 l-179 0 l0 31 q40 -2 56 17 q17 21 17 79 l0 415 q0 65 -15 86 q-14 20 -55 20 l0 30 l147 0 l286 -523 l0 400 q0 54 -16 74 q-15 19 -55 19 l0 30 Z" /><glyph glyph-name="" unicode="O" d="M297 705 q117 0 187 -91 q74 -96 74 -267 q0 -168 -72 -262 q-70 -91 -189 -91 q-120 0 -188 88 q-70 91 -70 257 q0 165 68 264 q70 102 190 102 ZM297 673 q-77 -1 -119 -81 q-44 -83 -44 -245 q0 -168 47 -249 q42 -72 117 -73 q71 -1 115 73 q49 83 49 244 q0 171 -45 254 q-42 78 -120 77 Z" /><glyph glyph-name="" unicode="P" d="M98 141 l0 422 q0 56 -15 77 q-14 20 -50 20 l0 30 l228 0 q111 0 164 -49 q50 -46 50 -139 q0 -105 -52 -156 q-51 -50 -158 -50 l-76 0 l0 -152 q0 -61 15 -81 q15 -20 57 -20 l0 -31 l-231 0 l0 31 q39 0 53 19 q15 20 15 79 ZM189 326 l50 0 q68 0 105 41 q40 44 40 132 q0 161 -146 161 l-49 0 l0 -334 Z" /><glyph glyph-name="" unicode="Q" d="M574 9 l9 -28 q-65 -47 -116 -47 q-64 0 -106 71 q-25 -8 -62 -8 q-119 0 -187 87 q-71 91 -71 258 q0 164 70 264 q70 100 186 100 q121 0 191 -94 q70 -94 70 -263 q0 -107 -31 -183 q-26 -64 -82 -120 q33 -56 82 -56 q16 0 47 19 ZM172 144 q30 103 101 99 q43 0 73 -33 q28 -31 71 -122 q47 98 47 254 q0 334 -167 334 q-75 0 -117 -80 q-45 -85 -45 -243 q0 -114 37 -209 ZM300 28 q30 0 45 5 q-39 91 -62 121 q-18 24 -41 24 q-34 0 -55 -80 q18 -34 49 -53 q30 -18 64 -17 Z" /><glyph glyph-name="" unicode="R" d="M97 134 l0 429 q0 57 -14 77 q-14 20 -53 20 l0 30 l228 0 q113 0 166 -47 q48 -42 48 -125 q0 -62 -25 -103 q-24 -39 -74 -64 l90 -236 q24 -65 77 -72 l0 -31 l-144 0 l-110 315 l-96 0 l0 -190 q0 -55 14 -74 q14 -20 55 -20 l0 -31 l-229 0 l0 31 q39 0 52 17 q15 19 15 74 ZM190 358 l65 0 q59 0 91 38 q34 40 34 119 q0 76 -33 111 q-32 34 -102 34 l-55 0 l0 -302 Z" /><glyph glyph-name="" unicode="S" d="M389 693 l6 -185 l-25 -8 q-28 99 -62 138 q-30 35 -77 35 q-45 0 -70 -33 q-24 -32 -24 -84 q0 -81 132 -146 q83 -41 119 -91 q34 -47 34 -113 q-1 -99 -50 -152 q-50 -54 -144 -54 q-44 0 -116 24 l-48 -11 l-4 194 l26 3 q20 -104 55 -144 q30 -34 87 -34 q49 0 78 30 q29 30 29 84 q0 98 -155 173 q-125 60 -125 186 q0 91 44 144 q46 56 132 56 q54 0 115 -29 l43 17 Z" /><glyph glyph-name="" unicode="T" d="M157 12 l0 31 q45 -2 62 16 q18 19 18 72 l0 529 q-71 0 -112 -49 q-43 -52 -61 -163 l-27 8 l16 234 l465 0 l13 -232 l-25 -9 q-21 111 -70 164 q-43 47 -108 47 l0 -524 q0 -55 17 -74 q17 -19 64 -19 l0 -31 l-252 0 Z" /><glyph glyph-name="" unicode="U" d="M395 690 l177 0 l0 -30 q-44 0 -60 -24 q-16 -24 -16 -89 l0 -290 q0 -136 -50 -199 q-48 -61 -146 -61 q-104 -2 -154 62 q-50 64 -50 194 l0 313 q0 56 -14 75 q-14 18 -53 19 l0 30 l228 0 l0 -30 q-37 0 -52 -20 q-16 -21 -16 -74 l0 -309 q0 -114 36 -168 q34 -51 102 -51 q142 0 142 219 l0 290 q0 69 -16 92 q-15 21 -58 21 l0 30 Z" /><glyph glyph-name="" unicode="V" d="M319 12 l-46 0 l-155 547 q-15 50 -38 74 q-20 21 -51 27 l0 30 l238 0 l0 -30 q-47 0 -58 -22 q-10 -21 5 -82 l113 -412 l118 414 q21 74 -8 93 q-14 9 -41 9 l0 30 l177 0 l0 -30 q-70 -1 -98 -104 l-156 -544 Z" /><glyph glyph-name="" unicode="W" d="M198 567 l83 -410 l129 520 l64 0 l114 -516 l86 395 q13 56 -2 80 q-15 24 -62 26 l0 28 l177 0 l0 -28 q-32 -2 -50 -29 q-20 -29 -37 -103 l-116 -518 l-52 0 l-124 533 l-133 -533 l-54 0 l-115 543 q-12 56 -32 81 q-18 24 -46 26 l0 28 l231 0 l0 -28 q-47 -2 -60 -23 q-13 -20 -1 -72 Z" /><glyph glyph-name="" unicode="X" d="M558 690 l0 -30 q-40 -4 -67 -24 q-30 -23 -58 -74 l-102 -177 l127 -255 q19 -48 47 -69 q20 -15 58 -22 l0 -27 l-240 0 l0 27 q36 1 48 15 q11 13 1 36 l-100 207 l-109 -193 q-16 -29 -5 -43 q12 -16 60 -22 l0 -27 l-192 0 l0 27 q66 3 114 87 l113 205 l-123 245 q-26 53 -61 72 q-16 8 -35 12 l0 30 l244 0 l0 -30 q-43 -4 -53 -24 q-10 -20 11 -61 l78 -158 l106 189 q7 26 -6 39 q-13 13 -48 15 l0 30 l192 0 Z" /><glyph glyph-name="" unicode="Y" d="M163 12 l0 31 q43 0 59 19 q16 19 16 75 l0 153 l-131 293 q-17 38 -38 56 q-17 15 -43 21 l0 30 l238 0 l0 -30 q-30 0 -45 -9 q-30 -18 -5 -68 l100 -232 l109 226 q20 46 9 64 q-12 19 -62 19 l0 30 l189 0 l0 -30 q-32 -1 -56 -21 q-26 -22 -49 -73 l-122 -250 l0 -177 q0 -58 15 -77 q15 -19 63 -19 l0 -31 l-247 0 Z" /><glyph glyph-name="" unicode="Z" d="M84 479 l-24 7 l8 204 l401 0 l0 -30 l-323 -617 l148 0 q33 0 53 6 q23 7 40 25 q34 36 64 152 l26 -8 l-10 -206 l-435 0 l0 29 l324 619 l-123 0 q-57 0 -87 -35 q-31 -37 -62 -146 Z" /><glyph glyph-name="" unicode="a" d="M341 352 l0 -255 q0 -28 9 -39 q9 -12 32 -12 l3 -30 l-90 -10 q-22 -3 -30 10 q-9 15 -9 59 q-43 -76 -118 -74 q-48 1 -76 35 q-28 35 -28 93 q0 71 46 110 q54 45 175 51 l0 67 q0 49 -16 76 q-14 24 -40 24 q-35 0 -54 -34 q22 -39 9 -67 q-13 -28 -48 -28 q-21 0 -35 16 q-13 15 -13 40 q0 40 35 69 q40 34 107 34 q68 0 105 -36 q36 -35 36 -99 ZM255 182 l0 78 q-67 -3 -101 -38 q-30 -31 -29 -85 q0 -90 53 -90 q33 0 54 33 q23 36 23 102 Z" /><glyph glyph-name="" unicode="b" d="M23 619 l0 31 l143 43 q-3 -46 -3 -196 l0 -87 q33 74 94 74 q61 0 101 -63 q43 -67 43 -178 q0 -118 -46 -184 q-43 -61 -113 -61 q-30 0 -53 14 q-25 15 -48 50 l-47 -59 l-25 10 l10 120 l0 398 q0 52 -13 71 q-12 17 -43 17 ZM238 446 q-22 0 -39 -24 q-40 -55 -40 -194 q0 -128 40 -176 q17 -20 38 -20 q34 0 54 44 q24 52 24 163 q0 104 -24 159 q-21 48 -53 48 Z" /><glyph glyph-name="" unicode="c" d="M314 126 l22 -15 q-25 -63 -57 -91 q-29 -25 -71 -25 q-80 0 -122 64 q-41 62 -41 178 q0 117 45 185 q45 68 118 67 q52 -1 86 -31 q35 -31 34 -76 q-1 -28 -14 -43 q-14 -16 -36 -16 q-29 0 -39 27 q-11 29 9 62 q0 21 -14 35 q-13 13 -30 12 q-31 -2 -49 -52 q-21 -58 -20 -166 q1 -133 43 -177 q19 -20 45 -20 q57 0 91 82 Z" /><glyph glyph-name="" unicode="d" d="M236 626 l0 26 l141 38 q-6 -98 -6 -174 l0 -400 q0 -44 10 -59 q9 -14 37 -14 l1 -29 l-96 -7 q-20 -2 -27 8 q-7 11 -7 43 q-36 -63 -100 -60 q-92 0 -127 111 q-17 54 -17 126 q0 112 42 180 q43 69 111 69 q51 0 90 -45 l0 97 q0 51 -11 69 q-10 17 -41 21 ZM210 446 q-35 0 -55 -51 q-21 -54 -21 -157 q0 -99 22 -149 q20 -45 54 -45 q81 0 81 203 q0 130 -40 178 q-18 21 -41 21 Z" /><glyph glyph-name="" unicode="e" d="M310 131 l24 -20 q-49 -116 -130 -116 q-76 0 -119 62 q-43 63 -43 177 q0 123 42 191 q41 66 111 65 q130 -3 135 -238 l-196 0 q0 -110 23 -159 q21 -45 65 -45 q52 0 88 83 ZM134 283 l109 0 q0 91 -16 137 q-14 41 -38 40 q-23 -1 -38 -44 q-16 -48 -17 -133 Z" /><glyph glyph-name="" unicode="f" d="M264 474 l0 -31 l-91 0 l0 -314 q0 -52 12 -70 q11 -16 44 -16 l0 -31 l-196 0 l0 31 q30 0 41 16 q13 18 13 67 l0 317 l-55 0 l0 31 l55 0 l0 75 q0 65 30 102 q33 41 97 41 q48 -1 78 -27 q28 -25 28 -62 q0 -25 -13 -39 q-14 -15 -37 -15 q-31 0 -40 25 q-9 24 8 57 q-4 28 -31 28 q-34 0 -34 -84 l0 -101 l91 0 Z" /><glyph glyph-name="" unicode="h" d="M431 12 l-177 0 l0 31 q26 0 35 17 q10 18 10 71 l0 181 q0 59 -15 90 q-13 28 -34 28 q-34 0 -59 -49 q-24 -48 -24 -114 l0 -134 q0 -53 11 -72 q11 -18 38 -18 l0 -31 l-180 0 l0 31 q27 0 36 17 q10 18 10 68 l0 405 q0 53 -10 70 q-9 16 -36 16 l0 31 l134 42 q-3 -168 -3 -172 l0 -118 q46 81 113 81 q103 0 105 -157 l0 -193 q0 -50 11 -71 q10 -19 35 -19 l0 -31 Z" /><glyph glyph-name="" unicode="i" d="M38 417 l0 30 l139 36 l0 -350 q0 -52 12 -71 q12 -19 45 -19 l0 -31 l-200 0 l0 31 q31 0 44 18 q14 19 14 72 l0 205 q0 45 -13 63 q-12 16 -41 16 ZM136 697 q20 0 36 -18 q16 -18 16 -47 q-5 -67 -52 -67 q-24 0 -39 18 q-15 18 -15 49 q0 28 16 47 q15 18 38 18 Z" /><glyph glyph-name="" unicode="j" d="M113 417 l0 30 l143 38 q-3 -61 -3 -159 l0 -344 q0 -85 -34 -127 q-32 -39 -97 -40 q-39 0 -63 23 q-23 22 -23 56 q0 24 13 42 q13 18 34 18 q32 -1 46 -27 q15 -27 -7 -62 q1 -6 7 -11 q5 -4 11 -4 q28 0 28 88 l0 397 q0 49 -12 66 q-11 16 -43 16 ZM212 698 q20 0 36 -18 q16 -18 16 -47 q-5 -67 -52 -67 q-24 0 -39 18 q-15 18 -15 49 q0 28 16 47 q15 18 38 18 Z" /><glyph glyph-name="" unicode="k" d="M217 12 l-189 0 l0 31 q29 0 40 15 q12 16 12 60 l0 420 q0 55 -10 73 q-10 17 -41 17 l0 22 l138 40 q-4 -71 -4 -171 l0 -287 l103 165 q10 23 -1 35 q-11 13 -38 11 l0 31 l172 0 l0 -31 q-66 0 -120 -81 l-23 -38 l91 -214 q27 -60 70 -67 l0 -31 l-122 0 l-90 223 l-42 -54 l0 -60 q0 -46 11 -62 q11 -16 43 -16 l0 -31 Z" /><glyph glyph-name="" unicode="l" d="M225 12 l-199 0 l0 31 q34 0 46 16 q12 16 12 67 l0 399 q0 52 -12 71 q-12 19 -42 19 l0 30 l137 45 l0 -560 q0 -53 13 -71 q12 -16 45 -16 l0 -31 Z" /><glyph glyph-name="" unicode="m" d="M614 12 l-171 0 l0 31 q22 0 31 15 q10 17 10 61 l0 205 q0 111 -49 111 q-28 -2 -50 -42 q-23 -41 -24 -94 l0 -178 q0 -45 10 -62 q10 -16 33 -16 l0 -31 l-171 0 l0 31 q26 0 35 15 q10 16 10 62 l0 192 q0 82 -23 110 q-10 12 -23 12 q-17 0 -34 -23 q-39 -52 -39 -132 l0 -160 q0 -46 9 -61 q9 -15 34 -15 l0 -31 l-175 0 l0 31 q25 0 35 16 q10 17 10 59 l0 221 q0 43 -10 60 q-9 16 -34 16 l0 30 l131 38 l0 -86 q20 46 47 66 q25 19 60 19 q66 0 89 -98 q45 98 109 98 q67 0 92 -65 q13 -34 13 -85 l0 -213 q0 -45 10 -61 q9 -15 35 -15 l0 -31 Z" /><glyph glyph-name="" unicode="n" d="M25 415 l0 30 l128 42 l0 -93 q45 87 107 88 q108 0 108 -150 l0 -220 q0 -39 10 -54 q10 -15 36 -15 l0 -31 l-176 0 l0 31 q26 0 35 13 q9 14 9 55 l0 196 q0 72 -12 99 q-11 25 -39 25 q-18 0 -36 -20 q-42 -46 -42 -136 l0 -164 q0 -41 7 -53 q8 -15 36 -15 l0 -31 l-171 0 l0 31 q28 0 36 14 q7 12 7 55 l0 225 q0 48 -9 64 q-8 14 -34 14 Z" /><glyph glyph-name="" unicode="o" d="M200 490 q72 0 114 -64 q44 -67 44 -188 q0 -120 -45 -184 q-42 -59 -114 -59 q-77 0 -117 58 q-42 61 -43 178 q0 123 42 191 q42 68 119 68 ZM199 460 q-33 0 -52 -52 q-21 -58 -21 -174 q0 -209 73 -209 q72 0 72 213 q0 112 -22 171 q-19 51 -50 51 Z" /><glyph glyph-name="" unicode="p" d="M167 484 l0 -61 q36 59 94 59 q57 -1 99 -64 q42 -63 44 -172 q0 -124 -43 -188 q-39 -58 -108 -58 q-51 0 -86 41 l0 -110 q0 -52 12 -71 q11 -18 41 -18 l0 -30 l-190 0 l0 30 q30 0 42 17 q13 19 13 68 l0 408 q0 44 -13 62 q-12 17 -41 18 l0 30 l136 39 ZM241 439 q-34 -1 -55 -52 q-23 -55 -23 -156 q0 -97 24 -147 q21 -43 54 -43 q33 3 52 44 q24 52 24 158 q-1 92 -23 146 q-21 51 -53 50 Z" /><glyph glyph-name="" unicode="q" d="M402 -188 l-190 0 l0 30 q29 0 40 16 q12 17 12 59 l0 129 q-18 -27 -38 -37 q-17 -8 -47 -8 q-137 1 -142 237 q0 112 40 178 q41 68 116 68 q58 0 100 -61 l35 66 l24 -9 l-2 -107 l0 -452 q0 -45 11 -62 q11 -17 41 -17 l0 -30 ZM198 449 q-33 0 -52 -47 q-22 -54 -22 -161 q0 -98 22 -151 q19 -47 50 -47 q47 0 68 87 q12 50 12 120 q0 99 -21 150 q-20 49 -57 49 Z" /><glyph glyph-name="" unicode="r" d="M29 452 l138 35 l0 -101 q48 101 106 101 q28 0 44 -19 q17 -20 17 -53 q-4 -65 -51 -65 q-24 0 -36 18 q-11 16 -10 46 q-16 -2 -33 -23 q-37 -46 -37 -116 l0 -147 q0 -48 11 -65 q11 -18 44 -20 l0 -31 l-194 0 l0 31 q29 0 41 15 q14 18 14 63 l0 216 q0 49 -13 68 q-12 17 -41 17 l0 30 Z" /><glyph glyph-name="" unicode="s" d="M271 483 l6 -133 l-22 -7 q-19 61 -41 89 q-20 25 -47 25 q-24 0 -38 -18 q-13 -17 -14 -46 q-2 -61 76 -102 q36 -19 60 -43 q42 -42 42 -107 q0 -67 -34 -105 q-34 -37 -92 -38 q-38 0 -82 21 l-37 -9 l-5 134 l23 7 q16 -72 39 -99 q21 -24 62 -24 q23 0 38 16 q15 16 15 40 q0 35 -19 61 q-21 28 -71 57 q-96 54 -91 141 q0 63 34 103 q35 41 94 41 q32 0 67 -18 l37 14 Z" /><glyph glyph-name="" unicode="t" d="M125 627 l28 0 l0 -153 l82 0 l0 -31 l-82 0 l0 -327 q0 -63 42 -64 q16 0 42 25 l14 -31 q-42 -48 -97 -48 q-48 0 -68 27 q-19 26 -19 84 l0 334 l-41 0 l0 31 l12 0 q34 0 52 27 q22 33 35 126 Z" /><glyph glyph-name="" unicode="u" d="M419 43 l3 -29 l-95 -6 q-19 -1 -26 7 q-7 8 -7 31 l0 42 q-40 -90 -116 -90 q-104 0 -104 144 l0 205 q0 44 -10 61 q-9 16 -36 19 l0 32 l134 25 q-3 -99 -3 -128 l0 -191 q0 -58 14 -82 q14 -23 45 -23 q31 0 52 39 q25 46 25 132 l0 109 q0 54 -11 70 q-10 14 -39 14 l0 30 l136 32 q-2 -80 -2 -138 l0 -255 q0 -29 9 -40 q8 -10 31 -10 Z" /><glyph glyph-name="" unicode="v" d="M255 474 l130 0 l0 -31 q-44 -5 -68 -96 l-93 -335 l-52 0 l-98 368 q-14 58 -49 63 l0 31 l179 0 l0 -31 q-29 0 -38 -19 q-10 -20 2 -57 l57 -234 l69 244 q8 36 -1 51 q-9 15 -38 15 l0 31 Z" /><glyph glyph-name="" unicode="w" d="M203 147 l72 313 l50 0 l73 -320 l47 225 q5 46 -3 62 q-8 17 -40 19 l0 28 l133 0 l0 -28 q-23 -2 -37 -22 q-15 -22 -27 -74 l-69 -338 l-54 0 l-76 305 l-67 -305 l-55 0 l-78 367 q-6 33 -16 48 q-10 15 -29 19 l0 28 l162 0 l0 -28 q-23 -2 -30 -20 q-7 -18 3 -60 l41 -219 Z" /><glyph glyph-name="" unicode="x" d="M382 12 l-194 0 l0 31 q25 0 33 11 q7 9 -1 29 l-40 93 l-49 -93 q-10 -20 -5 -29 q7 -11 36 -11 l0 -31 l-134 0 l0 31 q47 0 70 50 l68 121 l-76 167 q-13 30 -27 44 q-14 14 -34 18 l0 31 l174 0 l0 -31 q-24 1 -30 -8 q-5 -8 1 -29 l41 -97 l52 85 q13 28 7 39 q-5 10 -29 10 l0 31 l132 0 l0 -31 q-25 0 -41 -13 q-17 -13 -38 -50 l-66 -107 l75 -164 q26 -63 75 -66 l0 -31 Z" /><glyph glyph-name="" unicode="y" d="M256 474 l133 0 l0 -31 q-43 -2 -66 -81 l-128 -436 q-19 -65 -42 -94 q-20 -25 -45 -25 q-24 0 -40 17 q-17 18 -17 50 q0 24 15 42 q15 19 36 19 q39 -3 43 -41 q13 10 27 57 l16 59 l-110 370 q-15 56 -52 63 l0 31 l173 0 l0 -31 q-23 1 -30 -13 q-7 -14 2 -46 l59 -219 l63 207 q13 36 3 53 q-9 16 -40 18 l0 31 Z" /><glyph glyph-name="" unicode="z" d="M301 174 l22 -4 l-4 -158 l-292 0 l0 22 l188 409 l-61 0 q-38 0 -53 -20 q-17 -22 -41 -105 l-20 4 l5 152 l273 0 l0 -23 l-191 -408 l77 0 q38 0 56 22 q22 26 41 109 Z" /><glyph glyph-name="" unicode="&#x4e66;" d="M485 -11 q0 -26 -33 -71 q-32 -43 -49 -48 q-4 -1 -11 4 q-7 6 -8 13 l8 235 l-1 211 l-183 -3 q-69 -2 -119 -10 l-32 29 l334 5 l0 226 l-233 -6 q-8 0 -8 10 q0 9 8 10 l233 5 l0 71 l-5 174 l113 -35 q5 -1 5 -6 q0 -5 -4 -8 q-16 -10 -17 -39 l0 -154 l168 4 l40 48 l80 -52 q7 -7 0 -13 l-27 -35 l-15 -194 l56 1 l37 48 l82 -49 q6 -5 1 -12 l-24 -34 l-3 -111 l2 -83 q0 -47 -36 -89 q-30 -35 -78 -60 q-7 -2 -9 2 q-1 1 0 5 q7 57 -42 79 q-5 2 -4 6 q1 4 7 3 q46 -1 58 14 q7 8 7 24 l4 237 l-304 -6 l1 -213 l1 -133 ZM652 587 l-169 -5 l0 -226 l154 2 l15 229 ZM667 791 q76 -15 135 -36 q69 -25 77 -47 q7 -22 -3 -50 q-9 -26 -27 -41 q-28 -19 -44 8 q-39 67 -73 102 q-29 31 -71 53 q-5 4 -4 7 q1 5 10 4 Z" /><glyph glyph-name="" unicode="&#x4e8e;" d="M252 705 q-68 -4 -106 -11 l-30 30 l621 11 l59 57 l69 -65 q3 -3 2 -5 q0 -4 -4 -5 l-372 -7 l67 -20 q7 -3 3 -12 l-14 -34 l0 -236 l252 7 l63 66 l84 -74 q3 -3 2 -5 q0 -4 -4 -5 l-397 -12 l0 -127 l5 -176 q2 -56 -37 -109 q-39 -54 -109 -88 q-6 -3 -10 0 q-3 3 -2 10 q0 46 -11 65 q-11 19 -42 31 q-5 3 -4 7 q2 5 9 5 q80 -4 98 11 q9 8 9 23 l-2 345 l-257 -7 q-60 -5 -105 -13 l-30 33 l392 10 l0 117 q0 128 -3 187 l-196 -4 Z" /><glyph glyph-name="" unicode="&#x4eab;" d="M673 648 l84 -49 q5 -3 0 -9 l-25 -34 l1 -95 l5 -12 q1 -2 0 -3 q-1 -2 -3 -2 q-90 2 -391 -3 q-5 -23 -52 -51 q-15 -9 -21 -3 q-3 3 -3 8 l3 96 l0 45 q1 20 -4 98 q0 3 1 4 q3 2 8 -1 l67 -31 l297 4 l33 38 ZM200 139 q-65 -4 -102 -13 l-35 34 l407 11 q-2 70 -4 104 q1 6 7 4 q22 -13 50 -20 l63 82 l-254 -6 q-37 -1 -68 -8 l-29 27 l361 9 l43 41 l74 -65 q8 -7 5 -15 q-3 -7 -16 -8 q-62 -5 -157 -62 q7 -1 13 -1 q8 0 6 -9 q3 -30 3 -71 l252 7 l57 62 l73 -68 q5 -10 -6 -13 l-376 -11 q0 -77 -5 -144 q-10 -89 -120 -136 q-4 -1 -6 0 q-5 2 -4 10 q-8 56 -41 68 q-5 2 -5 8 q0 6 5 6 q48 0 61 8 q13 8 16 37 q5 62 3 140 l-271 -8 ZM344 584 l0 -121 l297 4 l0 120 l-297 -3 ZM251 677 q-71 -3 -104 -12 l-35 31 l343 3 l-5 134 q0 5 1 6 q2 2 6 1 l105 -31 q9 -3 2 -14 q-13 -13 -13 -44 l1 -51 l210 2 l56 57 l67 -64 q5 -5 1 -8 q-2 -2 -5 -2 l-630 -8 Z" /><glyph glyph-name="" unicode="&#x5173;" d="M304 587 q-55 -1 -105 -10 l-34 28 l168 4 l-3 154 q-2 35 -4 46 q-1 4 1 6 q2 2 8 -1 l71 -30 q7 -4 7 -13 l-3 -160 l148 4 l75 221 l93 -49 q4 -2 4 -5 q0 -2 -4 -6 l-18 -18 l-78 -141 l72 2 l53 51 l66 -60 q6 -5 2 -9 q-2 -2 -5 -2 l-279 -7 q-3 -136 -14 -222 l287 4 l59 59 l71 -68 q4 -3 3 -6 q-1 -3 -4 -3 l-381 -7 q26 -129 113 -210 q86 -82 292 -176 q8 -4 6 -9 q-2 -5 -11 -6 q-71 -3 -126 -62 q-145 95 -204 186 q-59 90 -85 277 l-23 -1 q-25 -187 -136 -288 q-112 -102 -365 -182 q-6 -2 -9 4 q-2 5 3 11 q196 74 293 169 q98 97 123 285 l-230 -4 q-64 -1 -107 -10 l-28 31 l367 5 q11 87 11 221 l-140 -3 Z" /><glyph glyph-name="" unicode="&#x5206;" d="M202 413 l411 17 l46 54 l94 -62 q8 -6 0 -14 l-29 -38 q-5 -193 -14 -328 q-9 -42 -48 -83 q-40 -42 -98 -70 q-6 -3 -10 -1 q-4 2 -4 7 q4 62 -29 86 q-9 4 -6 11 q2 4 8 4 q43 1 62 10 q19 10 22 41 q7 31 10 175 q3 131 0 186 l-246 -9 l82 -32 q6 -3 5 -6 q-1 -3 -3 -7 l-11 -27 q-11 -115 -56 -195 q-45 -79 -114 -134 q-108 -82 -240 -138 q-9 -4 -12 1 q-3 5 6 10 q167 89 241 185 q78 101 87 252 q2 37 0 90 l-42 -1 q-23 -1 -81 -10 l-31 26 ZM541 827 q75 -125 167 -205 q96 -84 270 -174 q4 -2 3 -7 q-1 -4 -5 -4 q-56 -2 -124 -67 q-125 103 -190 193 q-72 99 -131 259 l10 5 ZM68 328 q-11 -5 -14 -1 q-4 5 3 13 q206 190 315 478 l103 -46 q5 -6 -1 -12 l-24 -16 q-89 -137 -199 -250 q-62 -63 -183 -166 Z" /><glyph glyph-name="" unicode="&#x5bc6;" d="M645 688 l82 -53 q5 -5 -3 -11 l-26 -18 q-125 -154 -276 -246 q6 -2 9 -2 q88 -20 185 -4 q19 7 25 12 q11 9 11 25 l2 87 q-1 8 2 10 q4 2 9 -6 q25 -50 46 -73 q21 -22 52 -35 q29 -11 28 -33 q-1 -22 -33 -36 q-78 -33 -189 -36 q-103 -2 -173 22 q-27 10 -46 27 q-107 -57 -310 -142 q-8 -3 -11 3 q-2 5 6 9 q194 101 289 165 q-10 19 -12 44 q-4 74 4 187 q0 6 3 7 q3 1 8 -2 l76 -32 q6 -4 -1 -14 l-12 -14 q-14 -60 -9 -126 q0 -6 1 -9 q156 119 263 294 ZM723 227 l111 -46 q6 -2 7 -6 q1 -3 -4 -9 l-15 -27 l0 -99 q0 -77 -72 -135 q-19 -11 -24 6 q-16 66 -32 89 l-408 -10 l0 -10 q-10 -45 -52 -83 q-17 -14 -24 -8 q-3 2 -4 9 l2 213 l-6 96 q0 8 3 10 q3 2 12 -1 l78 -30 q9 -3 4 -11 l-9 -25 l-4 -142 l172 5 l0 131 l-4 122 l115 -34 q5 -1 5 -6 q0 -4 -4 -8 q-15 -15 -19 -39 l-3 -164 l175 4 l2 129 l-2 79 ZM801 722 l41 38 l97 -74 q7 -7 3 -15 q-3 -7 -14 -8 q-60 -1 -128 -46 q-6 -2 -9 0 q-2 2 -1 7 l15 80 l-588 -22 q-31 -107 -116 -155 q-17 -9 -21 4 q-12 45 1 65 q37 31 51 55 q17 28 24 76 q-2 11 6 11 q5 0 12 -4 q18 -10 40 -33 l235 8 l3 130 l113 -28 q8 -3 2 -13 l-11 -23 l-4 -62 l249 9 ZM242 547 q1 5 4 6 q6 2 8 -6 q27 -115 -10 -172 q-8 -16 -32 -24 q-22 -7 -42 -3 q-17 4 -19 20 q-3 17 13 33 q67 70 78 146 ZM849 464 q3 -17 -6 -37 q-9 -22 -24 -29 q-15 -10 -24 -7 q-8 3 -12 16 q-33 98 -87 139 q-4 3 -3 6 q1 4 5 2 q71 -17 103 -33 q45 -23 48 -57 ZM436 673 q75 -24 94 -65 q8 -17 -6 -40 q-11 -18 -26 -30 q-18 -12 -26 4 q-30 71 -42 125 q-1 3 1 5 q2 2 5 1 Z" /><glyph glyph-name="" unicode="&#x5f52;" d="M496 394 q-9 0 -11 7 q-2 11 10 15 l262 4 l3 271 l-282 -6 q-16 5 -12 17 q2 6 9 6 l286 7 l42 59 l86 -50 q7 -4 1 -11 l-28 -43 l-5 -443 l5 -160 q-10 -63 -69 -122 q-13 -10 -21 1 q-17 55 -39 83 l-307 -5 q-5 0 -9 4 q-3 3 -3 8 q0 12 11 12 l328 3 l4 347 l-261 -4 ZM422 786 l-5 -32 l0 -323 q-5 -197 -94 -319 q-90 -124 -302 -251 q-8 -2 -10 3 q-2 5 4 10 q169 121 235 233 q74 125 78 327 l-1 287 l-3 109 q0 4 1 6 q2 2 5 0 l92 -50 ZM172 698 l60 -30 q11 -5 8 -23 l-4 -347 q-8 -56 -52 -103 q-11 -12 -22 -1 q-4 4 -5 10 l5 486 q-1 5 0 7 q1 4 10 1 Z" /><glyph glyph-name="" unicode="&#x5f71;" d="M409 544 q5 -2 6 -5 q1 -4 -3 -9 q-13 -10 -13 -43 l0 -13 l126 2 l51 56 l69 -60 q6 -5 1 -10 q-2 -1 -6 -2 l-422 -8 q-81 -3 -119 -11 l-34 28 l249 4 l-3 89 l-81 -1 q-11 -26 -40 -46 q-12 -9 -19 -4 q-3 2 -4 8 l1 203 q0 12 -4 76 q-1 4 1 5 q1 1 7 -1 l54 -32 l229 5 l32 46 l86 -43 q7 -3 2 -10 l-21 -28 l0 -150 l8 -15 q3 -4 2 -7 q-2 -4 -8 -3 q-69 0 -138 0 l-85 -2 l76 -19 ZM403 22 q1 -82 -103 -136 q-10 -3 -12 5 q-2 29 -10 42 q-7 12 -24 20 q-10 4 -6 10 q2 3 6 3 q39 -3 52 2 q12 5 12 22 l-1 229 q-40 -1 -81 -1 q-14 -26 -45 -47 q-15 -8 -19 -4 q-3 2 -3 8 l4 89 l0 40 q-2 49 -4 99 q0 5 5 5 q1 0 5 -2 l67 -30 l214 4 l38 42 l76 -48 q5 -3 0 -9 l-24 -27 l1 -103 l6 -11 q1 -2 0 -3 q-1 -2 -3 -2 q-69 2 -152 1 l-1 -92 l2 -106 ZM404 -139 q-7 -4 -10 3 q-3 7 4 13 q146 81 278 213 q116 116 196 246 l79 -84 q7 -8 -3 -15 l-17 -13 q-107 -107 -250 -202 q-103 -68 -277 -161 ZM458 758 l-228 -5 l0 -75 l197 7 q8 -1 9 -6 q1 -7 -10 -10 l-196 -7 l1 -85 l228 8 l-1 173 ZM241 359 l0 -122 l221 3 l0 123 l-221 -4 ZM870 582 l63 -72 q4 -6 -1 -13 q-156 -135 -326 -233 q-6 -3 -9 3 q-3 5 1 9 q90 73 166 164 q64 76 96 136 q4 10 10 6 ZM835 808 l72 -63 q4 -5 -1 -11 q-99 -98 -278 -219 q-5 -4 -9 0 q-4 4 -1 8 q145 155 208 280 q3 4 3 5 q2 3 6 0 ZM295 143 q5 -4 0 -10 q-89 -121 -259 -241 q-5 -2 -7 0 q-2 2 2 6 q79 69 130 158 q29 51 55 125 l79 -38 ZM438 176 q59 -17 102 -44 q45 -29 46 -53 q1 -16 -12 -34 q-10 -13 -23 -21 q-25 -16 -34 9 q-27 90 -82 138 q-2 2 -1 4 q1 2 4 1 Z" /><glyph glyph-name="" unicode="&#x6298;" d="M511 762 l90 -53 q152 77 199 119 q6 6 11 1 l68 -85 q3 -5 1 -9 q-2 -4 -8 -5 q-78 -5 -290 -45 l0 -178 l237 4 l55 57 l67 -61 q6 -5 2 -10 q-2 -3 -5 -3 l-188 -5 l64 -42 q13 -7 1 -21 l-21 -29 l4 -393 q-5 -69 -58 -101 q-16 -10 -25 -5 q-4 2 -4 8 l-4 582 l-125 -3 q0 -132 -9 -224 q-11 -101 -48 -170 q-62 -119 -277 -225 q-4 0 -7 2 q-6 5 2 11 q111 65 166 132 q56 66 75 168 q22 121 21 345 l0 117 q0 70 -3 115 q0 6 2 7 q2 1 7 -1 ZM254 823 l87 -31 q6 -3 5 -6 q-1 -2 -4 -7 l-14 -30 l-2 -133 l35 1 l45 47 l61 -53 q4 -4 2 -8 q-2 -4 -7 -5 l-136 -6 l-2 -175 q58 23 124 50 q4 2 6 -3 q2 -4 -4 -8 q-77 -51 -127 -85 l-1 -100 l0 -187 q0 -58 -24 -100 q-26 -45 -84 -79 q-8 -5 -12 -1 q-4 4 -3 12 q5 46 -31 73 q-8 6 -2 11 q3 2 7 2 q58 -5 68 13 q5 9 5 30 l1 273 q-82 -59 -113 -87 q-7 -6 -11 -4 q-2 2 -4 5 l-32 100 q-2 7 5 8 q54 14 155 49 l1 200 l-50 -2 q-46 -2 -89 -11 l-30 31 l169 6 l0 11 q0 74 -3 191 q-1 5 0 7 q1 4 9 1 Z" /><glyph glyph-name="" unicode="&#x63a5;" d="M219 824 l89 -32 q6 -3 5 -6 q-1 -2 -4 -7 l-14 -30 l-2 -148 l27 2 l43 46 l56 -50 q4 -4 2 -8 q-2 -4 -7 -5 l-121 -8 l-2 -155 q90 35 115 45 q4 2 6 -2 q2 -4 -2 -8 l-21 -15 l125 3 q0 146 -6 186 q-1 5 1 7 q2 2 8 0 l65 -29 q6 -5 6 -13 l-3 -149 l111 3 l6 79 q6 85 6 125 q1 3 2 4 q2 2 6 -1 l86 -37 q4 -2 4 -4 q0 -3 -3 -5 l-15 -26 l-26 -133 l77 2 l51 55 l67 -64 q2 -2 2 -4 q-1 -3 -4 -4 l-353 -10 l72 -36 q5 -2 5 -5 q0 -3 -4 -7 l-22 -19 l-55 -76 l256 8 l52 54 l65 -61 q3 -3 2 -5 q0 -4 -4 -5 l-196 -6 l49 -27 q5 -4 1 -9 l-13 -12 q-67 -89 -119 -137 q165 -40 194 -69 q10 -10 14 -43 q4 -32 -1 -54 q-6 -20 -21 -24 q-16 -4 -28 12 q-71 78 -201 141 q-126 -103 -396 -187 q-13 -3 -14 3 q-1 7 10 13 q218 83 340 197 q-72 28 -140 42 q36 69 69 146 l-23 -1 q-55 -2 -101 -11 l-29 28 l162 5 q32 79 55 144 l-82 -2 q-61 -3 -110 -13 l-18 19 q-36 -25 -80 -56 l-1 -124 l3 -188 q2 -111 -111 -179 q-8 -5 -12 -1 q-4 4 -3 12 q3 49 -31 73 q-8 6 -2 11 q3 2 7 2 q44 3 57 11 q13 8 13 31 l1 294 q-65 -48 -103 -83 q-7 -6 -11 -4 q-2 2 -4 5 l-34 102 q-2 7 5 8 q48 12 147 48 l1 180 l-21 -1 q-65 -4 -102 -13 l-30 29 l153 9 l0 28 q0 74 -3 191 q-1 5 0 7 q1 4 9 1 ZM486 127 q68 -12 130 -26 q67 72 115 167 l-148 -4 l-97 -137 ZM543 667 q-66 -3 -100 -11 l-36 28 l196 3 l4 138 l99 -24 q12 -5 2 -18 l-11 -31 l-5 -64 l95 2 l46 47 l59 -53 q3 -4 2 -6 q-1 -2 -8 -3 l-343 -8 Z" /><glyph glyph-name="" unicode="&#x6444;" d="M461 453 q-62 -3 -106 -12 l-32 30 l146 3 l-2 173 l-3 101 q-49 -1 -89 -9 l-32 30 l477 7 l42 46 l61 -51 q5 -5 1 -9 q-2 -1 -6 -2 l-183 -5 l49 -15 q8 -3 2 -17 l-5 -16 l-2 -139 l1 -88 l82 2 l50 54 l66 -59 q5 -5 1 -9 q-2 -1 -6 -2 l-192 -5 l0 -12 q-11 -44 -55 -90 q-11 -10 -19 -8 q-7 2 -7 14 l2 94 l-241 -6 ZM197 824 l85 -31 q6 -3 5 -6 q-1 -2 -4 -7 l-13 -30 l-2 -147 l30 1 l42 44 l54 -49 q6 -10 -3 -13 l-123 -5 l-1 -165 q33 15 66 31 q4 1 5 -2 q2 -3 -3 -8 q-34 -28 -69 -55 l-1 -139 l4 -146 q3 -109 -112 -178 q-8 -5 -12 -1 q-4 4 -3 12 q10 48 -29 73 q-8 5 -2 11 q2 2 6 2 q45 -2 59 6 q13 8 13 35 l1 262 q-70 -58 -98 -89 q-5 -5 -8 -5 q-3 0 -6 6 l-29 94 q-1 6 4 7 q43 12 137 51 l1 194 l-31 -1 q-54 -1 -89 -10 l-28 29 l148 5 l0 25 q0 74 -3 191 q-1 5 0 7 q1 4 9 1 ZM630 311 q-3 0 -5 2 q-3 4 -3 8 q-1 10 7 11 l159 8 l34 44 l71 -45 q5 -8 -2 -14 l-19 -24 q-52 -109 -123 -194 q76 -64 240 -132 q5 -2 4 -7 q-1 -4 -5 -6 q-50 -3 -115 -74 q-115 85 -168 170 q-81 -84 -224 -185 q-4 -3 -6 -1 q-5 4 0 10 q125 111 202 228 q-30 66 -47 171 l9 2 q16 -72 65 -131 q41 70 83 168 l-157 -9 ZM586 62 q-10 -41 -36 -60 q-10 -10 -24 8 q-33 60 -63 101 q-79 -96 -242 -227 q-6 -4 -8 1 q-2 5 2 9 q132 128 211 266 q-24 28 -68 68 q-3 4 -2 7 q3 3 9 2 q39 -23 78 -46 q25 45 58 120 l-143 -9 q-6 0 -8 7 q-3 12 7 15 l148 7 l35 42 l68 -43 q5 -8 -2 -14 l-22 -26 q-45 -80 -86 -135 q38 -25 80 -58 q15 -18 8 -35 ZM670 581 q11 -2 12 -9 q1 -9 -11 -11 l-135 -4 l-2 -82 l168 4 l2 61 l1 119 l-3 95 l-215 -5 l55 -18 q10 -3 4 -17 l-6 -16 l-1 -35 l129 5 q11 -2 12 -9 q1 -9 -11 -11 l-131 -5 l-1 -66 l133 4 Z" /><glyph glyph-name="" unicode="&#x6709;" d="M229 630 q-65 -4 -106 -12 l-29 33 l347 3 q39 92 66 188 l103 -66 q7 -4 7 -10 q0 -6 -8 -10 l-34 -19 q-14 -28 -42 -82 l305 3 l65 61 l72 -65 q5 -12 -5 -14 l-448 -6 q-45 -83 -96 -156 l291 8 l38 37 l79 -57 q6 -5 -1 -13 l-26 -28 l10 -364 q4 -66 -15 -105 q-22 -44 -84 -82 q-6 -3 -10 -1 q-4 2 -4 7 q-4 28 -12 42 q-7 11 -19 18 q-6 3 -4 9 q1 3 6 3 q30 -1 40 8 q10 9 8 35 l-8 469 l-306 -11 q-1 -2 -3 -4 l-1 -137 l260 9 q11 -3 13 -8 q2 -7 -10 -13 l-263 -9 l-1 -137 l269 10 q11 -4 13 -9 q2 -6 -10 -11 l-272 -10 l-1 -111 q0 -63 -47 -126 q-12 -17 -20 -16 q-8 1 -9 18 l11 463 q-136 -161 -317 -275 q-7 -5 -10 -1 q-4 5 4 12 q135 96 244 239 q101 132 172 295 l-202 -2 Z" /><glyph glyph-name="" unicode="&#x6742;" d="M383 838 l100 -39 q9 -6 2 -17 l-12 -28 l-3 -47 l144 5 l33 47 l93 -44 q7 -4 1 -12 l-24 -36 l-41 -138 q-7 -22 0 -32 q8 -12 39 -14 q55 -3 110 10 q30 7 42 25 q11 15 29 71 q2 7 9 5 q6 -2 5 -9 q-12 -72 17 -86 q31 -20 29 -43 q-3 -27 -43 -43 q-90 -35 -194 -13 q-53 11 -81 45 q-30 37 -29 97 l9 148 l-149 -5 l-2 -53 q-5 -99 -99 -166 q-96 -68 -334 -139 q-6 -1 -8 4 q-3 6 6 12 q198 67 279 142 q71 65 74 158 l1 39 l-87 -2 q-57 -1 -106 -11 l-33 29 l227 7 l-4 133 ZM254 286 q-78 -4 -121 -13 l-28 32 l354 2 l-2 125 q-1 7 0 9 q2 3 7 1 l86 -21 q16 -4 13 -20 l-2 -93 l222 2 l63 65 l78 -70 q3 -3 3 -5 q0 -5 -6 -6 l-360 -5 l-5 -275 q-1 -37 -31 -76 q-32 -41 -83 -62 q-12 -3 -13 5 q1 54 -32 75 q-10 3 -6 10 q2 3 6 3 q49 -2 61 10 q6 5 6 15 l-4 204 q-98 -88 -219 -160 q-90 -53 -219 -111 q-7 -2 -10 3 q-3 5 1 11 q224 112 414 347 l-173 -2 ZM615 227 q161 -49 237 -105 q15 -19 9 -48 q-5 -27 -27 -54 q-10 -15 -21 -13 q-10 2 -18 15 q-73 118 -183 197 q-2 0 -2 3 q1 4 5 5 Z" /><glyph glyph-name="" unicode="&#x6797;" d="M652 840 l96 -43 q6 -5 1 -9 l-20 -30 l-2 -148 l82 2 l53 49 l59 -56 q4 -3 2 -7 q-2 -3 -7 -4 l-162 -3 q15 -157 73 -267 q52 -99 160 -197 q4 -2 5 -4 q2 -7 -7 -9 q-61 0 -121 -44 q-67 101 -94 229 q-20 95 -31 291 l-12 0 l-5 -423 l3 -179 q-6 -52 -61 -107 q-11 -8 -18 -7 q-8 1 -7 12 l7 288 l0 185 q-85 -156 -244 -324 q-7 -7 -13 -3 q-5 3 1 12 q88 113 150 247 q56 122 107 298 l-15 0 q-59 -1 -110 -10 l-27 27 l152 3 l1 93 q0 78 -2 134 q0 4 1 5 q2 1 5 -1 ZM272 836 l96 -43 q6 -5 1 -9 l-22 -30 l-2 -163 l39 1 l49 47 l55 -54 q4 -3 2 -7 q-2 -3 -7 -4 l-138 -4 l-5 -408 l2 -179 q-6 -50 -58 -102 q-15 -13 -22 -9 q-3 2 -3 9 l7 288 l0 179 q-89 -141 -243 -314 q-5 -6 -9 -2 q-4 5 -2 11 q151 211 255 519 l0 6 l-21 0 q-62 0 -110 -10 l-28 29 l159 3 l1 108 q0 78 -2 134 q0 4 1 5 q2 1 5 -1 ZM366 451 q50 -15 87 -36 q41 -24 44 -43 q4 -14 -11 -36 q-13 -20 -30 -29 q-25 -13 -33 13 q-21 88 -61 122 l4 9 Z" /><glyph glyph-name="" unicode="&#x6807;" d="M245 836 l79 -43 q6 -5 1 -9 l-13 -30 l-2 -167 l52 1 l46 46 l53 -53 q4 -3 2 -7 q-2 -3 -7 -4 l-146 -4 l-1 -97 q103 -35 118 -71 q4 -14 -7 -33 q-10 -17 -25 -25 q-14 -7 -21 -5 q-7 2 -10 15 q-28 78 -55 104 l-2 -297 l4 -130 q63 68 111 162 q39 76 59 148 q3 11 11 7 l69 -49 q5 -6 1 -12 q-86 -133 -251 -274 l1 -25 q-3 -66 -50 -111 q-9 -8 -18 -5 q-10 4 -9 14 l5 282 l0 191 q-77 -123 -214 -272 q-5 -6 -9 -2 q-4 5 -2 11 q73 106 127 221 q47 102 97 251 l-24 0 q-58 0 -110 -9 l-28 29 l164 2 l0 112 q0 78 -2 134 q0 4 1 5 q2 1 5 -1 ZM544 450 q-69 -4 -107 -11 l-28 29 l421 6 l58 54 l62 -64 q4 -4 2 -7 q-1 -2 -4 -3 l-317 -4 l76 -22 q8 -3 4 -9 l-14 -31 l-8 -353 q-2 -97 -111 -150 q-6 -2 -9 1 q-2 2 -1 9 q-4 53 -35 67 q-8 3 -4 10 q2 3 5 3 q44 1 57 10 q11 7 14 32 l5 433 l-66 0 ZM749 282 q131 -44 195 -104 q20 -36 -16 -89 q-34 -29 -55 13 q-52 110 -128 172 q-3 1 -1 5 q1 4 5 3 ZM595 725 q-67 -1 -108 -9 l-28 26 l300 5 l46 46 l59 -52 q4 -4 2 -7 q-1 -2 -4 -3 l-267 -6 Z" /><glyph glyph-name="" unicode="&#x6863;" d="M839 742 l76 -62 q7 -7 -7 -16 l-203 -190 l89 2 l42 54 l82 -51 q7 -4 1 -11 l-26 -34 l-6 -440 l12 -20 q3 -9 -6 -11 q-49 3 -169 3 l-303 -4 q-11 1 -12 10 q-1 11 11 13 l370 3 l2 245 l-330 -5 q-10 0 -12 6 q-3 12 8 16 l334 6 l2 197 l-333 -4 q-5 0 -9 3 q-3 3 -3 7 q-1 11 9 11 l157 3 l1 209 l-4 148 l95 -33 q8 -3 2 -14 l-11 -29 l-10 -278 q109 159 151 266 ZM246 828 l93 -43 q6 -5 1 -9 l-16 -30 l-1 -151 l31 1 l46 46 l53 -54 q5 -7 -3 -10 l-127 -3 l-1 -116 q98 -30 107 -60 q4 -14 -8 -33 q-10 -17 -24 -25 q-22 -12 -28 9 q-20 61 -47 91 l-2 -275 l5 -169 q-1 -28 -20 -61 q-17 -30 -43 -54 q-11 -8 -19 -5 q-8 3 -7 14 l6 282 l0 186 q-87 -130 -223 -268 q-5 -6 -9 -2 q-4 5 -2 11 q74 103 129 215 q49 99 105 254 l0 4 l-28 0 q-58 0 -110 -9 l-28 29 l166 2 l0 95 q0 78 -2 134 q0 4 1 5 q2 1 5 -1 ZM446 700 q-2 3 0 6 q2 2 6 0 q100 -58 121 -104 q5 -13 -8 -34 q-14 -21 -35 -29 q-31 -10 -34 21 q-10 90 -50 140 Z" /><glyph glyph-name="" unicode="&#x778e;" d="M189 722 q1 -1 101 4 l30 38 l68 -42 q7 -5 1 -11 l-20 -30 l-6 -474 q5 -128 5 -136 q0 -25 -16 -65 q-17 -43 -41 -67 q-13 -12 -21 -5 q-3 3 -4 9 q-9 82 -26 112 l-94 -5 q-8 -55 -44 -107 q-12 -14 -20 -7 q-3 3 -3 10 l7 640 q0 144 -5 178 q-1 4 2 6 q3 2 7 -1 l79 -47 ZM803 246 l81 -49 q6 -4 0 -10 l-24 -31 l1 -147 l12 -14 q3 -5 2 -8 q-1 -3 -5 -3 q-138 2 -318 -3 l0 -4 q-7 -45 -59 -99 q-19 -10 -23 4 l3 131 l2 111 q1 35 -3 103 q0 5 3 6 q3 1 9 -2 l68 -39 l211 7 l40 47 ZM254 329 q5 0 7 -5 q3 -10 -8 -13 l-88 -7 l-3 -237 l99 6 q18 6 18 27 l6 609 l-97 -5 l-18 -24 l-2 -157 l84 5 q6 0 7 -7 q1 -9 -9 -12 l-83 -5 l-2 -181 l89 6 ZM618 644 l97 -34 q5 -3 0 -8 l-13 -29 l0 -31 l85 3 l44 46 l59 -49 q4 -3 3 -7 q-1 -3 -5 -4 l-186 -8 l0 -79 l75 3 l40 42 l52 -47 q2 -2 3 -5 q1 -5 -4 -6 l-166 -6 l0 -30 l2 -57 l155 5 l53 50 l64 -54 q5 -6 2 -9 q-1 -1 -5 -2 l-269 -9 l1 -19 q1 -20 -21 -50 q-20 -28 -41 -41 q-15 -11 -20 -4 q-3 4 -3 10 l0 101 l-216 -7 q-8 0 -11 4 q-4 4 -3 9 q1 7 9 7 l221 6 l0 87 l-128 -5 q-12 1 -14 7 q-3 11 13 14 l129 4 l1 77 l-159 -6 q-12 1 -14 7 q-3 10 11 13 l161 6 l-2 105 ZM836 704 l40 33 l86 -66 q9 -7 5 -15 q-4 -8 -16 -9 q-29 -2 -48 -8 q-25 -8 -64 -32 q-5 -3 -7 -1 q-3 3 -2 7 l14 73 l-343 -18 q-17 -90 -84 -143 q-13 -7 -17 5 q-7 55 3 78 q28 28 38 48 q10 21 11 55 q0 9 5 9 q3 0 8 -2 q17 -9 37 -30 l118 5 l4 138 l96 -23 q10 -5 2 -18 l-7 -27 l-9 -66 l130 7 ZM770 181 l-219 -7 l1 -173 l217 6 l1 174 Z" /><glyph glyph-name="" unicode="&#x7b14;" d="M257 254 q-49 -6 -103 -18 l-35 32 l299 19 l1 13 l1 110 q-167 -18 -313 -31 q-8 -1 -10 3 q-2 6 7 9 q557 97 647 163 l82 -83 q3 -4 1 -6 q-2 -3 -9 -3 l-42 -3 q-101 -18 -309 -42 l54 -19 q4 -2 4 -5 q0 -3 -4 -7 l-14 -22 l-6 -71 l189 13 l54 61 l77 -62 q5 -3 4 -6 q-1 -3 -6 -5 l-320 -23 l-10 -121 l281 17 l54 59 l77 -62 q5 -3 4 -6 q-1 -3 -6 -5 l-412 -26 l-6 -77 q-3 -41 7 -55 q12 -17 52 -21 q138 -14 246 10 q49 9 80 98 q2 7 9 5 q5 -2 5 -9 q-7 -69 16 -88 q27 -23 22 -47 q-5 -24 -39 -37 q-64 -22 -167 -28 q-96 -6 -175 5 q-68 9 -99 48 q-36 45 -33 139 l1 52 l-204 -13 q-49 -5 -103 -17 l-36 32 l344 21 l4 120 l-161 -11 ZM241 824 l102 -67 q2 -1 1 -4 q-1 -3 -6 -6 q-23 -10 -41 -35 q-21 -30 -26 -37 l128 7 l51 58 l72 -62 q2 -2 2 -5 q1 -5 -5 -6 l-180 -10 q77 -52 81 -105 q-6 -43 -47 -60 q-17 -6 -27 0 q-10 6 -10 21 q-1 84 -29 142 l-52 -2 q-69 -93 -156 -188 q-5 -4 -9 -2 q-3 2 -1 7 q106 186 145 351 q1 3 1 4 q2 1 6 -1 ZM590 824 l97 -59 q5 -3 4 -7 q0 -3 -6 -6 q-21 -11 -38 -37 q-9 -14 -19 -27 l181 6 l53 58 l71 -61 q4 -5 3 -8 q-1 -3 -5 -3 l-226 -10 q68 -36 67 -69 q-8 -40 -44 -53 q-26 -9 -28 18 q-4 65 -26 103 l-60 -3 q-53 -75 -130 -167 q-6 -5 -9 -3 q-4 2 -2 9 q85 180 111 315 q0 4 2 5 q2 1 4 -1 Z" /><glyph glyph-name="" unicode="&#x7b7e;" d="M416 329 q-32 -1 -99 -11 l-25 22 q-106 -78 -273 -167 q-5 -2 -8 3 q-3 5 2 9 q143 85 243 186 q100 101 198 259 l52 -23 q66 128 90 229 l99 -57 q5 -3 4 -7 q0 -3 -6 -6 q-18 -9 -39 -30 q-18 -20 -27 -29 l156 7 l50 55 l70 -58 q4 -5 3 -8 q-1 -3 -5 -3 l-200 -10 q38 -22 56 -38 q23 -21 22 -39 q-1 -19 -16 -35 q-13 -14 -31 -20 q-28 -9 -30 20 q-3 75 -28 111 l-68 -4 q-47 -47 -86 -84 l30 -12 q7 -3 7 -7 q0 -3 -7 -8 l-13 -12 q62 -71 167 -125 q98 -50 280 -110 q4 -1 4 -7 q0 -6 -6 -7 q-62 -5 -123 -77 q-138 86 -213 162 q-58 59 -117 157 l-6 -6 q-111 -121 -225 -205 l269 10 l44 44 l59 -52 q2 -1 3 -3 q2 -5 -6 -6 l-251 -8 ZM659 292 l99 -57 q8 -6 0 -13 l-24 -28 q-81 -119 -192 -252 l233 5 l59 69 l84 -78 q4 -4 3 -7 q-1 -4 -5 -4 l-664 -18 q-58 -2 -112 -12 l-31 34 l413 10 q99 202 137 351 ZM243 827 l94 -66 q3 -2 2 -6 q-1 -3 -6 -6 q-21 -9 -39 -33 q-6 -7 -19 -20 l131 6 l48 54 l71 -58 q2 -2 2 -5 q1 -5 -5 -6 l-203 -11 q79 -43 78 -79 q-1 -11 -14 -25 q-14 -14 -28 -17 q-33 -8 -33 14 q-4 78 -26 106 l-42 -2 q-55 -58 -153 -150 q-4 -4 -9 -2 q-4 2 -2 7 q111 169 153 299 ZM406 306 q55 -39 93 -80 q40 -44 46 -76 q3 -16 -16 -36 q-19 -19 -50 -31 q-11 -4 -17 1 q-6 5 -7 18 q-7 104 -55 199 q-1 3 1 5 q2 3 5 0 ZM261 234 q53 -53 72 -77 q35 -44 48 -88 q4 -13 -14 -35 q-17 -21 -42 -34 q-16 -6 -22 -1 q-6 5 -5 21 q-4 117 -44 209 q-2 3 1 5 q3 2 6 0 Z" /><glyph glyph-name="" unicode="&#x817e;" d="M796 784 l52 -48 q3 -2 2 -5 q-1 -3 -4 -4 l-19 -9 l-108 -87 l66 1 l37 41 l57 -50 q2 -1 2 -3 q1 -4 -4 -5 l-201 -3 q-13 -55 -32 -94 l201 4 l45 47 l63 -55 q1 -2 2 -3 q0 -4 -5 -5 l-316 -8 q-31 -55 -88 -107 q-50 -46 -147 -114 l0 -111 q-1 -105 -22 -156 q-23 -56 -92 -98 q1 49 -21 70 q-5 4 -3 9 q1 2 4 2 q39 1 50 33 q11 32 9 134 l0 562 l-76 -5 l-10 -18 l-4 -154 l65 3 q9 0 9 -10 q0 -9 -9 -10 l-65 -3 l-3 -122 q-1 -20 -2 -40 l70 3 q9 0 8 -9 q-1 -9 -10 -10 l-69 -3 q-8 -171 -57 -269 q-49 -97 -154 -199 q-7 -2 -9 3 q-2 5 4 10 q88 97 122 210 q34 112 34 331 l1 178 q0 111 -5 165 q-1 5 0 7 q1 2 5 0 l75 -45 l73 5 l34 48 l71 -45 q5 -4 0 -9 l-23 -28 l0 -406 q128 99 171 197 q-78 -1 -126 -11 l-31 28 l165 3 q17 44 24 94 l-10 0 q-76 -1 -118 -11 l-30 26 l161 3 q5 42 7 104 q0 70 -1 84 q-1 3 0 5 q2 4 8 2 l90 -35 q5 -2 5 -6 q0 -3 -4 -7 l-15 -24 q-7 -83 -15 -122 l21 0 l95 154 ZM727 489 q35 -62 91 -101 q53 -36 172 -85 q7 -2 4 -8 q-1 -2 -5 -3 q-56 0 -104 -62 q-63 55 -104 116 l-23 -28 l-20 -120 l31 1 l27 41 l77 -42 q6 -4 0 -11 l-19 -27 q-11 -119 -25 -164 q-21 -65 -128 -110 q-6 -2 -8 1 q-2 2 0 9 q3 46 -28 63 q-8 5 -3 10 q2 1 5 1 q43 -4 59 1 q12 4 18 17 q19 44 30 192 l-220 -9 q-26 -24 -56 -37 q-8 -2 -12 0 q-5 3 -3 10 l18 105 l8 60 l70 -36 q5 -3 1 -8 l-11 -15 l-11 -59 l110 4 l21 152 l-166 -4 q-7 0 -7 9 q0 9 7 10 l159 4 l28 34 l61 -36 q-31 52 -52 121 l8 4 ZM535 64 q-51 -1 -94 -9 l-29 25 l227 3 l39 43 l54 -47 q4 -4 3 -7 q-1 -3 -7 -4 l-193 -4 ZM475 761 q33 -8 63 -22 q33 -15 34 -26 q3 -13 -8 -29 q-10 -15 -22 -22 q-16 -6 -23 8 q-17 49 -48 84 q-3 2 -1 5 q1 2 5 2 Z" /><glyph glyph-name="" unicode="&#x897f;" d="M213 724 q-60 -1 -113 -10 l-23 33 l709 5 l66 67 l70 -76 q4 -4 3 -7 q-1 -4 -5 -4 l-361 -4 l74 -29 q4 -1 3 -5 q-1 -3 -2 -5 l-13 -23 l-17 -115 l114 2 l47 49 l80 -63 q6 -5 2 -12 l-25 -32 l2 -285 l3 -166 q1 -35 -12 -74 q-16 -47 -45 -74 q-10 -8 -15 -8 q-6 0 -12 11 q-15 31 -36 101 l-440 -9 q-18 -54 -57 -93 q-10 -7 -15 -6 q-7 2 -7 13 l0 560 l-4 128 l85 -49 l125 2 q1 21 1 65 l-1 47 l-6 68 l-175 -2 ZM724 24 l0 204 q-38 -20 -122 -7 q-42 7 -65 46 q-21 36 -18 83 l10 177 l-65 -1 q-26 -202 -192 -394 l-2 -2 l-1 -115 l455 9 ZM574 332 q-4 -23 4 -33 q7 -9 28 -8 q39 3 74 12 q30 -24 44 -68 l0 297 l-123 -3 l-27 -197 ZM275 522 l-5 -373 q108 142 122 375 l-117 -2 ZM537 650 l-1 78 l-119 -2 l66 -19 q2 -1 3 -3 q1 -2 -2 -6 l-12 -20 l-1 -66 q-1 -22 -5 -64 l65 1 l6 101 Z" /><glyph glyph-name="" unicode="&#x8bb0;" d="M565 719 q-52 -1 -105 -9 l-31 29 l302 6 l38 54 l94 -55 q8 -5 0 -15 l-26 -39 l-7 -245 l10 -17 q2 -4 1 -7 q-2 -3 -6 -3 q-99 11 -239 8 l-36 -1 l-4 -12 l-18 -338 q-2 -30 8 -42 q10 -13 39 -14 q163 -7 246 25 q37 14 54 34 q15 17 35 67 q3 8 9 7 q5 -1 4 -10 q-11 -49 -6 -72 q4 -19 25 -35 q34 -27 26 -59 q-8 -32 -56 -44 q-75 -17 -150 -19 q-58 -2 -173 6 q-66 5 -102 47 q-37 44 -36 119 l5 275 q-3 103 -6 140 q-1 6 1 8 q2 2 7 0 l100 -58 l162 2 l6 269 l-1 1 l-170 -3 ZM433 213 q3 3 6 0 q3 -3 0 -7 l-159 -204 q-44 -51 -74 -94 q-3 -5 -4 -6 q-3 -3 -9 1 l-70 70 q-4 3 -5 6 q-1 4 3 7 q41 20 92 57 l-2 465 l-60 -2 q-64 -3 -84 -8 l-34 30 l176 4 l42 56 l83 -49 q6 -4 0 -10 l-23 -36 l-23 -392 l145 112 ZM163 829 q122 -44 132 -79 q5 -20 -11 -46 q-15 -24 -35 -36 q-25 -11 -32 9 q-8 55 -23 88 q-12 27 -36 53 q-5 4 -3 8 q2 5 8 3 Z" /><glyph glyph-name="" unicode="&#x8bfb;" d="M616 509 l107 -37 q10 -4 3 -17 l-20 -30 l-12 -130 q-3 -32 -9 -61 l160 6 l54 62 l77 -70 q4 -3 3 -6 q-1 -3 -5 -4 l-295 -10 q-29 -128 -147 -205 q-117 -77 -364 -139 q-9 -1 -11 4 q-2 6 7 11 q211 62 310 138 q95 73 123 188 l-118 -4 q-53 -2 -106 -14 l-27 31 l256 9 q6 36 8 60 l6 76 q4 79 0 142 ZM413 173 q3 2 6 0 q3 -3 0 -7 l-137 -141 q-56 -60 -76 -83 q-2 -5 -6 -5 q-3 0 -6 3 l-59 67 q-8 8 -1 13 q26 10 79 39 l-4 446 l-63 -4 q-61 -3 -81 -8 l-34 30 l170 6 l40 51 l80 -50 q6 -4 0 -10 l-22 -29 l-25 -397 l139 79 ZM533 664 q-59 -3 -103 -12 l-30 32 l190 5 l1 26 q-4 114 -5 119 l107 -25 q9 -1 6 -10 q-1 -5 -5 -8 q-16 -22 -16 -60 l-1 -40 l100 3 l46 50 l64 -58 q4 -4 2 -8 q-1 -3 -7 -4 l-205 -6 l-2 -119 l156 6 l41 44 l94 -83 q9 -9 2 -15 q-3 -3 -8 -3 q-34 -2 -70 -19 q-25 -12 -78 -46 q-5 -3 -8 -1 q-3 2 0 9 l28 92 l-323 -11 q-68 -2 -118 -13 l-30 30 l227 7 l2 119 l-57 -1 ZM675 140 q172 -50 219 -108 q9 -11 2 -45 q-6 -33 -20 -54 q-14 -16 -23 -14 q-8 1 -20 20 q-33 65 -71 110 q-36 42 -90 82 q-3 2 -1 7 q1 2 4 2 ZM148 812 q122 -44 132 -80 q6 -21 -9 -47 q-14 -24 -34 -37 q-29 -11 -38 11 q-11 60 -23 90 q-12 29 -36 55 q-1 5 0 7 q3 3 8 1 ZM395 389 q119 -29 128 -59 q6 -39 -23 -64 q-22 -20 -36 6 q-31 72 -72 107 q-5 3 -3 7 q1 3 6 3 ZM454 496 q104 -23 109 -47 q4 -33 -19 -57 q-25 -17 -34 8 q-13 38 -26 57 q-11 15 -32 30 q-6 4 -3 8 q1 2 5 1 Z" /><glyph glyph-name="" unicode="&#x8c08;" d="M828 348 l67 -58 q4 -5 3 -9 q-1 -4 -7 -6 q-82 -36 -182 -76 q76 -144 271 -227 q6 -1 5 -6 q-1 -6 -7 -8 q-31 -5 -56 -19 q-29 -17 -66 -54 q-100 81 -144 177 q-44 96 -60 276 l-7 -106 q-8 -121 -80 -195 q-86 -89 -305 -164 q-8 -3 -11 4 q-3 8 7 12 q178 74 246 156 q63 75 66 200 l1 50 l-5 119 l105 -33 q4 -1 6 -3 q2 -3 -4 -9 l-11 -13 q13 -80 41 -141 q77 67 127 133 ZM390 210 q5 4 8 1 q3 -3 -1 -7 l-122 -159 q-31 -38 -68 -87 q-3 -6 -4 -7 q-3 -2 -8 2 l-62 64 q-4 2 -5 5 q-1 3 3 7 q22 10 74 46 l-3 434 l-63 -2 q-59 -3 -78 -8 l-33 29 l166 3 l40 50 l77 -43 q3 -2 3 -4 q0 -3 -3 -5 l-21 -32 l-21 -375 l121 88 ZM585 832 l112 -32 q4 -1 5 -4 q0 -2 -3 -6 l-19 -23 l-9 -128 q-7 -100 -64 -161 q-78 -84 -285 -152 q-8 -3 -11 4 q-3 7 7 10 q161 71 215 137 q58 71 57 181 l0 57 l-5 117 ZM694 567 q62 -18 121 -48 q61 -31 61 -49 q6 -18 -4 -43 q-10 -25 -28 -34 q-26 -14 -37 15 q-21 51 -55 92 q-29 35 -62 58 q-4 3 -2 6 q2 4 6 3 ZM462 308 q0 5 5 7 q6 2 8 -5 q39 -125 15 -174 q-7 -15 -36 -28 q-28 -12 -46 -10 q-11 1 -17 8 q-14 18 7 39 q32 34 46 68 q14 35 18 95 ZM158 812 q122 -44 132 -80 q6 -21 -9 -47 q-14 -24 -34 -37 q-29 -11 -38 11 q-11 60 -23 90 q-12 29 -36 55 q-1 5 0 7 q3 3 8 1 ZM481 732 q1 5 6 7 q6 1 8 -5 q38 -118 11 -163 q-24 -33 -78 -33 q-16 1 -20 13 q-5 14 11 29 q33 33 48 68 q16 38 14 84 ZM825 766 l64 -64 q5 -5 1 -9 q-2 -2 -6 -3 l-27 -9 l-161 -65 q-4 -3 -6 0 q-2 2 0 6 q105 93 135 144 Z" /><glyph glyph-name="" unicode="&#x90ca;" d="M797 737 l44 46 l78 -57 q8 -3 7 -8 q-1 -5 -9 -10 l-29 -25 l-146 -211 q90 -78 128 -132 q48 -69 47 -138 q-1 -45 -40 -83 q-35 -34 -88 -51 q-4 -2 -8 1 q-4 3 -3 7 q6 43 -10 60 q-7 7 -21 13 q-5 3 -2 7 q2 3 5 3 q53 -4 63 6 q5 5 6 16 q14 149 -100 288 l78 246 l-129 -2 l-3 -501 l3 -181 q-3 -41 -22 -83 q-15 -34 -38 -61 q-16 -14 -25 -7 q-4 3 -4 9 l8 307 l6 406 l-4 210 l78 -48 q3 -3 2 -9 l0 -20 l128 2 ZM177 367 q72 -44 128 -84 q45 106 76 229 l82 -46 q11 -5 -2 -23 q-47 -115 -100 -202 q120 -95 134 -141 q-7 -58 -48 -88 q-18 -10 -27 -5 q-10 5 -18 31 q-26 65 -81 143 q-103 -147 -284 -282 q-5 -4 -9 0 q-5 4 0 8 q82 74 139 145 q66 82 114 181 q-28 36 -111 127 q-4 6 -2 8 q2 2 9 -1 ZM210 653 q-66 -3 -106 -12 l-30 30 l207 5 l-4 146 q0 5 1 6 q2 2 6 1 l98 -30 q9 -3 2 -14 q-11 -11 -11 -44 l-2 -63 l85 2 l49 55 l71 -61 q4 -3 3 -7 q-1 -3 -7 -4 l-362 -10 ZM213 637 l72 -50 q5 -8 -1 -14 q-115 -159 -232 -282 q-5 -4 -8 -2 q-4 2 -2 10 q57 74 97 160 q32 69 63 170 q0 5 1 7 q2 4 10 1 ZM371 610 q137 -44 184 -88 q11 -10 5 -37 q-6 -26 -23 -50 q-9 -13 -19 -12 q-10 1 -18 16 q-34 63 -64 100 q-29 36 -68 62 q-4 2 -2 6 q1 3 5 3 Z" /><glyph glyph-name="" unicode="&#x94fe;" d="M965 28 q7 0 6 -8 q-1 -4 -3 -6 q-35 -17 -51 -38 q-18 -22 -33 -73 q-142 -6 -231 13 q-45 8 -78 36 q-30 26 -60 77 q-8 18 -19 19 q-10 1 -21 -14 q-45 -54 -70 -147 q-5 -11 -15 -4 l-44 76 q-4 5 -2 8 q1 2 5 3 l103 95 l7 368 l-78 -4 q-11 0 -13 8 q-3 11 9 15 l81 4 l30 42 l72 -47 q10 -7 -1 -18 l-24 -32 l-6 -304 q-2 -59 73 -77 q86 -21 363 8 ZM573 624 q-7 1 -9 7 q-3 8 5 12 l98 2 q33 107 46 189 l90 -45 q7 -4 2 -16 l-17 -24 q-16 -38 -49 -103 l100 2 l41 43 l51 -45 q4 -3 3 -7 q-1 -4 -6 -5 l-198 -6 q-48 -92 -98 -182 l94 3 l0 12 l-3 113 l77 -29 q9 -3 3 -18 l-5 -16 l-1 -59 l54 2 l43 47 l55 -49 q4 -4 2 -8 q-2 -3 -8 -4 l-146 -5 l0 -125 l61 2 l42 44 l52 -49 q4 -3 2 -7 q-2 -3 -7 -4 l-150 -5 l0 -13 l2 -114 q0 -26 -13 -58 q-15 -36 -39 -61 q-15 -14 -23 -6 q-4 3 -4 10 l6 223 l0 17 l-147 -5 q-7 1 -9 7 q-3 9 5 13 l151 4 l0 124 l-142 -4 q-10 -1 -12 10 q-1 10 9 13 q8 2 18 14 q8 9 9 13 q27 63 54 148 l-89 -2 ZM119 457 q-9 0 -10 6 q-2 9 8 12 l174 10 l37 40 l48 -44 q4 -5 0 -8 q-2 -2 -5 -2 l-103 -6 l-2 -161 l38 2 l44 44 l54 -50 q4 -5 0 -8 q-2 -2 -5 -2 l-131 -6 l-1 -223 l150 110 q6 5 9 1 q3 -4 -3 -12 l-229 -249 q-8 -8 -14 1 l-39 71 q-5 7 2 11 l54 36 l-2 251 l-17 -1 q-57 -3 -86 -9 l-25 25 l128 5 l-1 160 l-73 -4 ZM183 839 l90 -36 q5 -2 5 -5 q0 -4 -4 -8 l-12 -17 q-19 -44 -67 -128 l99 5 l41 46 l56 -53 q2 -2 2 -5 q0 -2 -4 -3 l-205 -8 q-75 -126 -156 -230 q-4 -4 -8 0 q-4 4 -2 8 q57 91 108 233 q42 118 57 201 ZM408 796 q57 -19 88 -36 q40 -23 44 -50 q3 -22 -10 -43 q-12 -20 -28 -25 q-17 -8 -29 -2 q-10 5 -11 15 q-5 52 -18 79 q-12 27 -42 53 q-4 5 -1 8 q2 3 7 1 Z" /></font>
</defs>
</svg>
